<ttFont>
<head>
    <!-- Most of this table will be recalculated by the compiler -->
    <tableVersion value="1.0"/>
    <fontRevision value="2.004"/>
    <checkSumAdjustment value="0xd84ad9d"/>
    <magicNumber value="0x5f0f3cf5"/>
    <flags value="00000000 00000011"/>
    <unitsPerEm value="1000"/>
    <created value="Thu Oct  8 10:00:58 2009"/>
    <modified value="Thu Oct  8 10:00:58 2009"/>
    <xMin value="-452"/>
    <yMin value="-308"/>
    <xMax value="1445"/>
    <yMax value="1154"/>
    <macStyle value="00000000 00000010"/>
    <lowestRecPPEM value="3"/>
    <fontDirectionHint value="2"/>
    <indexToLocFormat value="0"/>
    <glyphDataFormat value="0"/>
  </head>
          <CharString index="0">
            hstemhm
            -106 callgsubr
            return
          </CharString>
          <CharString index="1">
            740 345 rmoveto
            212 45 -110 158 -162 hhcurveto
            -166 -175 -161 -209 -45 hvcurveto
            -211 -45 113 -155 161 hhcurveto
            165 175 157 209 44 hvcurveto
            -82 15 rmoveto
            -196 -42 -134 -122 -112 hhcurveto
            -116 -79 125 193 42 hvcurveto
            184 39 132 109 111 hhcurveto
            114 83 -112 -181 -38 hvcurveto
            return
          </CharString>
          <CharString index="2">
            506 220 rmoveto
            135 28 -76 104 -115 hhcurveto
            -118 -120 -106 -133 -28 hvcurveto
            -131 -28 79 -99 114 hhcurveto
            118 118 101 129 28 hvcurveto
            -74 10 rmoveto
            -123 -26 -83 -55 -67 hhcurveto
            -72 -54 60 118 25 hvcurveto
            121 26 85 48 63 hhcurveto
            69 59 -52 -117 -25 hvcurveto
            return
          </CharString>
          <CharString index="3">
            rmoveto
            1 61 rlineto
            -19 -68 -1 -32 -73 hvcurveto
            28 -27 -39 5 -20 hhcurveto
            -87 -85 -73 -88 -19 hvcurveto
            -7 -36 4 -33 15 -30 -30 -32 -12 -30 -5 -24 -8 -37 9 -25 8 -13 -58 -33 -21 -43 -6 -28 rrcurveto
            -73 -16 82 -61 122 hhcurveto
            122 109 59 76 16 hvcurveto
            140 30 -162 0 -41 hhcurveto
            hintmask 0100000000100000
            -85 hlineto
            hintmask 0011000001011000
            -14 -43 0 53 11 hvcurveto
            5 22 5 6 8 9 rrcurveto
            -12 14 30 -17 40 hhcurveto
            86 86 71 91 19 hvcurveto
            8 36 -5 37 -14 28 rrcurveto
            0 1 -2 1 -2 vhcurveto
            2 21 23 3 37 hhcurveto
            3 23 0 -2 25 hvcurveto
            -192 -100 rmoveto
            hintmask 0010000000100000
            -89 -19 -59 -18 -31 hhcurveto
            hintmask 0000100010001000
            -44 -38 30 76 16 hvcurveto
            89 19 60 18 31 hhcurveto
            44 37 -30 -76 -16 hvcurveto
            10 -364 rmoveto
            hintmask 1100000101000100
            -46 -10 -76 -33 -78 hhcurveto
            -78 -63 31 49 10 hvcurveto
            3 1 14 65 76 hhcurveto
            87 hlineto
            22 110 0 -69 -15 hvcurveto
            return
          </CharString>
          <CharString index="4">
            619 hmoveto
            -104 694 rlineto
            -88 hlineto
            -400 -43 callsubr
            74 hlineto
            116 203 rlineto
            282 hlineto
            31 -203 rlineto
            -40 259 rmoveto
            -239 hlineto
            196 363 rlineto
            return
          </CharString>
          <CharString index="5">
            rmoveto
            5 23 -4 22 -16 13 rrcurveto
            15 -15 -25 6 -30 hhcurveto
            -34 -37 -16 -28 -27 hvcurveto
            6 -79 callgsubr
            -8 -8 -9 -4 -38 -90 callsubr
            3 3 20 -59 callsubr
          </CharString>
          <CharString index="6">
            hstemhm
            -100 callsubr
            return
          </CharString>
          <CharString index="7">
            hintmask 11100000
            541 hmoveto
            -104 callgsubr
            return
          </CharString>
          <CharString index="8">
            602 hmoveto
            -126 326 116 31 75 76 16 74 rlinecurve
            100 21 -88 87 -141 hhcurveto
            -236 -7 callsubr
            67 317 rlineto
            156 hlineto
            118 -317 rlineto
            88 507 rmoveto
            -62 -13 -69 -68 -126 hhcurveto
            -141 hlineto
            56 261 rlineto
            141 hlineto
            121 45 -64 -67 -14 hvcurveto
            return
          </CharString>
          <CharString index="9">
            rmoveto
            -60 hlineto
            -75 -18 -63 -38 -48 hhcurveto
            -52 -44 41 72 14 hvcurveto
            -60 hlineto
            -107 -21 63 -71 85 hhcurveto
            88 91 73 105 25 hvcurveto
            return
          </CharString>
          <CharString index="10">
            50 callsubr
            195 76 hintmask 11001010
            -92 callgsubr
            hintmask 01000100
            70 329 -41 callsubr
            hintmask 10001000
            -85 callsubr
            return
          </CharString>
          <CharString index="11">
            -83 callgsubr
            5 24 19 14 38 21 rlinecurve
            return
          </CharString>
          <CharString index="12">
            585 45 rmoveto
            8 70 -31 -20 -33 -20 -35 -11 rlinecurve
            -10 -35 -34 -2 -34 hhcurveto
            -64 -50 36 51 -29 hvcurveto
            -34 59 -5 74 16 75 16 75 37 75 58 59 rrcurveto
            51 51 65 35 64 hhcurveto
            30 30 -3 -9 27 hvcurveto
            27 -10 24 -15 21 -18 32 83 rcurveline
            -27 12 -28 9 -30 6 rrcurveto
            6 -30 -31 2 -31 hhcurveto
            -86 -89 -40 -65 -69 hvcurveto
            -77 -69 -49 -91 -20 -93 -20 -92 11 -91 47 -70 rrcurveto
            -64 42 72 -41 86 hhcurveto
            34 35 2 9 35 hvcurveto
            36 10 34 17 33 18 rrcurveto
            return
          </CharString>
          <CharString index="13">
            61 callgsubr
            -47 -32 7 32 rlineto
            103 callgsubr
            -11 -50 -22 -51 -42 -40 rlinecurve
            -35 -35 -48 -20 -46 hhcurveto
            -45 -38 20 35 -22 hvcurveto
            -23 40 -2 51 11 50 99 463 rcurveline
            103 callgsubr
            -14 -66 10 -64 35 -48 rlinecurve
            -46 34 56 -28 63 hhcurveto
            64 66 28 46 54 hvcurveto
            55 48 38 64 14 66 84 393 rcurveline
            111 70 rlineto
            return
          </CharString>
          <CharString index="14">
            552 445 rmoveto
            16 79 rlineto
            1 -79 vlineto
            -2 -1 -16 -79 rlineto
            -1 23 vlineto
            -39 -29 rlineto
            28 -29 -39 17 -45 hhcurveto
            -58 -59 -27 -43 -47 hvcurveto
            -51 -47 -34 -61 -13 -62 -13 -60 8 -59 32 -44 rrcurveto
            -42 29 49 -25 57 hhcurveto
            hintmask 1100010100000000
            57 59 25 42 47 hvcurveto
            50 44 34 59 13 60 13 62 -8 61 -31 47 -2 3 rcurveline
            -40 -162 rmoveto
            -10 -46 -20 -47 -36 -36 rrcurveto
            -31 -31 -42 -19 -40 hhcurveto
            -40 -34 19 31 -18 hvcurveto
            -21 36 -1 47 10 46 9 44 21 44 35 33 rrcurveto
            31 32 41 17 40 hhcurveto
            hintmask 0000001000000000
            39 34 -17 -31 19 hvcurveto
            21 -33 1 -44 -9 -44 rrcurveto
            return
          </CharString>
          <CharString index="15">
            594 -27 callsubr
            -77 hlineto
            -132 -620 rlineto
            -1 hlineto
            -46 168 -124 452 rlineto
            -123 -4 callsubr
            132 620 rlineto
            1 hlineto
            45 -168 125 -452 rlineto
            return
          </CharString>
          <CharString index="16">
            rmoveto
            15 72 rlineto
            -73 hlineto
            -15 -72 rlineto
            23 hlineto
            -47 -113 rlineto
            36 hlineto
            endchar
          </CharString>
          <CharString index="17">
            -96 callsubr
            6 3 4 2 return
          </CharString>
          <CharString index="18">
            416 42 rmoveto
            1 3 3 31 4 vvcurveto
            4 28 rlineto
            -37 -54 -55 -19 -56 hhcurveto
            -83 -38 74 97 20 hvcurveto
            83 18 59 91 100 hhcurveto
            67 25 -16 -29 37 hvcurveto
            26 65 rlineto
            34 -51 -31 8 -59 hhcurveto
            -138 -104 -122 -114 -25 hvcurveto
            -128 -27 70 -105 120 hhcurveto
            49 58 12 40 64 hvcurveto
            return
          </CharString>
          <CharString index="19">
            -81 callsubr
            153 286 -60 callgsubr
            -8 -40 -5 -20 rcurveline
            26 hlineto
            1 hlineto
            5 20 5 24 19 14 37 -11 callgsubr
          </CharString>
          <CharString index="20">
            744 444 rmoveto
            -73 hlineto
            -103 -203 -24 -48 -48 -94 -13 -43 rlinecurve
            -1 hlineto
            2 24 -2 67 -6 71 -18 226 rcurveline
            -69 hlineto
            -98 -196 -31 -62 -43 -86 -12 -42 rlinecurve
            -1 hlineto
            3 19 1 53 -5 67 -19 247 rcurveline
            -76 hlineto
            40 -444 rlineto
            77 hlineto
            65 126 98 190 21 70 rrcurveto
            1 hlineto
            -7 -41 5 -72 2 -23 18 -250 rcurveline
            88 hlineto
            return
          </CharString>
          <CharString index="21">
            -26 167 -41 callsubr
            42 -167 rlineto
            -103 hmoveto
            -26 167 -41 callsubr
            42 95 callsubr
          </CharString>
          <CharString index="22">
            -70 -333 rlineto
            -72 -16 13 -49 82 hhcurveto
            28 80 5 55 73 62 callsubr
            return
          </CharString>
          <CharString index="23">
            616 445 rmoveto
            16 79 rlineto
            1 -80 vlineto
            -1 -1 rlineto
            hintmask 1000010110000000
            -16 -79 -1 -1 rlineto
            24 hlineto
            -46 -32 6 32 -41 callsubr
            -62 -294 rlineto
            -59 -13 -60 -46 -60 hhcurveto
            -33 -19 2 12 -12 hvcurveto
            hintmask 0000100000000000
            -12 11 1 18 5 24 rrcurveto
            hintmask 0000010000000000
            70 332 -41 callsubr
            hintmask 1000101010000000
            -70 -332 -8 -39 -2 -30 14 -24 rlinecurve
            -21 14 26 -8 33 hhcurveto
            68 67 22 38 48 62 callsubr
            74 hlineto
            79 374 111 70 rlineto
            return
          </CharString>
          <CharString index="24">
            30 -58 -53 1 -23 hhcurveto
            -23 -139 0 -130 -28 hvcurveto
            -9 -44 17 -30 12 -14 30 -31 24 -5 56 -12 32 -7 55 -12 -11 -53 rrcurveto
            -69 -15 -78 0 -14 hhcurveto
            -40 -56 11 39 -45 hvcurveto
            -27 -68 rlineto
            -3 5 59 -41 92 hhcurveto
            129 47 78 59 13 hvcurveto
            return
          </CharString>
          <CharString index="25">
            hlineto
            -148 -43 callsubr
            return
          </CharString>
          <CharString index="26">
            rmoveto
            -98 134 rlineto
            -60 hlineto
            -154 -134 rlineto
            59 hlineto
            117 97 77 -97 rlineto
            return
          </CharString>
          <CharString index="27">
            400 387 rmoveto
            14 67 -91 -1 -64 -53 -35 -39 rlinecurve
            18 88 rlineto
            -69 hlineto
            -95 -449 rlineto
            74 hlineto
            47 219 21 101 90 66 90 1 rlinecurve
            return
          </CharString>
          <CharString index="28">
            780 345 rmoveto
            36 170 -74 91 -26 31 71 91 rcurveline
            -48 30 -65 -84 rlineto
            25 -39 -50 16 -52 hhcurveto
            -179 -183 -163 -207 -44 hvcurveto
            -30 -144 50 -100 45 -44 -70 -91 rcurveline
            47 -30 65 84 rlineto
            -3 5 55 -38 82 hhcurveto
            178 183 160 206 43 hvcurveto
            -149 274 rmoveto
            -392 -502 -23 34 -31 72 26 122 rlinecurve
            200 43 144 110 121 hhcurveto
            47 39 -17 -19 26 hvcurveto
            65 -274 rmoveto
            -199 -42 -144 -107 -121 hhcurveto
            -54 -38 21 15 -19 hvcurveto
            391 501 42 -63 3 -85 -18 -83 rlinecurve
            return
          </CharString>
          <CharString index="29">
            rmoveto
            -59 hlineto
            -122 -123 -70 123 rlineto
            -59 hlineto
            89 -172 rlineto
            60 hlineto
            endchar
          </CharString>
          <CharString index="30">
            -43 -58 -39 -79 -19 hvcurveto
            60 hlineto
            return
          </CharString>
          <CharString index="31">
            -98 callgsubr
            endchar
          </CharString>
          <CharString index="32">
            rmoveto
            -60 hlineto
            hintmask 00010000
            -88 callgsubr
            hintmask 00001000
            21 -24 -18 12 -25 hhcurveto
            hintmask 00010000
            -77 callsubr
            hintmask 00001000
            26 6 return
          </CharString>
          <CharString index="33">
            -47 30 -90 -118 rlineto
            16 -29 -28 4 -23 hhcurveto
            -118 -120 -106 -133 -28 hvcurveto
            -24 -112 61 -62 4 -5 -94 -123 rcurveline
            46 -30 92 120 rlineto
            -14 31 28 -4 21 hhcurveto
            118 118 101 129 28 hvcurveto
            -123 166 rmoveto
            -220 -286 -26 42 10 57 5 21 rlinecurve
            121 25 83 58 70 hhcurveto
            19 19 -4 -9 15 hvcurveto
            48 -166 rmoveto
            -120 -26 -84 -50 -65 hhcurveto
            -18 -20 4 8 -15 hvcurveto
            219 284 19 -36 -1 -47 -9 -43 rlinecurve
            return
          </CharString>
          <CharString index="34">
            707 -10 60 -3 60 91 54 -27 54 12 60 48 60 -58 58 hstemhm
            71 71 159 76 166 71 0 76 hintmask 1010101111000000
            727 225 rmoveto
            36 7 42 198 -162 hhcurveto
            -13 -75 0 -77 -77 hvcurveto
            37 -16 -32 40 -74 hhcurveto
            -60 -50 -15 -27 -53 hvcurveto
            -8 -66 rlineto
            27 43 50 23 66 hhcurveto
            41 37 -33 -77 -16 hvcurveto
            -8 -39 -143 -1 -136 -44 -19 -91 rlinecurve
            -34 -8 -1 -92 93 hhcurveto
            4 59 0 15 57 hvcurveto
            72 20 27 31 10 11 rrcurveto
            -49 33 50 -28 62 hhcurveto
            hintmask 0100000000100000
            79 73 48 9 2 hvcurveto
            1 5 2 23 1 5 rrcurveto
            0 2 23 1 4 vhcurveto
            hintmask 1001010111000000
            -43 -53 -55 -14 -39 hhcurveto
            -70 -56 63 112 22 hvcurveto
            239 54 rmoveto
            -222 hlineto
            74 34 60 46 51 hhcurveto
            48 35 -37 -83 -6 hvcurveto
            -331 -146 rmoveto
            -4 -21 -5 -22 -37 -20 rrcurveto
            -14 -25 -33 -6 -26 hhcurveto
            -52 -31 30 37 8 hvcurveto
            hintmask 0010000000000000
            15 71 154 8 47 2 -3 -18 -4 -30 -4 -17 rrcurveto
            endchar
          </CharString>
          <CharString index="35">
            791 694 rmoveto
            -86 hlineto
            -228 -259 -73 -86 -2 5 -7 20 -29 65 rlinecurve
            -115 255 rlineto
            -100 hlineto
            189 -416 rlineto
            return
          </CharString>
          <CharString index="36">
            -1 59 -24 -9 -24 -6 -22 1 rlinecurve
            -28 2 -22 6 5 30 return
          </CharString>
          <CharString index="37">
            -31 -41 -38 -4 -18 hhcurveto
            -44 4 47 35 7 hvcurveto
            54 252 rlineto
            138 hlineto
            12 58 rlineto
            -138 hlineto
            27 127 rlineto
            -69 hlineto
            return
          </CharString>
          <CharString index="38">
            83 callgsubr
            -148 -694 38 callsubr
            124 582 rlineto
            150 hlineto
            134 81 -115 -181 -38 hvcurveto
            return
          </CharString>
          <CharString index="39">
            -40 rlineto
            1 hlineto
            1 hlineto
            27 20 return
          </CharString>
          <CharString index="40">
            424 hmoveto
            64 301 rlineto
            61 13 6 92 -121 hhcurveto
            -56 -53 -25 -48 -48 hvcurveto
            14 68 rlineto
            -71 hlineto
            return
          </CharString>
          <CharString index="41">
            rmoveto
            -149 122 rlineto
            -111 hlineto
            171 -122 rlineto
            endchar
          </CharString>
          <CharString index="42" raw="1">
            87652b0a 0b  
          </CharString>
          <CharString index="43">
            754 -27 callsubr
            -114 hlineto
            -180 -308 -82 -140 -61 -105 -20 -46 rlinecurve
            -1 hlineto
            1 17 -5 37 -5 39 -7 54 1 2 -7 41 -65 409 rcurveline
            -114 -4 callsubr
            131 617 rlineto
            1 hlineto
            -68 71 -428 16 -100 vhcurveto
            73 hlineto
            52 86 257 436 34 75 rrcurveto
            1 hlineto
            -131 -618 rlineto
            return
          </CharString>
          <CharString index="44">
            -187 rmoveto
            -71 callsubr
            8 44 return
          </CharString>
          <CharString index="45">
            762 -10 60 -3 60 118 54 120 60 hstemhm
            598 71 0 76 hintmask 10111000
            782 225 rmoveto
            36 7 42 198 -162 hhcurveto
            -58 -70 -30 -68 -57 hvcurveto
            92 -44 -76 6 -29 hhcurveto
            -112 -117 -103 -131 -28 hvcurveto
            -134 -29 76 -101 110 hhcurveto
            46 77 19 82 70 hvcurveto
            -72 30 64 -29 62 hhcurveto
            hintmask 01000100
            79 73 48 9 2 hvcurveto
            1 5 2 23 1 5 rrcurveto
            0 2 23 1 4 vhcurveto
            hintmask 10111000
            -43 -53 -55 -14 -39 hhcurveto
            -70 -56 63 112 22 hvcurveto
            239 54 rmoveto
            -222 hlineto
            74 34 60 46 51 hhcurveto
            48 35 -37 -83 -6 hvcurveto
            -314 -49 rmoveto
            -120 -26 -77 -60 -69 hhcurveto
            -66 -57 57 123 26 hvcurveto
            118 25 81 51 66 hhcurveto
            62 60 -49 -120 -25 hvcurveto
            endchar
          </CharString>
          <CharString index="46">
            469 -10 60 149 52 150 58 return
          </CharString>
          <CharString index="47">
            119 25 -47 83 -70 hhcurveto
            -70 -85 -83 -118 -25 hvcurveto
            -121 -26 51 -81 69 hhcurveto
            72 81 86 115 25 hvcurveto
            return
          </CharString>
          <CharString index="48">
            11 14 19 4 20 rrcurveto
            endchar
          </CharString>
          <CharString index="49">
            -63 callsubr
            49 34 52 26 return
          </CharString>
          <CharString index="50">
            -16 -78 rlineto
            218 hmoveto
            16 78 -8 callsubr
            return
          </CharString>
          <CharString index="51">
            78 callgsubr
            -353 98 callgsubr
            endchar
          </CharString>
          <CharString index="52">
            -21 25 17 -12 25 hhcurveto
            return
          </CharString>
          <CharString index="53">
            -43 -8 22 -42 67 hhcurveto
            33 26 6 19 44 hvcurveto
            return
          </CharString>
          <CharString index="54">
            469 -10 60 334 60 200 60 hstemhm
            78 74 43 74 114 75 -54 75 -74 74 -21 75 hintmask 0000000100000000
            479 179 rmoveto
            18 84 -17 97 -75 51 rrcurveto
            hintmask 0011100010000000
            69 34 46 56 13 57 rrcurveto
            81 17 -61 65 -93 hhcurveto
            -78 -101 -50 -102 -22 hvcurveto
            -117 -552 rlineto
            74 hlineto
            117 550 rlineto
            hintmask 0110010000000000
            90 19 74 4 21 hhcurveto
            49 38 -29 -57 -12 hvcurveto
            -10 -45 -46 -67 -102 -2 -12 -60 rcurveline
            hintmask 1000001000000000
            100 -3 39 -96 -23 -106 rrcurveto
            -78 -17 -51 -51 -58 hhcurveto
            -14 -27 3 11 -22 hvcurveto
            -26 -44 -6 -11 rlineto
            -5 -1 43 -14 41 hhcurveto
            95 95 82 107 23 hvcurveto
            endchar
          </CharString>
          <CharString index="55">
            71 -85 hhcurveto
            -88 -92 -73 -105 -24 hvcurveto
            60 hlineto
            75 18 63 38 48 hhcurveto
            52 43 -41 -72 -13 hvcurveto
            endchar
          </CharString>
          <CharString index="56">
            -20 -107 callsubr
            hintmask 00011000
            -34 callgsubr
            return
          </CharString>
          <CharString index="57">
            740 345 rmoveto
            212 45 -110 158 -162 hhcurveto
            -166 -175 -161 -209 -45 hvcurveto
            -43 -203 102 -151 151 -11 -41 -28 -32 -39 -7 -40 3 callsubr
            7 35 32 29 39 23 150 27 147 146 40 189 rrcurveto
            -82 15 rmoveto
            -196 -42 -134 -122 -112 hhcurveto
            -116 -79 125 193 42 hvcurveto
            184 39 132 109 111 hhcurveto
            114 83 -112 -181 -38 hvcurveto
            return
          </CharString>
          <CharString index="58">
            632 hmoveto
            -185 419 320 275 rlineto
            -94 hlineto
            -429 -369 79 369 rlineto
            -84 -7 callsubr
            48 226 158 136 159 -362 rlineto
            return
          </CharString>
          <CharString index="59">
            335 rmoveto
            272 58 -96 69 -88 hhcurveto
            -72 -49 -33 -42 -44 hvcurveto
            -60 -57 -21 -53 -12 -57 rrcurveto
            -129 -27 43 -109 91 hhcurveto
            73 63 35 47 48 hvcurveto
            -140 -38 -86 -99 -92 hhcurveto
            -41 -28 13 26 -21 hvcurveto
            -43 -53 rlineto
            -35 38 39 -11 44 hhcurveto
            127 148 137 219 46 hvcurveto
            -67 76 rmoveto
            hintmask 01000100
            -76 -16 -60 -79 -83 hhcurveto
            -17 -44 0 59 -20 hvcurveto
            hintmask 00010010
            -11 36 2 29 11 54 10 44 10 42 39 45 rrcurveto
            22 20 34 32 54 hhcurveto
            96 -12 -135 -49 -9 hvcurveto
            -7 -2 -10 -2 -7 vhcurveto
            endchar
          </CharString>
          <CharString index="60">
            hvcurveto
            5 -68 callsubr
            return
          </CharString>
          <CharString index="61">
            583 0 67 263 60 239 63 return
          </CharString>
          <CharString index="62">
            423 81 callsubr
            -63 -292 rlineto
            38 -37 -50 14 -43 hhcurveto
            -95 -99 -102 -130 -28 hvcurveto
            -129 -27 52 -103 95 hhcurveto
            37 58 12 49 61 hvcurveto
            return
          </CharString>
          <CharString index="63">
            -20 -102 callgsubr
            hintmask 00011000
            56 callgsubr
            return
          </CharString>
          <CharString index="64">
            -694 rlineto
            return
          </CharString>
          <CharString index="65">
            231 rmoveto
            14 67 6 69 -31 52 rrcurveto
            45 -27 -54 19 -58 hhcurveto
            -58 -62 -19 -45 -47 hvcurveto
            -53 -52 -24 -69 -14 -67 -14 -67 -6 -69 31 -52 rrcurveto
            -45 28 54 -19 58 hhcurveto
            58 62 19 45 46 hvcurveto
            53 52 24 69 14 67 rrcurveto
            -77 hmoveto
            -11 -50 -15 -52 -37 -42 rrcurveto
            -31 -27 -40 -17 -38 hhcurveto
            -38 -32 17 31 -15 hvcurveto
            -19 42 7 52 11 50 11 50 15 52 37 42 rrcurveto
            31 27 40 17 38 hhcurveto
            38 32 -17 -31 15 hvcurveto
            19 -42 -7 -52 -11 -50 rrcurveto
            endchar
          </CharString>
          <CharString index="66">
            rlineto
            -76 hlineto
            return
          </CharString>
          <CharString index="67">
            -128 273 200 171 rlineto
            -92 hlineto
            -235 -201 96 451 rlineto
            -73 -82 callsubr
            70 hlineto
            31 144 92 79 105 -223 rlineto
            return
          </CharString>
          <CharString index="68">
            18 7 -8 hvcurveto
            hintmask 00000100
            107 callsubr
            hintmask 00001000
            -77 callsubr
            hintmask 00000100
            26 5 -55 callgsubr
            9 hvcurveto
            hintmask 00001000
            -21 24 18 -12 25 hhcurveto
            hintmask 00000100
            23 callgsubr
          </CharString>
          <CharString index="69">
            rmoveto
            -43 -33 -40 -25 -44 hhcurveto
            -61 -62 47 124 26 hvcurveto
            133 28 94 40 58 hhcurveto
            39 27 -20 -33 15 hvcurveto
            return
          </CharString>
          <CharString index="70">
            -20 hstemhm
            hintmask 11000000
            -105 callsubr
            hintmask 00110000
            55 callsubr
            return
          </CharString>
          <CharString index="71">
            -15 -25 -33 hvcurveto
            44 207 rlineto
            257 hlineto
            13 62 rlineto
            -328 hlineto
            -78 -368 rlineto
            65 hlineto
            57 37 49 22 41 hhcurveto
            47 44 -42 -119 return
          </CharString>
          <CharString index="72">
            435 -10 60 120 54 175 60 hstem
            455 224 rmoveto
            132 28 -74 103 -116 hhcurveto
            -46 -58 -13 -40 -64 hvcurveto
            -1 -4 -4 -33 0 vvcurveto
            0 -1 -23 -1 -4 vhcurveto
            50 69 61 7 30 hhcurveto
            77 51 -69 -106 -20 hvcurveto
            -305 hlineto
            -10 -43 -8 -61 20 -53 rrcurveto
            -69 27 68 -8 29 hhcurveto
            108 112 104 130 28 hvcurveto
            -87 -54 rmoveto
            -67 -31 -58 -53 -59 hhcurveto
            -31 -66 14 106 5 hvcurveto
            endchar
          </CharString>
          <CharString index="73">
            -240 -21 113 72 return
          </CharString>
          <CharString index="74">
            488 rmoveto
            17 81 rlineto
            -25 hlineto
            52 125 rlineto
            -40 hlineto
            -68 -126 rlineto
            hintmask 11100100
            -17 -80 rlineto
            271 hmoveto
            17 81 rlineto
            -25 hlineto
            52 125 rlineto
            -40 hlineto
            -68 -126 rlineto
            hintmask 10001000
            -17 -80 rlineto
            endchar
          </CharString>
          <CharString index="75">
            490 -205 55 148 72 61 55 209 59 -55 55 return
          </CharString>
          <CharString index="76">
            366 310 rmoveto
            7 35 rlineto
            -88 hlineto
            79 370 rlineto
            -14 hlineto
            -14 -9 -40 -28 -78 -2 rrcurveto
            -10 -1 0 -11 -3 hvcurveto
            -5 -24 rlineto
            44 35 9 5 17 hvcurveto
            -66 -310 rlineto
            -88 hlineto
            -7 -35 rlineto
            return
          </CharString>
          <CharString index="77">
            -21 694 -20 return
          </CharString>
          <CharString index="78">
            6 callsubr
            hintmask 00001000
            -88 callgsubr
            hintmask 00000100
            21 -24 -18 12 -25 hhcurveto
            hintmask 00001000
            -77 callsubr
            hintmask 00000100
            -9 callgsubr
            hintmask 00001000
            -55 callsubr
            hintmask 00000100
            12 callgsubr
          </CharString>
          <CharString index="79">
            17 79 -1 1 rlineto
            -79 hlineto
            -1 -1 rlineto
            return
          </CharString>
          <CharString index="80">
            hmoveto
            -8 callgsubr
            return
          </CharString>
          <CharString index="81">
            1 rmoveto
            17 80 rlineto
            -81 hlineto
            hintmask 11001000
            -17 -81 rlineto
            25 hlineto
            -52 103 callsubr
            258 126 rmoveto
            17 80 113 callsubr
            -17 -81 rlineto
            25 hlineto
            -52 103 callsubr
            endchar
          </CharString>
          <CharString index="82">
            -20 -101 callsubr
            hintmask 00011000
            15 callgsubr
            return
          </CharString>
          <CharString index="83">
            299 41 callsubr
            hstem
            99 74 8 74 143 74 vstem
            472 107 callgsubr
            2 -7 -31 8 -37 hhcurveto
            -95 -84 -73 -97 -20 hvcurveto
            -20 -90 -21 callsubr
            107 hlineto
            12 58 rlineto
            -109 hlineto
            26 120 rlineto
            68 14 60 12 33 hhcurveto
            35 29 -11 -5 10 hvcurveto
            endchar
          </CharString>
          <CharString index="84">
            -20 53 callgsubr
            hintmask 10001000
            84 callsubr
            hintmask 10010010
            -57 callsubr
            hintmask 10000100
            -16 -78 rlineto
            hintmask 01100000
            return
          </CharString>
          <CharString index="85">
            -75 -16 -41 -67 -38 hhcurveto
            -20 -39 17 124 return
          </CharString>
          <CharString index="86">
            rlineto
            -73 hlineto
            -32 callgsubr
            return
          </CharString>
          <CharString index="87">
            203 rmoveto
            125 27 -63 98 -101 hhcurveto
            -40 -41 -36 callsubr
            -25 hvcurveto
            -126 -27 -81 -40 -58 hhcurveto
            -55 -59 30 63 -19 hvcurveto
            -44 -54 rlineto
            -94 46 93 -5 27 hhcurveto
            118 118 99 125 26 hvcurveto
            endchar
          </CharString>
          <CharString index="88">
            rlineto
            -86 hlineto
            return
          </CharString>
          <CharString index="89">
            39 79 19 hvcurveto
            endchar
          </CharString>
          <CharString index="90">
            502 -10 55 399 -20 return
          </CharString>
          <CharString index="91">
            490 -10 62 347 60 return
          </CharString>
          <CharString index="92">
            99 callgsubr
            -322 hlineto
            184 88 86 41 89 45 17 80 rlinecurve
            111 24 -103 49 -98 hhcurveto
            -78 -63 -32 -65 -60 hvcurveto
            -3 -3 -2 -3 -1 -4 rrcurveto
            -9 25 -25 15 -13 vhcurveto
            59 33 52 32 60 hhcurveto
            60 78 -25 -74 -16 hvcurveto
            -16 -76 -98 -51 -86 -43 -150 -74 rcurveline
            -11 -6 -12 -2 -3 -16 -11 -52 rcurveline
            endchar
          </CharString>
          <CharString index="93">
            -22 callsubr
            27 hvcurveto
            129 27 -13 callsubr
            return
          </CharString>
          <CharString index="94">
            47 13 18 hhcurveto
            39 11 -69 -72 -15 hvcurveto
            return
          </CharString>
          <CharString index="95">
            rmoveto
            17 78 -8 callsubr
            return
          </CharString>
          <CharString index="96">
            rmoveto
            -89 hlineto
            -171 122 rlineto
            111 hlineto
            endchar
          </CharString>
          <CharString index="97">
            -20 hstemhm
            12 70 41 69 -49 70 -24 69 -13 69 53 69 -59 70 return
          </CharString>
          <CharString index="98">
            722 -21 78 callsubr
            return
          </CharString>
          <CharString index="99">
            rlineto
            -77 hlineto
            return
          </CharString>
          <CharString index="100">
            -82 callsubr
            84 hlineto
            return
          </CharString>
          <CharString index="101">
            62 callgsubr
            endchar
          </CharString>
          <CharString index="102">
            559 -1 callsubr
            return
          </CharString>
          <CharString index="103">
            -82 callsubr
            77 hlineto
            return
          </CharString>
          <CharString index="104">
            rmoveto
            15 66 rlineto
            3 -9 -26 7 -30 hhcurveto
            -86 -77 -74 -95 -20 hvcurveto
            -20 -91 -21 callsubr
            115 hlineto
            112 callsubr
            120 rlineto
            69 15 50 11 26 hhcurveto
            36 28 -16 0 hvcurveto
            return
          </CharString>
          <CharString index="105">
            rlineto
            76 hlineto
            51 239 rlineto
            -31 27 37 -24 54 hhcurveto
            96 106 97 136 29 hvcurveto
            -76 -1 rmoveto
            -100 -21 -84 -72 -74 hhcurveto
            -28 -17 10 14 -15 hvcurveto
            -21 22 1 18 4 16 43 206 rcurveline
            34 31 42 22 41 hhcurveto
            74 44 -75 -95 -20 hvcurveto
            endchar
          </CharString>
          <CharString index="106">
            700 -98 callsubr
            return
          </CharString>
          <CharString index="107">
            172 rmoveto
            12 60 rlineto
            -97 hlineto
            90 423 rlineto
            -90 hlineto
            -338 -423 -12 -60 rlineto
            259 hlineto
            -37 -172 rlineto
            79 hlineto
            37 172 rlineto
            -62 60 rmoveto
            -187 hlineto
            40 51 53 64 59 80 17 23 90 123 9 37 rrcurveto
            endchar
          </CharString>
          <CharString index="108">
            18 7 -8 hvcurveto
            hintmask 00100000
            107 callsubr
            hintmask 01000000
            -77 callsubr
            hintmask 00100000
            26 5 -55 callgsubr
            9 hvcurveto
            hintmask 01000000
            -21 24 18 -12 25 hhcurveto
            hintmask 00100000
            23 callgsubr
          </CharString>
          <CharString index="109">
            rmoveto
            -11 17 rlineto
            -41 -57 -60 -30 -51 hhcurveto
            -40 -25 17 20 -31 hvcurveto
            17 -25 -28 17 -40 hhcurveto
            hintmask 00100000
            -25 -27 -8 -10 -25 hvcurveto
            hintmask 01000000
            -22 -10 -22 -11 -20 -14 -63 -44 rcurveline
            hintmask 10010000
            10 -17 rlineto
            41 58 59 30 51 hhcurveto
            40 return
          </CharString>
          <CharString index="110">
            rrcurveto
            -54 callsubr
            -71 callsubr
            return
          </CharString>
          <CharString index="111">
            rlineto
            -74 -82 callsubr
            return
          </CharString>
          <CharString index="112">
            -57 -269 rlineto
            -58 -12 -2 -69 69 hhcurveto
            return
          </CharString>
          <CharString index="113">
            -98 callgsubr
            131 307 rmoveto
            -60 hlineto
            return
          </CharString>
          <CharString index="114">
            hstemhm
            144 76 23 76 224 76 23 76 16 81 -64 81 return
          </CharString>
          <CharString index="115">
            77 -60 77 73 77 -60 77 return
          </CharString>
          <CharString index="116">
            592 78 callgsubr
            -407 hlineto
            -14 -68 rlineto
            186 hlineto
            12 12 1 12 hhcurveto
            120 hlineto
            -75 -70 -215 -200 -70 10 callgsubr
          </CharString>
          <CharString index="117">
            rmoveto
            -111 hlineto
            -200 -122 rlineto
            89 hlineto
            endchar
          </CharString>
          <CharString index="118">
            592 -21 64 63 hstem
            626 571 rmoveto
            91 18 -119 36 -83 hhcurveto
            -45 -45 -6 -18 -46 hvcurveto
            -46 -19 -51 -34 -12 -50 rrcurveto
            77 hlineto
            60 17 116 4 22 hhcurveto
            47 81 -14 -50 -8 hvcurveto
            endchar
          </CharString>
          <CharString index="119">
            667 -21 56 659 return
          </CharString>
          <CharString index="120">
            12 callsubr
            -20 return
          </CharString>
          <CharString index="121">
            529 189 rmoveto
            -76 callgsubr
            85 38 -33 -32 29 hvcurveto
            33 81 rlineto
            return
          </CharString>
          <CharString index="122">
            62 -23 58 299 58 127 -20 hstemhm
            125 94 callsubr
            return
          </CharString>
          <CharString index="123">
            -27 -127 rlineto
            -84 hlineto
            -12 -58 rlineto
            return
          </CharString>
          <CharString index="124">
            hstemhm
            21 callsubr
            return
          </CharString>
          <CharString index="125">
            614 -17 callgsubr
            258 126 74 callgsubr
          </CharString>
          <CharString index="126">
            398 78 callgsubr
            -407 hlineto
            -14 -68 rlineto
            342 hlineto
            -75 -69 -216 -200 -69 10 callgsubr
          </CharString>
          <CharString index="127">
            57 hlineto
            22 103 rlineto
            126 571 rmoveto
            -42 hlineto
            -530 -654 rlineto
            42 hlineto
            358 119 rmoveto
            -134 hlineto
            27 31 36 38 40 48 12 14 62 74 5 22 rrcurveto
            return
          </CharString>
          <CharString index="128">
            238 86 324 76 return
          </CharString>
          <CharString index="129">
            -25 27 callsubr
            return
          </CharString>
          <CharString index="130">
            -200 86 135 -21 return
          </CharString>
          <CharString index="131">
            hmoveto
            -39 225 134 224 rlineto
            -60 hlineto
            -150 -224 55 -225 rlineto
            return
          </CharString>
          <CharString index="132">
            502 69 callsubr
            return
          </CharString>
          <CharString index="133">
            614 82 callgsubr
            -17 -81 rlineto
            -53 -614 rmoveto
            71 callsubr
            -74 hlineto
            -94 -444 rlineto
            386 vmoveto
            93 callsubr
            return
          </CharString>
          <CharString index="134">
            6 -30 hhcurveto
            -34 return
          </CharString>
          <CharString index="135">
            326 193 58 hstemhm
            74 260 -248 260 hintmask 10100000
            334 193 2 callgsubr
          </CharString>
          <CharString index="136">
            91 84 221 79 129 79 return
          </CharString>
          <CharString index="137">
            21 88 callgsubr
            return
          </CharString>
          <CharString index="138">
            613 148 rmoveto
            -76 hlineto
            -46 -9 -28 -47 -41 hhcurveto
            -28 -28 6 7 -26 hvcurveto
            14 -50 -50 13 -53 hhcurveto
            37 47 32 51 19 54 return
          </CharString>
          <CharString index="139">
            -30 callgsubr
            -9 -40 -4 -20 rcurveline
            26 hlineto
            1 hlineto
            4 20 return
          </CharString>
          <CharString index="140">
            -64 callgsubr
            hintmask 10000100
            -26 callgsubr
          </CharString>
          <CharString index="141">
            653 -11 36 callgsubr
            return
          </CharString>
          <CharString index="142">
            630 21 60 callsubr
            return
          </CharString>
          <CharString index="143">
            332 29 rmoveto
            -3 58 rlineto
            return
          </CharString>
          <CharString index="144">
            60 285 60 235 57 return
          </CharString>
          <CharString index="145">
            rlineto
            257 hlineto
            167 166 151 190 40 hvcurveto
            -83 1 rmoveto
            -183 -39 -133 -103 -129 hhcurveto
            -150 hlineto
            return
          </CharString>
          <CharString index="146">
            hlineto
            -139 -292 rlineto
            -7 -14 -1 -4 0 vvcurveto
            -11 -3 7 -8 11 hhcurveto
            14 6 13 10 5 hvcurveto
            146 306 rlineto
            return
          </CharString>
          <CharString index="147">
            rrcurveto
            hintmask 01000000
            50 -48 45 46 93 -25 73 -19 rlinecurve
            hintmask 10000000
            -9 32 33 -7 35 hhcurveto
            82 70 81 88 18 hvcurveto
            endchar
          </CharString>
          <CharString index="148">
            21 -21 386 58 200 60 return
          </CharString>
          <CharString index="149">
            -18 -7 8 hvcurveto
            return
          </CharString>
          <CharString index="150">
            rmoveto
            hintmask 10000100
            83 callsubr
            hintmask 00010000
            return
          </CharString>
          <CharString index="151">
            506 220 rmoveto
            14 67 -11 70 -43 48 94 122 rcurveline
            return
          </CharString>
          <CharString index="152">
            hlineto
            14 18 0 18 4 hvcurveto
            return
          </CharString>
          <CharString index="153">
            19 4 -17 0 -15 hhcurveto
            return
          </CharString>
          <CharString index="154">
            hvcurveto
            -17 26 27 -17 40 hhcurveto
            hintmask 01000000
            25 28 8 10 24 hvcurveto
            hintmask 00100000
            22 10 22 11 20 14 rrcurveto
            endchar
          </CharString>
          <CharString index="155">
            81 -64 81 hintmask 11010000
            280 488 rmoveto
            17 81 rlineto
            -25 hlineto
            52 125 rlineto
            -40 hlineto
            -68 -126 rlineto
            return
          </CharString>
          <CharString index="156">
            rmoveto
            8 36 rlineto
            -70 hlineto
            54 254 rlineto
            -65 hlineto
            -233 -254 -8 -36 rlineto
            187 hlineto
            -22 -103 rlineto
            return
          </CharString>
          <CharString index="157">
            hstemhm
            101 76 -6 76 return
          </CharString>
          <CharString index="158">
            513 525 -81 callsubr
            return
          </CharString>
          <CharString index="159">
            60 157 60 22 57 284 57 hstemhm
            return
          </CharString>
          <CharString index="160">
            67 51 23 16 34 hvcurveto
            return
          </CharString>
          <CharString index="161">
            -15 callgsubr
            hstem
            return
          </CharString>
          <CharString index="162">
            81 295 -81 callsubr
            return
          </CharString>
          <CharString index="163">
            15 375 -98 callgsubr
            return
          </CharString>
          <CharString index="164">
            762 -43 -21 43 60 18 60 538 60 43 -20 return
          </CharString>
          <CharString index="165">
            735 -12 callsubr
            return
          </CharString>
          <CharString index="166">
            60 344 60 240 -20 hstemhm
            return
          </CharString>
          <CharString index="167">
            -21 317 60 261 56 return
          </CharString>
          <CharString index="168">
            90 86 62 86 return
          </CharString>
          <CharString index="169">
            hvcurveto
            -11 -50 rlineto
            return
          </CharString>
          <CharString index="170">
            83 -1 70 82 79 hhcurveto
            65 36 -58 -67 -14 hvcurveto
            76 hlineto
            109 23 -62 92 -107 hhcurveto
            return
          </CharString>
          <CharString index="171">
            225 rmoveto
            -55 224 rlineto
            -60 hlineto
            39 -224 -134 -225 rlineto
            60 hlineto
            endchar
          </CharString>
          <CharString index="172">
            26 6 15 32 29 hhcurveto
            23 22 42 callsubr
            return
          </CharString>
          <CharString index="173">
            -21 60 360 60 160 57 hstemhm
            return
          </CharString>
          <CharString index="174">
            -7 2 -11 -3 -13 -2 -9 -8 -8 return
          </CharString>
          <CharString index="175">
            -229 -21 1000 -20 return
          </CharString>
          <CharString index="176">
            21 104 callgsubr
            return
          </CharString>
          <CharString index="177">
            -130 -27 -91 -43 -61 hhcurveto
            -28 -17 10 14 -15 hvcurveto
            -20 21 0 18 4 17 rrcurveto
            return
          </CharString>
          <CharString index="178">
            94 444 rlineto
            return
          </CharString>
          <CharString index="179">
            11 -1 19 -4 18 -5 rrcurveto
            -6 18 27 -8 21 hhcurveto
            35 8 28 5 1 hvcurveto
            return
          </CharString>
          <CharString index="180">
            rmoveto
            14 63 rlineto
            -189 hlineto
            -14 -63 rlineto
            118 -46 0 117 hhcurveto
            endchar
          </CharString>
          <CharString index="181">
            502 -173 -21 184 60 342 62 return
          </CharString>
          <CharString index="182">
            598 0 64 569 61 return
          </CharString>
          <CharString index="183">
            81 -64 81 92 81 -64 81 return
          </CharString>
          <CharString index="184">
            488 81 125 -20 hstemhm
            return
          </CharString>
          <CharString index="185">
            63 611 62 return
          </CharString>
          <CharString index="186">
            -21 callgsubr
            -16 13 rrcurveto
            15 -15 22 callsubr
            -37 -16 -28 return
          </CharString>
          <CharString index="187">
            60 327 60 167 62 hstem
            return
          </CharString>
          <CharString index="188">
            -27 callsubr
            -74 hlineto
            return
          </CharString>
          <CharString index="189">
            -21 167 -20 return
          </CharString>
          <CharString index="190">
            19 86 -19 callsubr
            hintmask 10001000
            -19 -86 rlineto
            return
          </CharString>
          <CharString index="191">
            335 -12 callgsubr
            return
          </CharString>
          <CharString index="192">
            -167 rlineto
            60 hlineto
            return
          </CharString>
          <CharString index="193">
            435 -212 70 -45 60 117 60 175 54 120 60 return
          </CharString>
          <CharString index="194">
            -16 -28 -27 hvcurveto
            return
          </CharString>
          <CharString index="195">
            36 61 -4 -50 57 hvcurveto
            33 81 rlineto
            26 -62 -51 9 -59 hhcurveto
            return
          </CharString>
          <CharString index="196">
            28 24 42 29 49 hhcurveto
            61 62 -46 -125 -27 hvcurveto
            endchar
          </CharString>
          <CharString index="197">
            rlineto
            150 hlineto
            134 81 -115 -181 -38 hvcurveto
            endchar
          </CharString>
          <CharString index="198">
            509 -21 125 81 hstem
            return
          </CharString>
          <CharString index="199">
            425 0 61 324 59 return
          </CharString>
          <CharString index="200">
            12 58 rlineto
            -117 hlineto
            return
          </CharString>
          <CharString index="201">
            71 -14 71 79 71 return
          </CharString>
          <CharString index="202">
            -167 rlineto
            endchar
          </CharString>
          <CharString index="203">
            vstem
            583 35 rmoveto
            9 69 rlineto
            -47 -73 -42 -16 -80 hhcurveto
            return
          </CharString>
          <CharString index="204">
            647 -212 70 163 -24 callgsubr
            -20 return
          </CharString>
          <CharString index="205">
            43 59 39 79 return
          </CharString>
          <CharString index="206">
            hstemhm
            78 74 -24 77 -61 77 -49 74 23 77 -61 77 return
          </CharString>
          <CharString index="207">
            979 9 -21 244 37 244 -20 hstem
            977 return
          </CharString>
          <CharString index="208">
            37 rmoveto
            -85 hlineto
            197 926 rlineto
            85 hlineto
            endchar
          </CharString>
          <CharString index="209">
            647 23 callsubr
            return
          </CharString>
          <CharString index="210">
            -125 rlineto
            40 hlineto
            return
          </CharString>
          <CharString index="211">
            hstemhm
            91 84 54 86 -67 86 62 79 129 79 return
          </CharString>
          <CharString index="212">
            354 -10 62 -23 58 299 58 127 -20 return
          </CharString>
          <CharString index="213">
            72 114 callsubr
            return
          </CharString>
          <CharString index="214">
            21 -25 -17 12 -25 hhcurveto
            return
          </CharString>
          <CharString index="215">
            22 -15 13 rrcurveto
            15 -16 return
          </CharString>
          <CharString index="216">
            -56 60 283 60 0 60 283 60 hstemhm
            return
          </CharString>
          <CharString index="217">
            626 -21 62 612 62 hstem
            140 86 return
          </CharString>
          <CharString index="218">
            668 21 119 callsubr
            return
          </CharString>
          <CharString index="219">
            93 callsubr
            26 return
          </CharString>
          <CharString index="220">
            rlineto
            -81 hlineto
            hintmask 10010000
            return
          </CharString>
          <CharString index="221">
            115 callgsubr
            hstemhm
            return
          </CharString>
          <CharString index="222">
            43 -25 43 -8 43 -25 43 hstemhm
            hintmask 10010000
            return
          </CharString>
          <CharString index="223">
            rmoveto
            13 58 rlineto
            -258 hlineto
            -13 -58 rlineto
            return
          </CharString>
          <CharString index="224">
            -215 37 callsubr
            hstemhm
            return
          </CharString>
          <CharString index="225">
            59 callsubr
            82 76 return
          </CharString>
          <CharString index="226">
            -21 626 63 return
          </CharString>
        <CharString name=".notdef">
          280 endchar
        </CharString>
        <CharString name="A">
          -46 callgsubr
          hstem
          27 592 vstem
          -103 callsubr
          endchar
        </CharString>
        <CharString name="AE">
          66 callgsubr
          hstem
          541 85 vstem
          -63 callgsubr
          endchar
        </CharString>
        <CharString name="AE.dup">
          66 callgsubr
          hstem
          541 85 vstem
          -63 callgsubr
          endchar
        </CharString>
        <CharString name="AEacute">
          66 callgsubr
          106 callsubr
          541 85 hintmask 11110010
          -63 callgsubr
          hintmask 00001100
          253 235 -93 callgsubr
        </CharString>
        <CharString name="Aacute">
          -46 callgsubr
          92 114 callsubr
          27 592 hintmask 11100100
          -103 callsubr
          hintmask 00011000
          251 245 -93 callgsubr
        </CharString>
        <CharString name="Abreve">
          -46 callgsubr
          71 65 113 -20 86 callgsubr
          hintmask 11100100
          -103 callsubr
          hintmask 00011000
          -4 callgsubr
          endchar
        </CharString>
        <CharString name="Abreveacute">
          -46 callgsubr
          71 65 270 -20 86 callgsubr
          hintmask 11100100
          -103 callsubr
          hintmask 00011000
          -4 callgsubr
          11 157 -93 callgsubr
        </CharString>
        <CharString name="Abrevedotbelow">
          50 callgsubr
          71 65 113 119 callgsubr
          hintmask 0111111000000000
          -103 callsubr
          -4 callgsubr
          hintmask 1000000010000000
          -361 -1123 -64 callgsubr
          hintmask 1000000100000000
          -26 callgsubr
        </CharString>
        <CharString name="Abrevegrave">
          -46 callgsubr
          71 65 113 -20 86 callgsubr
          hintmask 11100100
          -103 callsubr
          hintmask 00011000
          -4 callgsubr
          -15 35 -11 callsubr
        </CharString>
        <CharString name="Abrevehookabove">
          -46 callgsubr
          71 65 344 -20 86 callgsubr
          hintmask 11100100
          -103 callsubr
          hintmask 00011000
          -4 callgsubr
          -38 152 -60 callgsubr
          -9 -40 -4 -20 rcurveline
          26 hlineto
          1 hlineto
          4 20 6 24 19 14 37 -11 callgsubr
        </CharString>
        <CharString name="Abrevetilde">
          -46 callgsubr
          71 65 168 60 -2 60 86 callgsubr
          hintmask 11100010
          -103 callsubr
          hintmask 00010100
          -4 callgsubr
          34 173 rmoveto
          -60 hlineto
          hintmask 00001000
          -26 -6 -16 -32 -29 hhcurveto
          -23 -21 -39 callsubr
        </CharString>
        <CharString name="Acaron">
          -46 callgsubr
          82 -21 134 -20 86 callgsubr
          hintmask 11100100
          -103 callsubr
          hintmask 00011000
          218 247 -81 callgsubr
        </CharString>
        <CharString name="Acircumflex">
          -46 callgsubr
          82 -21 134 -20 86 callgsubr
          hintmask 11100100
          -103 callsubr
          hintmask 00011000
          189 113 -76 callsubr
        </CharString>
        <CharString name="Acircumflexacute">
          -46 callgsubr
          82 -21 291 -20 86 callgsubr
          hintmask 11100100
          -103 callsubr
          hintmask 00011000
          189 113 -98 callgsubr
          108 291 -93 callgsubr
        </CharString>
        <CharString name="Acircumflexdotbelow">
          50 callgsubr
          82 -21 134 119 callgsubr
          hintmask 0111011000000000
          -103 callsubr
          189 113 rmoveto
          -97 134 rlineto
          -60 hlineto
          hintmask 0000100100000000
          -155 -134 rlineto
          59 hlineto
          118 97 76 -97 rlineto
          hintmask 1000000010000000
          -253 -935 -64 callgsubr
          hintmask 1000000100000000
          -26 callgsubr
        </CharString>
        <CharString name="Acircumflexgrave">
          -46 callgsubr
          82 -21 134 -20 86 callgsubr
          hintmask 11100100
          -103 callsubr
          hintmask 00011000
          189 113 -98 callgsubr
          82 169 -11 callsubr
        </CharString>
        <CharString name="Acircumflexhookabove">
          -46 callgsubr
          82 -21 365 -20 86 callgsubr
          hintmask 11100100
          -103 callsubr
          hintmask 00011000
          189 113 -87 callgsubr
        </CharString>
        <CharString name="Acircumflextilde">
          -46 callgsubr
          82 -21 189 60 -2 60 86 callgsubr
          hintmask 11100010
          -103 callsubr
          hintmask 00010100
          189 113 -29 callsubr
        </CharString>
        <CharString name="Adblgrave">
          -46 callgsubr
          92 82 callsubr
          86 callgsubr
          hintmask 11100100
          -103 callsubr
          hintmask 00011000
          147 123 rmoveto
          -86 callsubr
        </CharString>
        <CharString name="Adieresis">
          -46 callgsubr
          61 78 86 callgsubr
          -261 8 callsubr
          hintmask 1110100000000000
          -103 callsubr
          hintmask 0001001000000000
          -12 113 -12 callsubr
          hintmask 0001010010000000
          -62 callgsubr
          hintmask 0001000100000000
          -17 -78 rlineto
          endchar
        </CharString>
        <CharString name="Adotbelow">
          50 callgsubr
          86 callgsubr
          -381 86 -67 86 hintmask 01111000
          -103 callsubr
          hintmask 10000010
          -123 -822 33 callsubr
        </CharString>
        <CharString name="Agrave">
          -46 callgsubr
          92 114 callsubr
          27 592 hintmask 11100100
          -103 callsubr
          hintmask 00011000
          131 123 -66 callsubr
        </CharString>
        <CharString name="Ahookabove">
          -46 callgsubr
          82 -21 216 -20 86 callgsubr
          hintmask 11100100
          -103 callsubr
          hintmask 00011000
          157 250 -100 callgsubr
        </CharString>
        <CharString name="Alpha">
          -46 callgsubr
          hstem
          27 592 vstem
          -103 callsubr
          endchar
        </CharString>
        <CharString name="Amacron">
          -46 callgsubr
          81 63 86 callgsubr
          hintmask 11101000
          -103 callsubr
          hintmask 00010000
          213 133 -22 callgsubr
        </CharString>
        <CharString name="Aogonek">
          97 callsubr
          hstem
          427 63 vstem
          600 -63 callsubr
          50 34 52 26 rrcurveto
          25 hlineto
          -104 694 rlineto
          -88 hlineto
          -400 -43 callsubr
          74 hlineto
          116 203 rlineto
          282 hlineto
          31 -203 -56 -28 -50 -48 -8 -51 rlinecurve
          -54 callsubr
          -110 446 rmoveto
          -239 hlineto
          196 363 rlineto
          endchar
        </CharString>
        <CharString name="Aogonekacute">
          97 callsubr
          92 114 callsubr
          427 63 hintmask 11110010
          600 -63 callsubr
          50 34 52 26 rrcurveto
          25 hlineto
          -104 694 rlineto
          -88 hlineto
          -400 -43 callsubr
          74 hlineto
          116 203 rlineto
          282 hlineto
          31 -203 -56 -28 -50 -48 -8 -51 rlinecurve
          -54 callsubr
          -110 446 rmoveto
          -239 hlineto
          196 363 rlineto
          hintmask 00001100
          251 245 -93 callgsubr
        </CharString>
        <CharString name="Aring">
          -51 callgsubr
          47 74 47 86 callgsubr
          hintmask 11101000
          -103 callsubr
          hintmask 00110000
          91 156 rmoveto
          -31 -6 -32 -28 callgsubr
          7 31 -91 callgsubr
          endchar
        </CharString>
        <CharString name="Aringacute">
          -51 callgsubr
          47 74 47 157 -20 86 callgsubr
          hintmask 11100100
          -103 callsubr
          hintmask 00111000
          91 156 rmoveto
          -31 -6 -32 -28 callgsubr
          7 31 -91 callgsubr
          85 242 10 callsubr
        </CharString>
        <CharString name="Atilde">
          -46 callgsubr
          61 60 -2 60 86 callgsubr
          hintmask 11100100
          -103 callsubr
          hintmask 00001000
          220 231 -75 callsubr
          15 32 29 hhcurveto
          23 22 -18 -7 8 hvcurveto
          hintmask 00010000
          -21 25 17 -12 25 hhcurveto
          hintmask 00001000
          23 callgsubr
        </CharString>
        <CharString name="B">
          -45 callgsubr
        </CharString>
        <CharString name="Beta">
          -45 callgsubr
        </CharString>
        <CharString name="C">
          75 callgsubr
          hstem
          -95 callsubr
          endchar
        </CharString>
        <CharString name="Cacute">
          75 callgsubr
          61 114 callsubr
          hintmask 11000000
          -95 callsubr
          hintmask 00110000
          133 822 -93 callgsubr
        </CharString>
        <CharString name="Ccaron">
          75 callgsubr
          51 -21 134 -20 hstemhm
          hintmask 11000000
          -95 callsubr
          hintmask 00110000
          100 824 -81 callgsubr
        </CharString>
        <CharString name="Ccedilla">
          110 callsubr
          96 callsubr
          -148 -56 151 155 33 hvcurveto
          167 35 129 139 133 hhcurveto
          88 callsubr
          -187 -170 -172 -196 -41 hvcurveto
          -193 -41 93 -175 191 hhcurveto
          78 42 11 45 80 hvcurveto
          -202 -79 6 callgsubr
          endchar
        </CharString>
        <CharString name="Ccircumflex">
          75 callgsubr
          51 -21 134 -20 hstemhm
          hintmask 11000000
          -95 callsubr
          hintmask 00110000
          71 690 -76 callsubr
        </CharString>
        <CharString name="Cdotaccent">
          75 callgsubr
          30 86 hstemhm
          457 86 -68 86 hintmask 11000000
          -95 callsubr
          hintmask 00101000
          -42 690 -27 callgsubr
          hintmask 00110000
          -18 -86 rlineto
          endchar
        </CharString>
        <CharString name="Chi">
          -1 callgsubr
        </CharString>
        <CharString name="D">
          704 0 56 582 56 hstem
          -69 callsubr
          endchar
        </CharString>
        <CharString name="Dcaron">
          704 0 56 582 56 62 -21 134 -20 hstemhm
          hintmask 11000000
          -69 callsubr
          hintmask 00110000
          -47 527 -81 callgsubr
        </CharString>
        <CharString name="Dcroat">
          -44 callgsubr
        </CharString>
        <CharString name="Ddotbelow">
          704 -200 86 114 56 582 56 hstemhm
          164 86 -67 86 hintmask 01100000
          -69 callsubr
          hintmask 10001000
          -388 -542 -64 callgsubr
          hintmask 10010000
          -26 callgsubr
        </CharString>
        <CharString name="Delta">
          816 0 81 613 -20 hstem
          774 hmoveto
          -173 694 rlineto
          -91 hlineto
          -469 -43 callsubr
          618 81 rmoveto
          -487 hlineto
          258 383 52 80 30 45 18 33 rlinecurve
          18 -88 19 -83 rlineto
          endchar
        </CharString>
        <CharString name="Dlinebelow">
          704 -188 63 125 56 582 56 hstemhm
          hintmask 01100000
          -69 callsubr
          hintmask 10000000
          -252 -530 -56 callsubr
        </CharString>
        <CharString name="E">
          -46 callsubr
          hstem
          541 hmoveto
          -104 callgsubr
          endchar
        </CharString>
        <CharString name="Eacute">
          -46 callsubr
          74 -21 122 -20 -101 callsubr
          hintmask 00011000
          576 867 -93 callgsubr
        </CharString>
        <CharString name="Ebreve">
          -46 callsubr
          53 65 113 -20 -101 callsubr
          hintmask 00011000
          563 923 -94 callgsubr
          endchar
        </CharString>
        <CharString name="Ecaron">
          -46 callsubr
          64 -21 134 -20 -101 callsubr
          hintmask 00011000
          543 869 -81 callgsubr
        </CharString>
        <CharString name="Ecircumflex">
          -46 callsubr
          64 -21 134 -25 callsubr
          endchar
        </CharString>
        <CharString name="Ecircumflexacute">
          -46 callsubr
          64 -21 291 -25 callsubr
          108 291 -93 callgsubr
        </CharString>
        <CharString name="Ecircumflexdotbelow">
          583 -200 86 114 67 263 60 239 63 64 -21 134 -20 hstemhm
          206 86 -67 86 hintmask 01111110
          541 hmoveto
          -104 callgsubr
          15 callgsubr
          hintmask 10000001
          -253 -935 -64 callgsubr
          hintmask 10000010
          -26 callgsubr
        </CharString>
        <CharString name="Ecircumflexgrave">
          -46 callsubr
          64 -21 134 -25 callsubr
          82 169 -11 callsubr
        </CharString>
        <CharString name="Ecircumflexhookabove">
          -46 callsubr
          64 -21 365 -20 hstemhm
          hintmask 11100000
          541 hmoveto
          14 68 rlineto
          -131 hlineto
          -12 -12 -1 -12 hhcurveto
          -198 hlineto
          56 263 rlineto
          324 hlineto
          13 60 rlineto
          -324 hlineto
          51 240 rlineto
          136 hlineto
          12 12 -1 12 hhcurveto
          180 hlineto
          13 63 rlineto
          -438 hlineto
          -147 -692 rlineto
          hintmask 00011000
          514 735 -87 callgsubr
        </CharString>
        <CharString name="Ecircumflextilde">
          -46 callsubr
          64 -21 189 60 -2 60 -101 callsubr
          hintmask 00010100
          514 735 -29 callsubr
        </CharString>
        <CharString name="Edblgrave">
          -46 callsubr
          74 82 callsubr
          -101 callsubr
          hintmask 00011000
          499 745 rmoveto
          -86 callsubr
        </CharString>
        <CharString name="Edieresis">
          -46 callsubr
          43 78 hstemhm
          326 8 callsubr
          hintmask 11100010
          541 hmoveto
          -104 callgsubr
          hintmask 00010100
          313 58 callsubr
          hintmask 00011001
          -62 callgsubr
          hintmask 00010010
          -17 -78 rlineto
          endchar
        </CharString>
        <CharString name="Edotaccent">
          -46 callsubr
          43 86 hstemhm
          405 86 -68 86 -100 callsubr
          hintmask 00010100
          401 735 -27 callgsubr
          hintmask 00011000
          -18 -86 rlineto
          endchar
        </CharString>
        <CharString name="Edotbelow">
          583 -200 86 114 67 263 60 239 63 hstemhm
          206 86 -67 86 hintmask 01110000
          541 hmoveto
          -104 callgsubr
          hintmask 10000100
          202 -200 -31 callgsubr
        </CharString>
        <CharString name="Egrave">
          -46 callsubr
          74 -21 122 -20 -101 callsubr
          hintmask 00011000
          456 745 -66 callsubr
        </CharString>
        <CharString name="Ehookabove">
          -46 callsubr
          64 -21 216 -20 -101 callsubr
          hintmask 00011000
          482 872 -100 callgsubr
        </CharString>
        <CharString name="Emacron">
          -46 callsubr
          63 63 -101 callsubr
          hintmask 00010000
          538 755 -22 callgsubr
        </CharString>
        <CharString name="Eng">
          686 -21 76 584 76 hstem
          61 callsubr
          259 86 vstem
          669 347 rmoveto
          181 38 -20 187 -158 hhcurveto
          -79 -78 -34 -55 -63 hvcurveto
          15 68 -59 callgsubr
          86 hlineto
          99 465 rlineto
          98 41 97 76 100 hhcurveto
          119 -20 -154 -138 -29 hvcurveto
          -138 -30 -45 -154 -119 hhcurveto
          -16 -76 rlineto
          158 99 188 180 39 hvcurveto
          endchar
        </CharString>
        <CharString name="Eogonek">
          87 callgsubr
          hstemhm
          259 63 114 63 hintmask 10111110
          506 -58 callsubr
          rrcurveto
          42 hlineto
          -104 callgsubr
          346 hlineto
          hintmask 01000100
          -47 -25 -59 -51 -8 -51 rrcurveto
          hintmask 10000000
          -43 -8 22 -42 67 hhcurveto
          hintmask 01000000
          33 26 6 19 44 hvcurveto
          endchar
        </CharString>
        <CharString name="Eogonekacute">
          87 callgsubr
          74 114 callsubr
          259 63 114 63 hintmask 1011100110000000
          506 -58 callsubr
          rrcurveto
          42 hlineto
          -104 callgsubr
          346 hlineto
          hintmask 0100000100000000
          -47 -25 -59 -51 -8 -51 rrcurveto
          hintmask 1000000000000000
          -43 -8 22 -42 67 hhcurveto
          hintmask 0100000000000000
          33 26 6 19 44 hvcurveto
          hintmask 0000011000000000
          160 1054 -93 callgsubr
        </CharString>
        <CharString name="Epsilon">
          -46 callsubr
          hstem
          541 hmoveto
          -104 callgsubr
          endchar
        </CharString>
        <CharString name="Ereversed">
          -46 callsubr
          hstem
          541 hmoveto
          147 692 rlineto
          -438 98 callgsubr
          180 hlineto
          12 12 1 12 hhcurveto
          136 hlineto
          -51 -240 rlineto
          -324 hlineto
          -13 -60 rlineto
          324 hlineto
          -56 -263 rlineto
          -198 hlineto
          -12 -12 1 -12 hhcurveto
          -131 hlineto
          -14 -68 rlineto
          endchar
        </CharString>
        <CharString name="Eta">
          34 callgsubr
          hstem
          61 callsubr
          185 86 62 86 vstem
          -77 callgsubr
          endchar
        </CharString>
        <CharString name="Eth">
          -44 callgsubr
        </CharString>
        <CharString name="Etilde">
          -46 callsubr
          43 60 -2 60 -101 callsubr
          hintmask 00001000
          545 853 -75 callsubr
          15 32 29 hhcurveto
          23 22 -18 -7 8 hvcurveto
          hintmask 00010000
          -21 25 17 -12 25 hhcurveto
          hintmask 00001000
          23 callgsubr
        </CharString>
        <CharString name="Euro">
          586 -21 56 -56 62 214 56 72 56 214 62 hstemhm
          194 86 273 86 hintmask 01111110
          544 35 rmoveto
          9 70 rlineto
          -51 -56 -32 -13 -68 hhcurveto
          -56 -35 41 49 -19 hvcurveto
          -15 38 -5 42 1 44 rrcurveto
          237 hlineto
          22 56 rlineto
          -254 hlineto
          2 12 2 12 3 12 2 12 3 12 4 12 rrcurveto
          266 hlineto
          22 56 rlineto
          -270 hlineto
          18 44 23 42 31 39 rrcurveto
          48 39 53 41 56 hhcurveto
          52 33 -16 -39 27 hvcurveto
          32 83 rlineto
          25 -42 -36 9 -53 hhcurveto
          -77 -77 -45 -62 -58 hvcurveto
          -48 -51 -35 -57 -23 -61 rrcurveto
          -70 hlineto
          -21 -56 rlineto
          72 hlineto
          -4 -12 -3 -12 -2 -12 -3 -12 -2 -12 -2 -12 rrcurveto
          -62 hlineto
          -22 -56 rlineto
          79 hlineto
          -1 -60 10 -58 26 -50 rrcurveto
          -62 32 58 -46 76 hhcurveto
          hintmask 10000000
          69 31 11 45 61 hvcurveto
          endchar
        </CharString>
        <CharString name="F">
          556 21 -21 316 60 253 63 hstem
          90 86 vstem
          648 629 78 callgsubr
          -424 hlineto
          -147 -692 rlineto
          86 hlineto
          67 316 rlineto
          297 hlineto
          13 60 rlineto
          -297 hlineto
          54 254 rlineto
          129 106 callgsubr
        </CharString>
        <CharString name="G">
          34 callsubr
          hstem
          -101 callgsubr
          endchar
        </CharString>
        <CharString name="Gacute">
          34 callsubr
          61 114 callsubr
          hintmask 11100000
          -101 callgsubr
          hintmask 00011000
          107 829 -93 callgsubr
        </CharString>
        <CharString name="Gamma">
          529 21 -21 629 63 hstem
          90 86 vstem
          621 629 78 callgsubr
          -397 hlineto
          -147 -692 rlineto
          86 hlineto
          134 630 rlineto
          116 106 callgsubr
        </CharString>
        <CharString name="Gbreve">
          34 callsubr
          40 65 113 -20 hstemhm
          hintmask 11100000
          -101 callgsubr
          hintmask 00011000
          94 885 -94 callgsubr
          endchar
        </CharString>
        <CharString name="Gcaron">
          34 callsubr
          51 -21 134 -20 hstemhm
          hintmask 11100000
          -101 callgsubr
          hintmask 00011000
          74 831 -81 callgsubr
        </CharString>
        <CharString name="Gcedilla">
          653 -34 callsubr
          65 36 callgsubr
          hstem
          -101 callgsubr
          -262 -186 -91 callsubr
        </CharString>
        <CharString name="Gcircumflex">
          34 callsubr
          51 -21 134 -20 hstemhm
          hintmask 11100000
          -101 callgsubr
          hintmask 00011000
          45 697 -76 callsubr
        </CharString>
        <CharString name="Gcommaaccent">
          653 -34 callsubr
          65 36 callgsubr
          hstemhm
          hintmask 00111000
          -101 callgsubr
          hintmask 11000000
          -262 -186 -91 callsubr
        </CharString>
        <CharString name="Gdotaccent">
          34 callsubr
          30 86 hstemhm
          440 86 -68 86 hintmask 11100000
          -101 callgsubr
          hintmask 00010100
          -68 697 -27 callgsubr
          hintmask 00011000
          -18 -86 rlineto
          endchar
        </CharString>
        <CharString name="H">
          34 callgsubr
          hstem
          61 callsubr
          185 86 62 86 vstem
          -77 callgsubr
          endchar
        </CharString>
        <CharString name="H_uni0303">
          34 callgsubr
          61 60 -2 60 118 callgsubr
          hintmask 1110011110000000
          -77 callgsubr
          hintmask 0000100000000000
          178 853 rmoveto
          -60 hlineto
          hintmask 0001000000000000
          -88 callgsubr
          hintmask 0000100000000000
          21 -24 -18 12 -25 hhcurveto
          hintmask 0001000000000000
          -77 callsubr
          hintmask 0000100000000000
          65 callsubr
          hintmask 0001000000000000
          -55 callsubr
          hintmask 0000100000000000
          23 callgsubr
        </CharString>
        <CharString name="Hbar">
          686 21 -21 331 60 99 62 142 -20 hstemhm
          90 86 18 86 -73 86 -55 86 185 86 18 86 -73 86 -55 86 hintmask 0010000000100000
          750 490 rmoveto
          13 62 rlineto
          -51 hlineto
          hintmask 0001000000010000
          31 142 -19 callsubr
          hintmask 0010001000100000
          -31 -142 rlineto
          -333 hlineto
          hintmask 0001000100000000
          31 142 -19 callsubr
          hintmask 0010001000000000
          -31 -142 rlineto
          -51 109 callgsubr
          hintmask 1110110011000000
          51 hlineto
          -104 -490 rlineto
          86 hlineto
          70 331 rlineto
          333 hlineto
          -70 -331 rlineto
          86 hlineto
          104 490 rlineto
          -107 -99 rmoveto
          -333 hlineto
          21 99 rlineto
          333 hlineto
          endchar
        </CharString>
        <CharString name="Hbrevebelow">
          686 108 callgsubr
          109 -21 331 60 303 -20 118 callgsubr
          hintmask 0011111110000000
          -77 callgsubr
          hintmask 1100000000000000
          -15 -68 -98 callsubr
          endchar
        </CharString>
        <CharString name="Hcircumflex">
          34 callgsubr
          82 -21 134 -20 118 callgsubr
          hintmask 1110011110000000
          -77 callgsubr
          hintmask 0001100000000000
          147 -6 callsubr
        </CharString>
        <CharString name="Hdieresis">
          34 callgsubr
          61 78 hstemhm
          61 callsubr
          54 77 -60 77 37 86 -50 77 -60 77 18 86 hintmask 1110110010010000
          -77 callgsubr
          hintmask 0001000100000000
          -54 58 callsubr
          hintmask 0001001000100000
          -62 callgsubr
          hintmask 0001000001000000
          -17 -78 rlineto
          endchar
        </CharString>
        <CharString name="Hdotbelow">
          686 23 callsubr
          331 60 303 -20 hstemhm
          61 callsubr
          -67 86 -67 86 147 86 62 86 hintmask 0111110011000000
          -77 callgsubr
          hintmask 1000000100000000
          -166 59 callgsubr
          hintmask 1000001000000000
          -26 callgsubr
        </CharString>
        <CharString name="I">
          37 callgsubr
          hstem
          61 callsubr
          vstem
          -70 callgsubr
          endchar
        </CharString>
        <CharString name="I_J">
          699 -21 62 653 -20 hstem
          61 callsubr
          359 84 vstem
          -70 callgsubr
          560 -61 callgsubr
          endchar
        </CharString>
        <CharString name="Iacute">
          37 callgsubr
          92 114 callsubr
          61 callsubr
          hintmask 11001100
          -70 callgsubr
          hintmask 00110000
          470 867 -93 callgsubr
        </CharString>
        <CharString name="Ibreve">
          37 callgsubr
          71 65 113 -20 hstemhm
          61 callsubr
          hintmask 11001100
          -70 callgsubr
          hintmask 00110000
          404 923 -94 callgsubr
          endchar
        </CharString>
        <CharString name="Icaron">
          37 callgsubr
          82 -21 134 -20 hstemhm
          61 callsubr
          hintmask 11001100
          -70 callgsubr
          hintmask 00110000
          384 869 -81 callgsubr
        </CharString>
        <CharString name="Icircumflex">
          37 callgsubr
          82 -21 134 -20 hstemhm
          61 callsubr
          hintmask 11001100
          -70 callgsubr
          hintmask 00110000
          355 -6 callsubr
        </CharString>
        <CharString name="Idblgrave">
          37 callgsubr
          92 82 callsubr
          hstemhm
          61 callsubr
          hintmask 11001100
          -70 callgsubr
          hintmask 00110000
          340 745 rmoveto
          -86 callsubr
        </CharString>
        <CharString name="Idieresis">
          37 callgsubr
          61 78 hstemhm
          90 86 -9 77 -60 77 -23 86 10 77 -60 77 hintmask 1101001000000000
          -70 callgsubr
          hintmask 0010010000000000
          154 58 callsubr
          hintmask 0010100010000000
          -62 callgsubr
          hintmask 0010000100000000
          -17 -78 rlineto
          endchar
        </CharString>
        <CharString name="Idieresisacute">
          37 callgsubr
          61 78 106 callsubr
          90 86 -9 77 -60 77 -23 86 10 77 -60 77 hintmask 1100010010000000
          -70 callgsubr
          hintmask 0010000100000000
          154 58 callsubr
          hintmask 0010001000100000
          -62 callgsubr
          hintmask 0011100001000000
          -17 -78 rlineto
          198 251 -93 callgsubr
        </CharString>
        <CharString name="Idotaccent">
          37 callgsubr
          61 86 hstemhm
          61 callsubr
          -78 86 -68 86 hintmask 11011000
          -70 callgsubr
          hintmask 00100010
          242 735 -27 callgsubr
          hintmask 00100100
          -18 -86 rlineto
          endchar
        </CharString>
        <CharString name="Idotbelow">
          266 23 callsubr
          694 -20 hstemhm
          47 86 -67 86 -62 86 62 86 hintmask 01100110
          -70 callgsubr
          hintmask 10001000
          43 59 callgsubr
          hintmask 10010000
          -26 callgsubr
        </CharString>
        <CharString name="Igrave">
          37 callgsubr
          92 114 callsubr
          61 callsubr
          hintmask 11001100
          -70 callgsubr
          hintmask 00110000
          244 745 -66 callsubr
        </CharString>
        <CharString name="Ihookabove">
          37 callgsubr
          82 -21 216 -20 hstemhm
          61 callsubr
          hintmask 11001100
          -70 callgsubr
          hintmask 00110100
          323 872 -100 callgsubr
        </CharString>
        <CharString name="Imacron">
          37 callgsubr
          81 63 hstemhm
          61 callsubr
          hintmask 11011000
          -70 callgsubr
          hintmask 00100000
          379 755 -22 callgsubr
        </CharString>
        <CharString name="Imacron.alt">
          37 callgsubr
          81 63 hstemhm
          61 callsubr
          hintmask 11011000
          -70 callgsubr
          hintmask 00100000
          297 755 73 callsubr
        </CharString>
        <CharString name="Iogonek">
          266 -212 70 163 -30 callsubr
          hstem
          61 callsubr
          vstem
          183 -58 callsubr
          -41 callgsubr
          rcurveline
          -53 callgsubr
          23 hlineto
          -56 -28 -50 -48 -8 -51 rrcurveto
          -54 callsubr
          endchar
        </CharString>
        <CharString name="Iogonekacute">
          266 -212 70 163 -30 callsubr
          92 114 callsubr
          61 callsubr
          hintmask 11100110
          183 -58 callsubr
          -41 callgsubr
          rcurveline
          -53 callgsubr
          23 hlineto
          -56 -28 -50 -48 -8 -51 rrcurveto
          -54 callsubr
          hintmask 00011000
          377 1054 -93 callgsubr
        </CharString>
        <CharString name="Iota">
          37 callgsubr
          hstem
          61 callsubr
          vstem
          -70 callgsubr
          endchar
        </CharString>
        <CharString name="Itilde">
          37 callgsubr
          61 63 callgsubr
          61 callsubr
          hintmask 11001100
          -70 callgsubr
          hintmask 00010000
          386 853 -97 callgsubr
        </CharString>
        <CharString name="J">
          113 callgsubr
          hstem
          443 84 vstem
          410 -61 callgsubr
          endchar
        </CharString>
        <CharString name="J_uni030C.cap">
          459.48572 -21 62 489 -21 113 72 hstem
          443 84 vstem
          410 -61 callgsubr
          210 474 -5 callgsubr
        </CharString>
        <CharString name="Jacute">
          113 callgsubr
          92 114 callsubr
          443 84 hintmask 11001000
          410 -61 callgsubr
          hintmask 00110000
          355 719 -93 callgsubr
        </CharString>
        <CharString name="Jcircumflex">
          113 callgsubr
          82 -21 134 -20 hstemhm
          443 84 hintmask 11001000
          410 -61 callgsubr
          hintmask 00110000
          239 587 -76 callsubr
        </CharString>
        <CharString name="K">
          674 54 callsubr
          91 84 64 84 vstem
          -49 callsubr
          endchar
        </CharString>
        <CharString name="Kappa">
          674 54 callsubr
          91 84 64 84 vstem
          -49 callsubr
          endchar
        </CharString>
        <CharString name="Kcedilla">
          674 25 callgsubr
          hstem
          91 84 64 84 vstem
          -49 callsubr
          -198 -148 -91 callsubr
        </CharString>
        <CharString name="Kcommaaccent">
          674 25 callgsubr
          hstemhm
          91 84 64 84 hintmask 00111100
          -49 callsubr
          hintmask 11000000
          -198 -148 -91 callsubr
        </CharString>
        <CharString name="L">
          529 0 120 callgsubr
          hstem
          238 86 vstem
          -65 callgsubr
          endchar
        </CharString>
        <CharString name="L_uni0303">
          529 0 120 callgsubr
          61 63 callgsubr
          238 86 hintmask 11001000
          -65 callgsubr
          hintmask 00010000
          386 853 -97 callgsubr
        </CharString>
        <CharString name="Lacute">
          529 0 120 callgsubr
          92 114 callsubr
          238 86 hintmask 11001000
          -65 callgsubr
          hintmask 00110000
          470 867 -93 callgsubr
        </CharString>
        <CharString name="Lambda">
          593 54 callsubr
          565 hmoveto
          -78 694 -19 callsubr
          -374 -43 callsubr
          73 hlineto
          161 302 43 80 95 178 19 58 rlinecurve
          1 hlineto
          -5 -59 18 -171 9 -79 33 -309 rcurveline
          endchar
        </CharString>
        <CharString name="Lcaron">
          529 0 62 468 -21 113 72 hstem
          238 86 vstem
          -65 callgsubr
          345 622 -5 callgsubr
        </CharString>
        <CharString name="Lcedilla">
          529 -34 callsubr
          76 120 callgsubr
          hstem
          238 86 vstem
          -65 callgsubr
          180 -148 -91 callsubr
        </CharString>
        <CharString name="Lcommaaccent">
          529 -34 callsubr
          76 120 callgsubr
          hstemhm
          238 86 hintmask 00111000
          -65 callgsubr
          hintmask 11000000
          180 -148 -91 callsubr
        </CharString>
        <CharString name="Ldot">
          529 0 62 263 86 283 -20 hstemhm
          238 86 99 86 -68 86 hintmask 11110100
          -65 callgsubr
          419 325 -27 callgsubr
          hintmask 01001000
          -18 -86 rlineto
          endchar
        </CharString>
        <CharString name="Ldotbelow">
          529 -200 86 114 120 callgsubr
          hstemhm
          178 86 -67 86 -45 86 hintmask 01100100
          -65 callgsubr
          hintmask 10001000
          174 59 callgsubr
          hintmask 10010000
          -26 callgsubr
        </CharString>
        <CharString name="Ldotbelowmacron">
          529 -200 86 114 120 callgsubr
          81 63 hstemhm
          178 86 -67 86 -45 86 hintmask 01100010
          -65 callgsubr
          174 -200 43 callsubr
          291 955 -22 callgsubr
        </CharString>
        <CharString name="Lslash">
          611 0 120 callgsubr
          hstemhm
          224 86 0 86 hintmask 11010000
          559 hmoveto
          14 64 -264 -2 rlineto
          -48 hlineto
          64 300 200 141 -29 45 -155 -111 55 257 -19 callsubr
          -70 -329 -121 -87 28 -43 rlineto
          hintmask 10100000
          77 56 -62 -291 rlineto
          endchar
        </CharString>
        <CharString name="M">
          850 54 callsubr
          95 77 505 77 vstem
          -64 callsubr
          endchar
        </CharString>
        <CharString name="Mdotbelow">
          850 23 callsubr
          694 -20 hstemhm
          95 77 167 86 -67 86 233 77 hintmask 01110110
          -64 callsubr
          hintmask 10000100
          -252 -200 -31 callgsubr
        </CharString>
        <CharString name="Mu">
          850 54 callsubr
          95 77 505 77 vstem
          -64 callsubr
          endchar
        </CharString>
        <CharString name="N">
          686 54 callsubr
          91 77 497 77 vstem
          -92 callsubr
          endchar
        </CharString>
        <CharString name="Nacute">
          686 -15 callgsubr
          92 114 callsubr
          91 77 497 77 hintmask 11001100
          -92 callsubr
          hintmask 00110000
          247 867 -93 callgsubr
        </CharString>
        <CharString name="Ncaron">
          686 -15 callgsubr
          82 -21 134 -20 hstemhm
          91 77 497 77 hintmask 11001100
          -92 callsubr
          hintmask 00110000
          214 869 -81 callgsubr
        </CharString>
        <CharString name="Ncedilla">
          686 25 callgsubr
          hstem
          91 77 497 77 vstem
          -92 callsubr
          -123 -148 -91 callsubr
        </CharString>
        <CharString name="Ncommaaccent">
          686 25 callgsubr
          hstemhm
          91 77 497 77 hintmask 00111100
          -92 callsubr
          hintmask 11000000
          -123 -148 -91 callsubr
        </CharString>
        <CharString name="Ndotaccent">
          686 -15 callgsubr
          61 86 hstemhm
          91 77 288 86 -68 86 105 77 hintmask 11010010
          -92 callsubr
          hintmask 00100100
          71 735 -27 callgsubr
          hintmask 00101000
          -18 -86 rlineto
          endchar
        </CharString>
        <CharString name="Ndotbelow">
          686 23 callsubr
          694 -20 hstemhm
          91 77 89 86 -67 86 303 77 hintmask 01110110
          -92 callsubr
          hintmask 10000100
          -128 -200 -31 callgsubr
        </CharString>
        <CharString name="Ntilde">
          686 -15 callgsubr
          61 63 callgsubr
          91 77 497 77 hintmask 11001100
          -92 callsubr
          hintmask 00010000
          216 853 -97 callgsubr
        </CharString>
        <CharString name="Nu">
          686 54 callsubr
          91 77 497 77 vstem
          -92 callsubr
          endchar
        </CharString>
        <CharString name="O">
          -9 callsubr
          hstem
          -106 callsubr
          endchar
        </CharString>
        <CharString name="OE">
          -58 callgsubr
        </CharString>
        <CharString name="OE.dup">
          -58 callgsubr
        </CharString>
        <CharString name="Oacute">
          -9 callsubr
          51 114 callsubr
          hintmask 11000000
          -106 callsubr
          hintmask 00110000
          77 507 -93 callgsubr
        </CharString>
        <CharString name="Obreve">
          -9 callsubr
          30 65 113 -20 hstemhm
          hintmask 11000000
          -106 callsubr
          hintmask 00110000
          64 563 -94 callgsubr
          endchar
        </CharString>
        <CharString name="Ocaron">
          -9 callsubr
          41 -21 134 -20 hstemhm
          hintmask 11000000
          -106 callsubr
          hintmask 00110000
          44 509 -81 callgsubr
        </CharString>
        <CharString name="Ocircumflex">
          -9 callsubr
          41 -21 134 -20 hstemhm
          hintmask 11000000
          -106 callsubr
          hintmask 00110000
          56 callsubr
          endchar
        </CharString>
        <CharString name="Ocircumflexacute">
          -9 callsubr
          41 -21 291 -20 hstemhm
          hintmask 11000000
          -106 callsubr
          hintmask 00110000
          56 callsubr
          108 291 -93 callgsubr
        </CharString>
        <CharString name="Ocircumflexdotbelow">
          722 -200 86 93 78 callsubr
          41 -21 134 -20 hstemhm
          275 86 -67 86 hintmask 01111100
          -106 callsubr
          56 callsubr
          hintmask 10000010
          -253 -935 33 callsubr
        </CharString>
        <CharString name="Ocircumflexgrave">
          -9 callsubr
          41 -21 134 -20 hstemhm
          hintmask 11000000
          -106 callsubr
          hintmask 00110000
          56 callsubr
          82 169 -11 callsubr
        </CharString>
        <CharString name="Ocircumflexhookabove">
          -9 callsubr
          41 -21 365 -20 hstemhm
          hintmask 11000000
          -106 callsubr
          hintmask 00110000
          15 375 -87 callgsubr
        </CharString>
        <CharString name="Ocircumflextilde">
          -9 callsubr
          41 -21 189 63 callgsubr
          hintmask 11000000
          -106 callsubr
          hintmask 00101000
          15 375 rmoveto
          -97 134 rlineto
          -60 hlineto
          -155 -134 rlineto
          59 hlineto
          118 97 76 -97 rlineto
          131 307 -75 callsubr
          -55 callgsubr
          8 hvcurveto
          hintmask 00010000
          -21 25 17 -12 25 hhcurveto
          hintmask 00001000
          12 callgsubr
        </CharString>
        <CharString name="Odblgrave">
          -9 callsubr
          51 82 callsubr
          hstemhm
          hintmask 11000000
          -106 callsubr
          hintmask 00110000
          385 vmoveto
          -86 callsubr
        </CharString>
        <CharString name="Odieresis">
          -9 callsubr
          20 78 hstemhm
          395 8 callsubr
          hintmask 11000000
          -106 callsubr
          hintmask 00101000
          -186 375 -12 callsubr
          hintmask 00110010
          -62 callgsubr
          hintmask 00100100
          -17 -78 rlineto
          endchar
        </CharString>
        <CharString name="Odotbelow">
          722 -200 86 93 78 callsubr
          hstemhm
          275 86 -67 86 hintmask 01100000
          -106 callsubr
          hintmask 10001000
          -297 -560 -64 callgsubr
          hintmask 10010000
          -26 callgsubr
        </CharString>
        <CharString name="Ograve">
          -9 callsubr
          51 114 callsubr
          hintmask 11000000
          -106 callsubr
          hintmask 00110000
          -43 385 -66 callsubr
        </CharString>
        <CharString name="Ohookabove">
          -9 callsubr
          41 -21 216 -20 hstemhm
          hintmask 11000000
          -106 callsubr
          hintmask 00110000
          -17 512 -100 callgsubr
        </CharString>
        <CharString name="Ohorn">
          77 callgsubr
          60 -20 81 callgsubr
          hintmask 00001000
          -37 callgsubr
          hintmask 00100100
          -28 callsubr
          hintmask 00001000
          61 callgsubr
          hintmask 11010000
          -96 callgsubr
          endchar
        </CharString>
        <CharString name="Ohornacute">
          77 callgsubr
          51 -21 30 -20 112 -20 81 callgsubr
          hintmask 00000010
          -37 callgsubr
          hintmask 00010001
          -28 callsubr
          hintmask 00000010
          61 callgsubr
          hintmask 11000100
          -96 callgsubr
          hintmask 00101000
          51 506 -93 callgsubr
        </CharString>
        <CharString name="Ohorndotbelow">
          722 -200 86 93 64 610 62 60 -20 hstemhm
          275 86 -67 86 273 86 -73 81 -64 81 hintmask 0000000100000000
          -37 callgsubr
          hintmask 0001000010000000
          -28 callsubr
          hintmask 0000000100000000
          61 callgsubr
          hintmask 0110001000000000
          -96 callgsubr
          hintmask 1000010000000000
          -296 -561 -64 callgsubr
          hintmask 1000100000000000
          -26 callgsubr
        </CharString>
        <CharString name="Ohorngrave">
          77 callgsubr
          51 -21 30 -20 112 -20 81 callgsubr
          hintmask 00000010
          -37 callgsubr
          hintmask 00010001
          -28 callsubr
          hintmask 00000010
          61 callgsubr
          hintmask 11000100
          -96 callgsubr
          hintmask 00101000
          -42 384 -66 callsubr
        </CharString>
        <CharString name="Ohornhookabove">
          77 callgsubr
          41 -21 40 -20 196 -20 81 callgsubr
          hintmask 00000010
          -37 callgsubr
          hintmask 00010001
          -28 callsubr
          hintmask 00000010
          61 callgsubr
          hintmask 11000100
          -96 callgsubr
          hintmask 00101000
          -16 511 -100 callgsubr
        </CharString>
        <CharString name="Ohorntilde">
          77 callgsubr
          20 60 -2 60 81 callgsubr
          hintmask 00000100
          -37 callgsubr
          hintmask 00000010
          -28 callsubr
          hintmask 00000100
          61 callgsubr
          hintmask 11001000
          -96 callgsubr
          hintmask 00010000
          47 492 -97 callgsubr
        </CharString>
        <CharString name="Ohungarumlaut">
          -9 callsubr
          51 82 callsubr
          hstemhm
          hintmask 11000000
          -106 callsubr
          hintmask 00110000
          -104 552 -56 callgsubr
        </CharString>
        <CharString name="Omacron">
          -9 callsubr
          40 63 hstemhm
          hintmask 11000000
          -106 callsubr
          hintmask 00100000
          39 395 -22 callgsubr
        </CharString>
        <CharString name="Omega">
          -52 callgsubr
        </CharString>
        <CharString name="Omicron">
          -9 callsubr
          hstem
          -106 callsubr
          endchar
        </CharString>
        <CharString name="Oogonek">
          722 -20 62 611 62 hstem
          -50 callsubr
          endchar
        </CharString>
        <CharString name="Oogonekacute">
          722 -20 62 611 62 51 114 callsubr
          hintmask 11000000
          -50 callsubr
          hintmask 00110000
          77 507 -93 callgsubr
        </CharString>
        <CharString name="Orogate">
          722 740 345 rmoveto
          43 199 -95 151 -145 18 35 168 rcurveline
          -60 hlineto
          -35 -168 -157 -18 -157 -154 -42 -196 rlinecurve
          -42 -198 97 -149 145 -17 -36 -167 rcurveline
          60 hlineto
          36 167 155 18 157 150 41 196 rlinecurve
          -82 15 rmoveto
          -196 -42 -134 -122 -112 hhcurveto
          -116 -79 125 193 42 hvcurveto
          184 39 132 109 111 hhcurveto
          114 83 -112 -181 -38 hvcurveto
          endchar
        </CharString>
        <CharString name="Oslash">
          57 callsubr
          hstem
          127 84 485 84 vstem
          -79 callsubr
          endchar
        </CharString>
        <CharString name="Oslash.dup">
          57 callsubr
          hstem
          127 84 485 84 vstem
          -79 callsubr
          endchar
        </CharString>
        <CharString name="Oslashacute">
          57 callsubr
          28 114 callsubr
          127 84 485 84 hintmask 1111100110000000
          -79 callsubr
          hintmask 0000011000000000
          59 522 -93 callgsubr
        </CharString>
        <CharString name="Otilde">
          -9 callsubr
          20 63 callgsubr
          hintmask 11000000
          -106 callsubr
          hintmask 00010000
          46 493 -97 callgsubr
        </CharString>
        <CharString name="P">
          -20 callgsubr
        </CharString>
        <CharString name="Phi">
          707 21 -21 106 61 360 61 106 -20 hstemhm
          128 84 98 81 -58 81 -69 81 -4 81 -68 81 -58 81 103 84 hintmask 0010000001000000
          726 347 rmoveto
          24 113 -78 111 -156 17 rrcurveto
          hintmask 0001000000100000
          23 106 rlineto
          -81 hlineto
          hintmask 0000101001000000
          -23 -107 -139 -13 -141 -101 -27 -126 rlinecurve
          -27 -126 99 -101 133 -13 rrcurveto
          hintmask 1000010000000000
          -23 -107 rlineto
          81 hlineto
          hintmask 0110101010010000
          23 106 164 17 124 111 24 113 rlinecurve
          -381 -180 rmoveto
          -107 16 -45 77 19 87 18 87 78 77 114 16 rrcurveto
          hintmask 0100000100000000
          220 -180 rmoveto
          -19 -87 -78 -78 -119 -16 rrcurveto
          hintmask 0000000010010000
          77 362 112 -16 45 -78 -18 -87 rlinecurve
          endchar
        </CharString>
        <CharString name="Pi">
          686 21 -21 632 60 hstem
          90 86 333 86 vstem
          595 hmoveto
          147 692 rlineto
          -505 hlineto
          -147 -692 rlineto
          86 hlineto
          134 632 rlineto
          333 hlineto
          -134 -632 rlineto
          endchar
        </CharString>
        <CharString name="Psi">
          762 21 -21 108 61 384 60 81 -20 hstemhm
          293 81 -36 81 -58 81 -68 81 31 81 hintmask 0111000110000000
          825 553 rmoveto
          12 60 rlineto
          -71 hlineto
          -43 -38 -10 -163 -34 hvcurveto
          -16 -74 -36 -163 -144 -34 112 525 rcurveline
          -81 hlineto
          -112 -525 rlineto
          hintmask 0010100000000000
          -119 36 23 144 15 72 rrcurveto
          148 32 -6 44 -64 hhcurveto
          -71 hlineto
          -12 -60 63 -4 -12 -78 -14 -67 rlinecurve
          hintmask 0000001000000000
          -21 -103 -4 -167 177 -27 rrcurveto
          hintmask 1000010000000000
          -23 -107 rlineto
          81 hlineto
          hintmask 0010001000000000
          23 107 222 27 52 231 12 60 rlinecurve
          12 54 25 71 60 3 rrcurveto
          endchar
        </CharString>
        <CharString name="Q">
          722 -104 -21 104 62 612 62 hstem
          127 84 234 84 127 84 vstem
          740 345 rmoveto
          212 45 -110 158 -162 hhcurveto
          -166 -175 -161 -209 -45 hvcurveto
          -209 -44 109 -157 165 hhcurveto
          42 40 12 5 14 hvcurveto
          58 -121 rlineto
          101 hlineto
          -83 158 116 80 69 109 26 123 rlinecurve
          -84 hmoveto
          -27 -128 -68 -86 -60 -42 -56 105 rcurveline
          -87 hlineto
          70 -144 rlineto
          -7 -22 -8 -2 -28 hhcurveto
          -116 -82 118 186 39 hvcurveto
          190 41 134 118 113 hhcurveto
          117 80 -121 -187 -40 hvcurveto
          endchar
        </CharString>
        <CharString name="R">
          35 callsubr
          hstem
          29 callsubr
          vstem
          -99 callsubr
          endchar
        </CharString>
        <CharString name="Racute">
          35 callsubr
          106 callsubr
          29 callsubr
          hintmask 11100111
          -99 callsubr
          hintmask 00011000
          85 360 -93 callgsubr
        </CharString>
        <CharString name="Rcaron">
          35 callsubr
          62 -21 134 -20 hstemhm
          29 callsubr
          hintmask 11100111
          -99 callsubr
          hintmask 00011000
          52 362 -81 callgsubr
        </CharString>
        <CharString name="Rcedilla">
          630 80 callgsubr
          317 60 261 56 hstem
          29 callsubr
          vstem
          -99 callsubr
          -284 -655 -91 callsubr
        </CharString>
        <CharString name="Rcommaaccent">
          630 80 callgsubr
          317 60 261 56 hstemhm
          29 callsubr
          hintmask 00111111
          -99 callsubr
          hintmask 11000000
          -284 -655 -91 callsubr
        </CharString>
        <CharString name="Rdblgrave">
          35 callsubr
          72 82 callsubr
          hstemhm
          29 callsubr
          hintmask 11100111
          -99 callsubr
          hintmask 00011010
          -19 238 rmoveto
          -86 callsubr
        </CharString>
        <CharString name="Rdotaccent">
          35 callsubr
          41 86 hstemhm
          91 84 221 79 -47 86 -68 86 72 79 hintmask 1110110010000000
          -99 callsubr
          hintmask 0001000100000000
          -90 228 -27 callgsubr
          hintmask 0001001000000000
          -18 -86 rlineto
          endchar
        </CharString>
        <CharString name="Rdotbelow">
          630 -200 86 135 60 callsubr
          104 callsubr
          hintmask 0111100110000000
          -99 callsubr
          hintmask 1000001000000000
          -289 -707 27 callgsubr
        </CharString>
        <CharString name="Rdotbelowmacron">
          630 -200 86 135 60 callsubr
          61 63 104 callsubr
          hintmask 1111010111000000
          -99 callsubr
          -289 -707 -64 callgsubr
          hintmask 1000001000000000
          -19 -86 rlineto
          hintmask 0000100000000000
          422 955 -22 callgsubr
        </CharString>
        <CharString name="Rho">
          -20 callgsubr
        </CharString>
        <CharString name="S">
          91 callgsubr
          -99 callgsubr
          endchar
        </CharString>
        <CharString name="S_S">
          1088 -21 54 callgsubr
          -99 callgsubr
          544 hmoveto
          -76 callgsubr
          hintmask 01000000
          85 38 -33 -32 29 hvcurveto
          33 81 rlineto
          hintmask 10100000
          22 -37 -44 27 -89 hhcurveto
          -134 -107 -96 -100 -22 hvcurveto
          -15 -71 33 -46 4 -5 39 -50 32 -9 60 -16 81 -21 13 -4 25 -33 13 -18 8 -32 -7 -35 rrcurveto
          -69 -15 -70 -64 -86 hhcurveto
          -73 -72 29 54 -48 hvcurveto
          -32 -81 rlineto
          -60 78 87 -9 46 hhcurveto
          129 112 99 111 23 hvcurveto
          endchar
        </CharString>
        <CharString name="Sacute">
          91 callgsubr
          51 -21 122 -20 -99 callgsubr
          hintmask 00011000
          117 678 -93 callgsubr
        </CharString>
        <CharString name="Scaron">
          91 callgsubr
          41 -21 134 -20 -99 callgsubr
          hintmask 00011000
          84 680 -81 callgsubr
        </CharString>
        <CharString name="Scedilla">
          91 callgsubr
          -99 callgsubr
          -220 -233 6 callgsubr
          endchar
        </CharString>
        <CharString name="Scircumflex">
          91 callgsubr
          41 -21 134 -20 -99 callgsubr
          hintmask 00011000
          55 546 -76 callsubr
        </CharString>
        <CharString name="Sdotbelow">
          544 -200 86 93 54 callgsubr
          hstemhm
          186 86 -67 86 hintmask 00100000
          14 callsubr
          hintmask 01011000
          22 -37 -44 27 -89 hhcurveto
          -134 -107 -96 -100 -22 hvcurveto
          -15 -71 33 -46 4 -5 39 -50 32 -9 60 -16 81 -21 13 -4 25 -33 13 -18 8 -32 -7 -35 rrcurveto
          -69 -15 -70 -64 -86 hhcurveto
          -73 -72 29 54 -48 hvcurveto
          -32 -81 rlineto
          -60 78 87 -9 46 hhcurveto
          129 112 99 111 23 hvcurveto
          hintmask 10000100
          -257 -389 -31 callgsubr
        </CharString>
        <CharString name="Sigma">
          707 0 68 563 63 hstemhm
          54 598 -464 598 -584 598 hintmask 11010000
          652 99 callgsubr
          -236 hlineto
          -12 -12 -1 -12 hhcurveto
          -189 hlineto
          248 280 -157 285 rlineto
          200 hlineto
          12 12 -1 12 hhcurveto
          254 hlineto
          hintmask 01001000
          14 63 rlineto
          -598 hlineto
          hintmask 00010000
          -14 -62 163 -296 rlineto
          hintmask 10100000
          -297 -336 rlineto
          endchar
        </CharString>
        <CharString name="T">
          111 callsubr
          hstem
          291 86 47 86 vstem
          -86 callgsubr
          endchar
        </CharString>
        <CharString name="T_uni0303">
          111 callsubr
          46 63 callgsubr
          291 86 47 86 hintmask 11001100
          -86 callgsubr
          hintmask 00010000
          43 227 -97 callgsubr
        </CharString>
        <CharString name="T_uni0308">
          111 callsubr
          46 78 hstemhm
          291 86 -9 77 -60 77 -38 86 25 77 -60 77 hintmask 1101001000000000
          -86 callgsubr
          hintmask 0010010000000000
          -189 109 -12 callsubr
          hintmask 0010100010000000
          -62 callgsubr
          hintmask 0010000100000000
          -17 -78 rlineto
          endchar
        </CharString>
        <CharString name="Tau">
          111 callsubr
          hstem
          291 86 47 86 vstem
          -86 callgsubr
          endchar
        </CharString>
        <CharString name="Tcaron">
          111 callsubr
          67 -21 134 -20 hstemhm
          291 86 47 86 hintmask 11001100
          -86 callgsubr
          hintmask 00110000
          41 243 -81 callgsubr
        </CharString>
        <CharString name="Tcedilla">
          668 -170 -21 168 -20 64 119 callsubr
          hstem
          291 86 47 86 vstem
          -86 callgsubr
          -275 -649 6 callgsubr
          endchar
        </CharString>
        <CharString name="Tdotbelow">
          668 23 callsubr
          626 63 hstemhm
          248 86 -67 86 -62 86 47 86 hintmask 01100110
          -86 callgsubr
          hintmask 10001000
          -300 -826 -64 callgsubr
          hintmask 10010000
          -26 callgsubr
        </CharString>
        <CharString name="Theta">
          762 -21 61 267 81 267 60 hstem
          127 81 491 81 vstem
          780 345 rmoveto
          210 45 -117 160 -175 hhcurveto
          -179 -183 -163 -207 -44 hvcurveto
          -209 -44 119 -157 174 hhcurveto
          178 183 160 206 43 hvcurveto
          -81 hmoveto
          -186 -39 -143 -119 -127 hhcurveto
          -131 -90 122 183 39 hvcurveto
          187 40 143 123 128 hhcurveto
          132 87 -126 -184 -39 hvcurveto
          -63 -38 rmoveto
          17 81 rlineto
          -381 hlineto
          -17 -81 rlineto
          endchar
        </CharString>
        <CharString name="Thorn">
          568 21 -21 180 56 275 56 127 -20 hstem
          97 72 vstem
          592 374 rmoveto
          99 22 -63 94 -122 hhcurveto
          -139 hlineto
          27 127 rlineto
          -72 -82 callsubr
          72 hlineto
          38 180 rlineto
          126 hlineto
          160 83 115 79 16 hvcurveto
          -79 -1 rmoveto
          -38 -8 -49 -99 -139 hhcurveto
          -98 hlineto
          59 275 rlineto
          98 hlineto
          103 49 -68 -70 -15 hvcurveto
          endchar
        </CharString>
        <CharString name="Tlinebelow">
          668 -188 63 146 119 callsubr
          hstemhm
          291 86 47 86 hintmask 01111000
          -86 callgsubr
          hintmask 10000000
          -164 -814 -56 callsubr
        </CharString>
        <CharString name="U">
          13 callsubr
          hstem
          21 callsubr
          vstem
          -103 callgsubr
          endchar
        </CharString>
        <CharString name="U_uni032F">
          667 -225 -21 113 65 47 56 659 -20 17 callsubr
          hintmask 00111100
          -103 callgsubr
          hintmask 11000000
          -179 -479 rmoveto
          107 20 -62 -52 callsubr
        </CharString>
        <CharString name="Uacute">
          13 callsubr
          92 -21 122 -20 17 callsubr
          hintmask 11001100
          -103 callgsubr
          hintmask 00110000
          82 634 -93 callgsubr
        </CharString>
        <CharString name="Ubreve">
          13 callsubr
          71 65 113 -20 17 callsubr
          hintmask 11001100
          -103 callgsubr
          hintmask 00110000
          69 690 -94 callgsubr
          endchar
        </CharString>
        <CharString name="Ucaron">
          13 callsubr
          82 -21 134 -20 17 callsubr
          hintmask 11001100
          -103 callgsubr
          hintmask 00110000
          49 636 -81 callgsubr
        </CharString>
        <CharString name="Ucircumflex">
          13 callsubr
          82 -21 134 -20 17 callsubr
          hintmask 11001100
          -103 callgsubr
          hintmask 00110000
          20 502 -76 callsubr
        </CharString>
        <CharString name="Udblgrave">
          13 callsubr
          92 82 callsubr
          17 callsubr
          hintmask 11001100
          -103 callgsubr
          hintmask 00110000
          5 512 rmoveto
          -86 callsubr
        </CharString>
        <CharString name="Udieresis">
          13 callsubr
          61 78 hstemhm
          238 86 44 8 callsubr
          19 76 hintmask 1101000010000000
          -103 callgsubr
          hintmask 0010010000000000
          -181 502 -12 callsubr
          hintmask 0010100100000000
          -62 callgsubr
          hintmask 0010001000000000
          -17 -78 rlineto
          endchar
        </CharString>
        <CharString name="Udieresisacute">
          13 callsubr
          61 78 106 callsubr
          238 86 44 8 callsubr
          19 76 hintmask 1100010000100000
          -103 callgsubr
          hintmask 0010000100000000
          -181 502 -12 callsubr
          hintmask 0010001001000000
          -62 callgsubr
          hintmask 0011100010000000
          -17 -78 rlineto
          198 251 -93 callgsubr
        </CharString>
        <CharString name="Udieresiscaron">
          13 callsubr
          61 78 62 -21 134 -20 hstemhm
          238 86 44 8 callsubr
          19 76 hintmask 1100010000100000
          -103 callgsubr
          hintmask 0010000100000000
          -181 502 -12 callsubr
          hintmask 0010001001000000
          -62 callgsubr
          hintmask 0011100010000000
          -17 -78 rlineto
          165 253 -81 callgsubr
        </CharString>
        <CharString name="Udieresisgrave">
          13 callsubr
          61 78 106 callsubr
          238 86 44 8 callsubr
          19 76 hintmask 1100010000100000
          -103 callgsubr
          hintmask 0010000100000000
          -181 502 -12 callsubr
          hintmask 0010001001000000
          -62 callgsubr
          hintmask 0011100010000000
          -17 -78 rlineto
          78 129 -66 callsubr
        </CharString>
        <CharString name="Udotbelow">
          667 -200 86 93 56 659 -20 hstemhm
          238 86 -77 86 -67 86 296 76 hintmask 01110010
          -103 callgsubr
          hintmask 10000100
          -293 -433 -31 callgsubr
        </CharString>
        <CharString name="Ugrave">
          13 callsubr
          92 -21 122 -20 17 callsubr
          hintmask 11001100
          -103 callgsubr
          hintmask 00110000
          -38 512 -66 callsubr
        </CharString>
        <CharString name="Uhookabove">
          13 callsubr
          82 -21 216 -20 17 callsubr
          hintmask 11001100
          -103 callgsubr
          hintmask 00110000
          -12 639 -100 callgsubr
        </CharString>
        <CharString name="Uhorn">
          667 -21 56 740 -20 7 callsubr
          hintmask 01000001
          815 695 rmoveto
          -28 callsubr
          hintmask 10111110
          -94 callsubr
          endchar
        </CharString>
        <CharString name="Uhornacute">
          667 -21 56 731 -21 30 -20 112 -20 7 callsubr
          hintmask 0010000001000000
          815 695 rmoveto
          -28 callsubr
          hintmask 1000111110000000
          -94 callsubr
          hintmask 0101000000000000
          -134 173 -93 callgsubr
        </CharString>
        <CharString name="Uhorndotbelow">
          667 -200 86 93 56 740 -20 hstemhm
          144 76 23 76 -72 86 -67 86 191 76 23 76 16 81 -64 81 hintmask 0010000000100000
          815 695 rmoveto
          -28 callsubr
          hintmask 0101100111000000
          -94 callsubr
          hintmask 1000001000000000
          -481 -894 27 callgsubr
        </CharString>
        <CharString name="Uhorngrave">
          667 -21 56 731 -21 30 -20 112 -20 7 callsubr
          hintmask 0010000001000000
          815 695 rmoveto
          -28 callsubr
          hintmask 1000111110000000
          -94 callsubr
          hintmask 0101000000000000
          -226 51 -66 callsubr
        </CharString>
        <CharString name="Uhornhookabove">
          667 -21 56 721 -21 40 -20 196 -20 7 callsubr
          hintmask 0010000001000000
          815 695 rmoveto
          -28 callsubr
          hintmask 1000111110000000
          -94 callsubr
          hintmask 0101000000000000
          -200 178 -100 callgsubr
        </CharString>
        <CharString name="Uhorntilde">
          667 -21 56 700 60 -2 60 7 callsubr
          hintmask 0000000010000000
          815 695 rmoveto
          -28 callsubr
          hintmask 1001111100000000
          -94 callsubr
          hintmask 0010000000000000
          -137 159 rmoveto
          -60 hlineto
          hintmask 0100000000000000
          -88 callgsubr
          hintmask 0010000000000000
          21 -24 -18 12 -25 hhcurveto
          hintmask 0100000000000000
          -77 callsubr
          hintmask 0010000000000000
          65 callsubr
          hintmask 0100000000000000
          -55 callsubr
          hintmask 0010000000000000
          23 callgsubr
        </CharString>
        <CharString name="Uhungarumlaut">
          13 callsubr
          92 82 callsubr
          17 callsubr
          hintmask 11001100
          -103 callgsubr
          hintmask 00110000
          -99 679 -56 callgsubr
        </CharString>
        <CharString name="Umacron">
          13 callsubr
          81 63 17 callsubr
          hintmask 11011000
          -103 callgsubr
          hintmask 00100000
          44 522 -22 callgsubr
        </CharString>
        <CharString name="Uogonek">
          667 -212 70 121 56 659 -20 hstem
          21 callsubr
          vstem
          626 233 rmoveto
          98 461 47 callgsubr
          -462 rlineto
          -134 -28 -98 -63 -80 hhcurveto
          -79 -67 62 135 28 hvcurveto
          99 462 -19 callsubr
          -98 -461 -30 -138 80 -103 118 -12 rlinecurve
          -41 -28 -32 -39 -7 -40 3 callsubr
          6 35 32 29 39 23 116 21 109 100 28 129 rrcurveto
          endchar
        </CharString>
        <CharString name="Upsilon">
          762 21 -21 650 65 hstem
          338 86 vstem
          825 555 rmoveto
          98 19 -62 62 -79 hhcurveto
          -110 -65 -104 -113 -41 hvcurveto
          -1 hlineto
          67 4 4 150 -132 hhcurveto
          -79 -88 -62 -98 -23 hvcurveto
          76 hlineto
          58 14 43 37 43 hhcurveto
          70 48 -48 -219 -47 hvcurveto
          -81 -383 rlineto
          86 hlineto
          82 385 rlineto
          209 44 64 56 75 hhcurveto
          43 27 -37 -58 -10 hvcurveto
          endchar
        </CharString>
        <CharString name="Uring">
          12 callsubr
          47 74 47 17 callsubr
          hintmask 11011000
          -103 callgsubr
          hintmask 01100000
          -78 545 rmoveto
          -31 -6 -32 -28 callgsubr
          7 31 -91 callgsubr
          endchar
        </CharString>
        <CharString name="Utilde">
          13 callsubr
          61 60 -2 60 17 callsubr
          hintmask 11001100
          -103 callgsubr
          hintmask 00010000
          51 620 -97 callgsubr
        </CharString>
        <CharString name="V">
          112 callgsubr
          hstem
          162 618 vstem
          780 694 rmoveto
          -76 hlineto
          -196 -332 -63 -107 -78 -132 -21 -49 rlinecurve
          -1 hlineto
          43 -14 84 -11 64 vhcurveto
          -68 429 rlineto
          -90 hlineto
          116 -43 callsubr
          90 hlineto
          endchar
        </CharString>
        <CharString name="W">
          919 54 callsubr
          162 890 vstem
          -84 callgsubr
          44 89 67 137 18 53 rlinecurve
          7 callgsubr
          endchar
        </CharString>
        <CharString name="Wacute">
          919 -15 callgsubr
          92 114 callsubr
          162 890 hintmask 11001000
          -84 callgsubr
          44 89 67 137 18 53 rlinecurve
          7 callgsubr
          hintmask 00110000
          126 867 -93 callgsubr
        </CharString>
        <CharString name="Wcircumflex">
          919 -15 callgsubr
          82 -21 134 -20 hstemhm
          162 890 hintmask 11001000
          -84 callgsubr
          44 89 67 137 18 53 rlinecurve
          7 callgsubr
          hintmask 00110000
          64 -6 callsubr
        </CharString>
        <CharString name="Wdieresis">
          919 -15 callgsubr
          61 78 hstemhm
          162 890 -558 8 callsubr
          hintmask 11010000
          -84 callgsubr
          rlineto
          hintmask 10000100
          44 89 67 137 18 53 rrcurveto
          7 callgsubr
          hintmask 01010000
          hintmask 00100100
          -137 58 callsubr
          hintmask 00101001
          -62 callgsubr
          hintmask 00100010
          -17 -78 rlineto
          endchar
        </CharString>
        <CharString name="Wgrave">
          919 -15 callgsubr
          92 114 callsubr
          162 890 hintmask 11001000
          -84 callgsubr
          44 89 67 137 18 53 rlinecurve
          7 callgsubr
          hintmask 00110000
          6 745 -66 callsubr
        </CharString>
        <CharString name="X">
          -1 callgsubr
        </CharString>
        <CharString name="Xi">
          653 0 72 -72 73 249 72 222 73 -72 72 hstemhm
          41 570 -554 570 -445 570 hintmask 00001001
          737 616 rmoveto
          15 73 rlineto
          -560 hlineto
          hintmask 00010000
          -15 -73 rlineto
          122 hlineto
          hintmask 00001000
          157 1 rlineto
          hintmask 01010010
          159 -1 rlineto
          -4 -616 rmoveto
          16 73 rlineto
          -125 hlineto
          hintmask 10000000
          -160 -1 rlineto
          hintmask 01000001
          -160 1 rlineto
          hintmask 01000010
          -125 hlineto
          hintmask 10000100
          -16 -73 rlineto
          570 322 rmoveto
          hintmask 00100010
          16 72 rlineto
          -434 hlineto
          -16 -72 rlineto
          hintmask 00100100
          endchar
        </CharString>
        <CharString name="Y">
          112 callgsubr
          hstemhm
          281 84 -25 84 hintmask 01010000
          -72 callsubr
          hintmask 10100000
          55 callgsubr
          hintmask 01010000
          59 278 rlineto
          endchar
        </CharString>
        <CharString name="Yacute">
          112 callgsubr
          92 114 callsubr
          281 84 -25 84 hintmask 01000100
          -72 callsubr
          hintmask 10001000
          55 callgsubr
          hintmask 01000100
          59 278 rlineto
          hintmask 00110000
          274 589 -93 callgsubr
        </CharString>
        <CharString name="Ycircumflex">
          112 callgsubr
          82 -21 134 -20 hstemhm
          281 84 -25 84 hintmask 01000100
          -72 callsubr
          hintmask 10001000
          55 callgsubr
          hintmask 01000100
          59 278 rlineto
          hintmask 00110000
          212 457 -76 callsubr
        </CharString>
        <CharString name="Ydieresis">
          112 callgsubr
          61 78 hstemhm
          281 84 -25 84 -66 8 callsubr
          hintmask 0100100000000000
          -72 callsubr
          hintmask 1001000000000000
          55 callgsubr
          hintmask 0100100000000000
          59 278 rlineto
          hintmask 0010001000000000
          11 457 -12 callsubr
          hintmask 0010010010000000
          -62 callgsubr
          hintmask 0010000100000000
          -17 -78 rlineto
          endchar
        </CharString>
        <CharString name="Ydotbelow">
          102 callsubr
          694 -20 hstemhm
          238 86 -67 86 -62 84 -25 84 hintmask 00100010
          -72 callsubr
          hintmask 01000100
          55 callgsubr
          hintmask 00100010
          59 278 rlineto
          hintmask 10001000
          -100 -478 -64 callgsubr
          hintmask 10010000
          -26 callgsubr
        </CharString>
        <CharString name="Ygrave">
          112 callgsubr
          92 114 callsubr
          281 84 -25 84 hintmask 01000100
          -72 callsubr
          hintmask 10001000
          55 callgsubr
          hintmask 01000100
          59 278 rlineto
          hintmask 00110000
          154 467 -66 callsubr
        </CharString>
        <CharString name="Yhookabove">
          112 callgsubr
          82 -21 216 -20 hstemhm
          281 84 -25 84 hintmask 01000100
          -72 callsubr
          hintmask 10001000
          55 callgsubr
          hintmask 01000100
          59 278 rlineto
          hintmask 00110000
          180 594 -100 callgsubr
        </CharString>
        <CharString name="Ytilde">
          112 callgsubr
          61 63 callgsubr
          281 84 -25 84 hintmask 01000100
          -72 callsubr
          hintmask 10001000
          55 callgsubr
          hintmask 01000100
          59 278 rlineto
          hintmask 00010000
          243 575 -97 callgsubr
        </CharString>
        <CharString name="Z">
          75 callsubr
          hstem
          54 494 vstem
          -73 callgsubr
          endchar
        </CharString>
        <CharString name="Zacute">
          75 callsubr
          106 callsubr
          54 494 hintmask 11001000
          -73 callgsubr
          hintmask 00110000
          620 867 -93 callgsubr
        </CharString>
        <CharString name="Zcaron">
          75 callsubr
          62 -21 134 -20 hstemhm
          54 494 hintmask 11001000
          -73 callgsubr
          hintmask 00110000
          587 869 -81 callgsubr
        </CharString>
        <CharString name="Zdotaccent">
          75 callsubr
          41 86 hstemhm
          54 494 -136 86 -68 86 hintmask 11010000
          -73 callgsubr
          hintmask 00100100
          444 735 -27 callgsubr
          hintmask 00101000
          -18 -86 rlineto
          endchar
        </CharString>
        <CharString name="Zdotbelow">
          598 -200 86 114 64 569 61 hstemhm
          54 494 -335 86 -67 86 hintmask 01110000
          -73 callgsubr
          hintmask 10000100
          245 -200 -31 callgsubr
        </CharString>
        <CharString name="Zeta">
          75 callsubr
          hstem
          54 494 vstem
          -73 callgsubr
          endchar
        </CharString>
        <CharString name="a">
          -61 callsubr
          hstem
          -107 callgsubr
          endchar
        </CharString>
        <CharString name="aacute">
          -61 callsubr
          89 -21 167 -20 -107 callsubr
          hintmask 00011000
          153 495 -75 callgsubr
        </CharString>
        <CharString name="abreve">
          -61 callsubr
          63 65 113 -51 callsubr
          endchar
        </CharString>
        <CharString name="abreveacute">
          -61 callsubr
          63 65 270 -51 callsubr
          11 157 -93 callgsubr
        </CharString>
        <CharString name="abrevedotbelow">
          58 callgsubr
          63 65 113 -20 hstemhm
          148 86 -67 86 hintmask 01111100
          -107 callgsubr
          -34 callgsubr
          hintmask 10000001
          -315 -900 -64 callgsubr
          hintmask 10000010
          -26 callgsubr
        </CharString>
        <CharString name="abrevegrave">
          -61 callsubr
          63 65 113 -51 callsubr
          -15 35 -11 callsubr
        </CharString>
        <CharString name="abrevehookabove">
          -61 callsubr
          63 65 344 -51 callsubr
          -38 152 79 callsubr
          -26 hvcurveto
          5 -79 callgsubr
          -8 -8 -9 -4 -38 -90 callsubr
          3 3 20 -59 callsubr
        </CharString>
        <CharString name="abrevetilde">
          -61 callsubr
          63 65 168 60 -2 60 -107 callsubr
          hintmask 00010100
          -34 callgsubr
          34 173 rmoveto
          -60 hlineto
          hintmask 00001000
          21 callgsubr
          hintmask 00000100
          107 callsubr
          hintmask 00001000
          -43 -59 -39 -79 -19 hvcurveto
          60 hlineto
          hintmask 00000100
          -9 callgsubr
          hintmask 00001000
          -55 callsubr
          hintmask 00000100
          43 59 -18 callsubr
        </CharString>
        <CharString name="acaron">
          -61 callsubr
          87 -21 172 -20 -107 callsubr
          hintmask 00011000
          171 498 -78 callsubr
        </CharString>
        <CharString name="acircumflex">
          -61 callsubr
          87 -21 172 -20 -107 callsubr
          hintmask 00011000
          135 326 -89 callgsubr
          endchar
        </CharString>
        <CharString name="acircumflexacute">
          -61 callsubr
          87 -21 291 -49 callgsubr
          107 291 10 callsubr
        </CharString>
        <CharString name="acircumflexdotbelow">
          58 callgsubr
          87 -21 172 -20 hstemhm
          148 86 -67 86 hintmask 01111100
          -107 callgsubr
          135 326 -89 callgsubr
          hintmask 10000001
          -209 -725 -64 callgsubr
          hintmask 10000010
          -26 callgsubr
        </CharString>
        <CharString name="acircumflexgrave">
          -61 callsubr
          87 -21 134 -49 callgsubr
          82 169 rmoveto
          -89 hlineto
          -172 122 rlineto
          111 hlineto
          endchar
        </CharString>
        <CharString name="acircumflexhookabove">
          -61 callsubr
          87 -21 365 -49 callgsubr
          153 286 -60 callgsubr
          -8 -40 -5 -20 rcurveline
          26 hlineto
          1 hlineto
          5 20 5 24 19 14 37 21 rlinecurve
          7 3 3 2 4 3 19 11 14 19 4 20 rrcurveto
          endchar
        </CharString>
        <CharString name="acircumflextilde">
          -61 callsubr
          87 -21 189 60 -2 60 -107 callsubr
          hintmask 00010100
          51 callgsubr
          131 307 rmoveto
          -60 hlineto
          hintmask 00001000
          -26 -6 -15 -32 -29 hhcurveto
          -23 -22 -39 callsubr
        </CharString>
        <CharString name="acute">
          490 548 31 callgsubr
          530 694 -75 callgsubr
        </CharString>
        <CharString name="acute.cap">
          490 516 115 callgsubr
          hstem
          566 617 -93 callgsubr
        </CharString>
        <CharString name="acute.dup">
          490 548 31 callgsubr
          530 694 -75 callgsubr
        </CharString>
        <CharString name="acute.ts1">
          489 561 -21 190 -20 hstem
          562 730 rmoveto
          -76 hlineto
          -132 -145 -39 -45 rlineto
          59 hlineto
          endchar
        </CharString>
        <CharString name="adblgrave">
          -61 callsubr
          89 -21 167 -20 -107 callsubr
          hintmask 00011000
          119 328 rmoveto
          -86 callsubr
        </CharString>
        <CharString name="adieresis">
          -61 callsubr
          113 78 hstemhm
          248 -16 callgsubr
          -106 callgsubr
          hintmask 00010100
          -42 373 rmoveto
          16 78 -8 callsubr
          hintmask 00011001
          -57 callsubr
          hintmask 00010010
          -16 -78 rlineto
          endchar
        </CharString>
        <CharString name="adotbelow">
          58 callgsubr
          hstemhm
          148 86 -67 86 hintmask 01110000
          -107 callgsubr
          hintmask 10000100
          -133 -399 -31 callgsubr
        </CharString>
        <CharString name="ae">
          -73 callsubr
        </CharString>
        <CharString name="ae.dup">
          -73 callsubr
        </CharString>
        <CharString name="aeacute">
          707 -10 60 -3 60 91 54 -27 54 12 60 48 60 -58 58 69 callgsubr
          71 71 159 76 166 71 0 76 hintmask 1010101001110000
          727 225 rmoveto
          36 7 42 198 -162 hhcurveto
          -13 -75 0 -77 -77 hvcurveto
          37 -16 -32 40 -74 hhcurveto
          -60 -50 -15 -27 -53 hvcurveto
          -8 -66 rlineto
          27 43 50 23 66 hhcurveto
          41 37 -33 -77 -16 hvcurveto
          -8 -39 -143 -1 -136 -44 -19 -91 rlinecurve
          -34 -8 -1 -92 93 hhcurveto
          4 59 0 15 57 hvcurveto
          72 20 27 31 10 11 rrcurveto
          -49 33 50 -28 62 hhcurveto
          hintmask 0100000000001000
          79 73 48 9 2 hvcurveto
          1 5 2 23 1 5 rrcurveto
          0 2 23 1 4 vhcurveto
          hintmask 1001010001110000
          -43 -53 -55 -14 -39 hhcurveto
          -70 -56 63 112 22 hvcurveto
          239 54 rmoveto
          -222 hlineto
          74 34 60 46 51 hhcurveto
          48 35 -37 -83 -6 hvcurveto
          -331 -146 rmoveto
          -4 -21 -5 -22 -37 -20 rrcurveto
          -14 -25 -33 -6 -26 hhcurveto
          -52 -31 30 37 8 hvcurveto
          hintmask 0010000000000000
          15 71 154 8 47 2 -3 -18 -4 -30 -4 -17 rrcurveto
          hintmask 0000000110000000
          292 561 -75 callgsubr
        </CharString>
        <CharString name="agrave">
          -61 callsubr
          89 -21 167 -20 -107 callsubr
          hintmask 00011000
          49 328 -43 callgsubr
        </CharString>
        <CharString name="ahookabove">
          -61 callsubr
          65 -21 216 -20 -107 callsubr
          hintmask 00011000
          99 441 -102 callsubr
        </CharString>
        <CharString name="amacron">
          -61 callsubr
          120 63 -107 callsubr
          hintmask 00010000
          167 380 -56 callsubr
        </CharString>
        <CharString name="ampersand">
          741 -21 62 303 62 249 60 hstem
          264 76 132 70 vstem
          685 -5 rmoveto
          14 66 rlineto
          -14 -42 -44 -6 -29 hhcurveto
          -14 -40 0 39 -41 hvcurveto
          128 101 75 117 43 91 -58 17 rcurveline
          -60 -125 -76 -94 -89 -65 -9 13 -77 121 -20 88 115 86 67 66 14 64 rrcurveto
          73 16 -30 82 -82 hhcurveto
          -83 -72 -89 -108 -23 hvcurveto
          -18 -87 13 -77 1 -5 -95 -72 rcurveline
          -33 -25 -49 -37 -15 -70 rrcurveto
          -87 -19 57 -79 107 hhcurveto
          31 78 4 54 97 hvcurveto
          -53 58 54 -5 35 hhcurveto
          10 43 0 16 62 hvcurveto
          -213 566 rmoveto
          -12 -57 -61 -49 -64 -52 -8 59 6 57 7 33 rrcurveto
          73 16 44 30 33 hhcurveto
          51 -6 -69 -25 -6 hvcurveto
          -88 -481 rmoveto
          -18 -34 -60 -21 -59 hhcurveto
          -72 -20 61 49 10 hvcurveto
          12 56 30 22 86 62 31 -96 45 -72 31 -43 rrcurveto
          endchar
        </CharString>
        <CharString name="anglearc">
          762 -56 -21 654 -20 hstemhm
          545 36 20 36 -28 36 hintmask 00010000
          711 18 rmoveto
          2 8 -4 6 -7 3 -127 52 rcurveline
          30 52 20 55 12 56 rrcurveto
          hintmask 11101000
          12 56 3 55 -7 52 149 52 rcurveline
          7 3 7 6 1 8 3 13 -11 8 -12 -4 -149 -52 rcurveline
          -10 44 -15 42 -22 37 rrcurveto
          4 -3 -4 3 -5 hhcurveto
          -10 -10 -8 -10 -2 hvcurveto
          -1 -4 0 -4 2 -3 20 -35 15 -38 8 -41 -480 -167 rcurveline
          -8 -3 -6 -6 -2 -8 -2 -8 4 -6 7 -3 409 -167 rcurveline
          -26 -41 -31 -38 -34 -35 -4 -3 -2 -4 -1 -4 rrcurveto
          -10 -2 7 -8 10 hhcurveto
          5 5 3 4 5 hvcurveto
          38 37 33 42 28 44 127 -52 rcurveline
          10 -4 15 8 3 13 rrcurveto
          -110 232 rmoveto
          -11 -52 -19 -50 -26 -49 -369 151 rcurveline
          433 151 rlineto
          hintmask 00010000
          6 -49 -3 -50 -11 -52 rrcurveto
          endchar
        </CharString>
        <CharString name="angleleft">
          381 68 callsubr
          21 -20 hstemhm
          hintmask 00100000
          277 -230 rmoveto
          6 -1 5 5 vvcurveto
          -72 440 -1 7 -4 10 1 8 rlinecurve
          1 3 3 4 3 4 191 325 rcurveline
          78 133 2 5 3 5 1 5 rlinecurve
          9 -6 7 -8 vhcurveto
          hintmask 11000000
          -6 -1 -9 -2 -6 -8 -4 -8 rlinecurve
          -265 -451 -5 -9 -10 -12 -2 -10 rlinecurve
          -2 -9 4 -10 1 -8 38 -235 rcurveline
          31 -187 4 -26 rlineto
          -11 2 2 -14 14 hhcurveto
          10 10 11 9 2 hvcurveto
          endchar
        </CharString>
        <CharString name="angleright">
          381 68 callsubr
          21 -20 hstemhm
          hintmask 00100000
          325 251 rmoveto
          2 10 -3 10 -2 9 -72 447 rcurveline
          11 -2 -2 13 -14 hhcurveto
          hintmask 11000000
          -5 -1 -9 -2 -7 -8 -2 -9 rlinecurve
          -5 1 -5 1 -5 vhcurveto
          31 -189 31 -193 10 -57 1 -8 4 -10 -2 -9 rlinecurve
          -3 -3 -4 -3 -4 vhcurveto
          -264 -449 -4 -7 -6 -8 -1 -7 rlinecurve
          -11 -3 9 -7 10 hhcurveto
          11 1 7 10 5 9 97 166 rcurveline
          130 220 38 64 5 9 9 12 2 10 rlinecurve
          endchar
        </CharString>
        <CharString name="aogonek">
          469 -10 60 351 58 hstem
          397 -58 callsubr
          rrcurveto
          11 hlineto
          62 293 rlineto
          96 21 -54 70 -93 hhcurveto
          -60 -48 -14 -28 -55 hvcurveto
          -8 -66 rlineto
          32 50 50 18 58 hhcurveto
          46 32 -37 -73 -15 hvcurveto
          -9 -41 -45 -2 -61 -3 -64 -20 rlinecurve
          -72 -23 -47 -37 -11 -50 rrcurveto
          -44 -9 9 -81 85 hhcurveto
          55 73 16 31 44 hvcurveto
          -8 -37 -56 -28 -50 -48 -8 -51 rlinecurve
          -54 callsubr
          -44 321 rmoveto
          -4 -20 -5 -24 -37 -20 rrcurveto
          -17 -31 -34 -3 -15 hhcurveto
          -54 -31 29 37 8 hvcurveto
          68 14 142 15 61 hhcurveto
          endchar
        </CharString>
        <CharString name="aogonekacute">
          469 -10 60 351 58 69 callgsubr
          hintmask 11000000
          397 -58 callsubr
          rrcurveto
          11 hlineto
          62 293 rlineto
          96 21 -54 70 -93 hhcurveto
          -60 -48 -14 -28 -55 hvcurveto
          -8 -66 rlineto
          32 50 50 18 58 hhcurveto
          46 32 -37 -73 -15 hvcurveto
          -9 -41 -45 -2 -61 -3 -64 -20 rlinecurve
          -72 -23 -47 -37 -11 -50 rrcurveto
          -44 -9 9 -81 85 hhcurveto
          55 73 16 31 44 hvcurveto
          -8 -37 -56 -28 -50 -48 -8 -51 rlinecurve
          -54 callsubr
          -44 321 rmoveto
          -4 -20 -5 -24 -37 -20 rrcurveto
          -17 -31 -34 -3 -15 hhcurveto
          -54 -31 29 37 8 hvcurveto
          68 14 142 15 61 hhcurveto
          hintmask 00110000
          153 495 -75 callgsubr
        </CharString>
        <CharString name="aring">
          -61 callsubr
          58 47 74 47 -107 callsubr
          hintmask 00011000
          44 402 rmoveto
          -31 -7 -31 -28 callgsubr
          6 32 -91 callgsubr
          endchar
        </CharString>
        <CharString name="aringacute">
          -61 callsubr
          58 47 74 47 157 -20 -107 callsubr
          hintmask 00011100
          44 402 rmoveto
          -31 -7 -31 -28 callgsubr
          6 32 -91 callgsubr
          85 242 -93 callgsubr
        </CharString>
        <CharString name="asciicircum">
          556 583 -21 123 59 hstem
          119 566 vstem
          685 584 rmoveto
          -249 160 -317 -160 6 -22 298 123 245 -123 rlineto
          endchar
        </CharString>
        <CharString name="asciitilde">
          556 193 115 callsubr
          617 290 2 callsubr
          26 -17 -20 30 47 callsubr
        </CharString>
        <CharString name="asciitilde.low">
          556 0 115 callsubr
          576 97 2 callsubr
          25 -17 -20 31 47 callsubr
        </CharString>
        <CharString name="asterisk">
          490 327 88 callgsubr
          hstem
          283 67 13 67 vstem
          518 435 rmoveto
          3 10 -1 12 -16 10 -100 61 rcurveline
          126 61 20 10 6 12 2 10 rlinecurve
          17 4 -11 17 -19 hhcurveto
          -10 -5 -3 -6 -10 hvcurveto
          -115 -71 38 141 rlineto
          23 5 -16 11 -15 hhcurveto
          -18 -18 -12 -22 -5 hvcurveto
          -22 -141 -84 71 rlineto
          9 -10 -9 0 -3 hhcurveto
          -19 -17 -17 -17 -4 hvcurveto
          -2 -10 0 -12 16 -10 100 -61 rcurveline
          -126 -61 -20 -10 -5 -12 -3 -10 rlinecurve
          -17 -3 10 -17 19 hhcurveto
          10 6 3 6 9 hvcurveto
          115 71 -38 -141 rlineto
          -23 -5 16 -11 15 hhcurveto
          18 19 12 22 4 hvcurveto
          1 9 21 132 84 -71 rlineto
          -9 10 9 0 3 hhcurveto
          19 18 17 17 3 hvcurveto
          endchar
        </CharString>
        <CharString name="asterisk.math">
          489 50 88 callgsubr
          hstemhm
          180 68 -1 52 -38 52 -31 52 -38 52 -45 68 43 52 hintmask 0000001010000000
          459 159 rmoveto
          3 16 -7 9 -14 8 -65 40 rcurveline
          -9 6 -10 7 -10 5 1 2 rcurveline
          12 5 12 7 12 6 82 40 rcurveline
          18 8 10 8 4 17 rrcurveto
          21 4 -13 14 -21 hhcurveto
          -15 -1 -15 -13 -13 -8 rrcurveto
          hintmask 0000010000000000
          -30 -19 -31 -20 -30 -18 rrcurveto
          hintmask 0100000100000000
          12 46 16 48 9 46 rrcurveto
          15 3 -6 19 -23 hhcurveto
          -18 -19 -14 -22 -5 hvcurveto
          hintmask 0000001000000000
          -4 -16 -1 -16 -2 -15 rrcurveto
          hintmask 0010010000000000
          -14 -91 -24 18 -21 20 -22 19 rlinecurve
          -11 8 -9 13 -15 1 rrcurveto
          -21 -19 -14 -21 -4 hvcurveto
          -3 -16 7 -9 14 -8 64 -40 rcurveline
          10 -6 10 -7 10 -5 rrcurveto
          hintmask 0001000000000000
          -1 -2 -12 -5 -12 -7 -13 -6 rlinecurve
          -81 -40 -18 -8 -11 -8 -3 -17 rlinecurve
          -21 -5 13 -14 21 hhcurveto
          16 1 14 13 14 8 rrcurveto
          hintmask 1000100000000000
          30 19 30 20 31 18 -13 -46 -15 -48 -10 -46 rrcurveto
          -15 -3 7 -19 23 hhcurveto
          18 19 14 22 5 hvcurveto
          hintmask 0001000000000000
          3 16 2 16 2 15 rrcurveto
          hintmask 0000100010000000
          14 91 23 -18 22 -20 22 -19 rlinecurve
          10 -8 10 -13 14 -1 rrcurveto
          21 19 14 21 5 hvcurveto
          endchar
        </CharString>
        <CharString name="at">
          653 -10 60 71 60 332 60 71 60 hstem
          128 75 105 75 71 75 vstem
          616 85 rmoveto
          -47 hlineto
          -15 -2 0 -4 -9 hvcurveto
          -9 -23 -57 -22 -69 hhcurveto
          -144 -82 134 163 35 hvcurveto
          175 37 149 122 126 hhcurveto
          50 39 -26 -69 11 hvcurveto
          1 -2 -30 23 -45 hhcurveto
          -96 -107 -96 -130 -27 hvcurveto
          -130 -28 66 -96 96 hhcurveto
          66 128 57 184 39 hvcurveto
          86 18 54 256 -218 hhcurveto
          -172 -186 -153 -204 -43 hvcurveto
          -202 -43 118 -155 175 hhcurveto
          100 87 49 46 51 hvcurveto
          -19 262 rmoveto
          -95 -20 -66 -71 -57 hhcurveto
          -57 -35 70 96 21 hvcurveto
          95 20 65 71 57 hhcurveto
          57 35 -70 -96 -20 hvcurveto
          endchar
        </CharString>
        <CharString name="atilde">
          -61 callsubr
          93 60 -2 60 -107 callsubr
          hintmask 00001000
          172 471 -75 callsubr
          -55 callgsubr
          8 hvcurveto
          hintmask 00010000
          -21 25 17 -12 25 hhcurveto
          hintmask 00001000
          12 callgsubr
        </CharString>
        <CharString name="b">
          502 -10 59 callsubr
          78 76 28 76 -32 74 137 76 hintmask 11110110
          72 callgsubr
          63 296 rlineto
          -74 hlineto
          -148 -694 64 callgsubr
          hintmask 10001000
          70 callsubr
          hintmask 01000110
          44 207 rlineto
          89 callsubr
        </CharString>
        <CharString name="backslash">
          500 68 callsubr
          hstem
          394 -230 rmoveto
          0 1 5 -2 13 vhcurveto
          -140 940 rlineto
          11 -2 -2 11 -14 hhcurveto
          -11 -10 -9 -11 -3 hvcurveto
          0 -1 -5 2 -13 vhcurveto
          141 -940 rlineto
          -11 1 2 -11 14 hhcurveto
          11 11 9 11 2 hvcurveto
          endchar
        </CharString>
        <CharString name="baht">
          650 0 56 275 60 243 60 -56 56 hstemhm
          273 62 25 62 25 62 cntrmask 00001110
          hintmask 10011110
          635 188 rmoveto
          19 88 -72 71 -100 16 124 32 59 67 13 58 18 85 -75 79 -126 9 14 63 rcurveline
          -62 109 callgsubr
          -193 -82 callsubr
          193 109 callgsubr
          62 hlineto
          13 62 rlineto
          3 hlineto
          141 122 90 98 21 hvcurveto
          -35 331 rmoveto
          -12 -59 -71 -50 -85 -15 rrcurveto
          hintmask 01101110
          51 239 79 -14 50 -46 -12 -55 rlinecurve
          -231 -128 rmoveto
          -112 hlineto
          hintmask 11011110
          53 247 rlineto
          112 hlineto
          134 -449 rmoveto
          -14 -65 -81 -58 -101 -9 58 271 rcurveline
          102 -13 49 -64 -13 -62 rrcurveto
          -258 -133 rmoveto
          -112 hlineto
          58 275 rlineto
          112 hlineto
          endchar
        </CharString>
        <CharString name="bar">
          278 68 callsubr
          hstem
          73 40 158 40 vstem
          113 -217 rmoveto
          -6 callgsubr
          endchar
        </CharString>
        <CharString name="bigcircle">
          694 0 35 624 35 hstem
          74 35 624 -90 callgsubr
          endchar
        </CharString>
        <CharString name="blanksymbol">
          502 -10 59 callsubr
          78 76 -52 76 4 76 -32 74 -33 74 96 76 hintmask 0100000100000000
          72 callgsubr
          30 142 113 88 -33 45 -62 -49 rlineto
          hintmask 0010101000000000
          15 70 rlineto
          -74 hlineto
          -30 -139 -94 -73 33 -45 43 33 rlineto
          hintmask 1001010010000000
          -100 -470 64 callgsubr
          70 callsubr
          hintmask 0000001000000000
          44 207 rlineto
          hintmask 0100000110000000
          89 callsubr
        </CharString>
        <CharString name="braceleft">
          500 -229 -21 487 24 489 -20 hstem
          376 -239 rmoveto
          2 10 -6 0 -9 1 -78 5 -28 45 -1 36 -1 11 1 2 7 35 32 150 rcurveline
          6 30 11 51 10 vvcurveto
          1 66 -58 26 -37 11 125 34 15 71 6 28 39 180 rcurveline
          15 72 5 22 29 25 22 18 28 24 71 4 5 1 5 4 1 6 rrcurveto
          11 2 -8 0 -12 hhcurveto
          -100 -99 -51 -72 -18 hvcurveto
          -39 -183 -20 -94 -3 -16 -32 -28 rlinecurve
          -17 -14 -33 -27 -64 -4 rrcurveto
          -7 -7 -1 -10 -2 hvcurveto
          -2 -10 6 0 10 -1 42 -3 81 -21 -22 -100 -42 -198 rcurveline
          -12 -58 -7 -34 44 -37 rrcurveto
          -30 37 63 -8 31 hhcurveto
          12 8 0 11 2 hvcurveto
          endchar
        </CharString>
        <CharString name="braceright">
          500 -229 -21 510 -21 511 -20 hstem
          243 67 vstem
          480 250 rmoveto
          2 10 -6 0 -10 1 -42 3 -80 21 21 100 42 198 rcurveline
          12 58 7 34 -44 37 rrcurveto
          29 -36 -63 9 -32 hhcurveto
          -10 -10 0 -11 -2 hvcurveto
          -2 -10 6 0 10 -1 78 -5 27 -45 1 -36 1 -11 0 -2 -8 -35 -32 -150 rcurveline
          -6 -30 -11 -51 -10 vvcurveto
          -1 -66 58 -26 37 -11 -125 -34 -15 -71 -6 -28 -38 -180 rcurveline
          -16 -72 -4 -22 -30 -25 -22 -18 -28 -24 -70 -4 -6 -1 -5 -4 -1 -6 rrcurveto
          -11 -2 10 0 10 hhcurveto
          100 100 51 72 17 hvcurveto
          39 183 20 94 3 16 32 28 rlinecurve
          17 14 33 27 64 4 rrcurveto
          7 7 1 10 2 hvcurveto
          endchar
        </CharString>
        <CharString name="bracketleft">
          283 -250 60 880 60 hstem
          208 -250 rmoveto
          13 60 rlineto
          -91 hlineto
          187 880 rlineto
          91 hlineto
          12 60 rlineto
          -162 hlineto
          -212 -1000 rlineto
          endchar
        </CharString>
        <CharString name="bracketright">
          283 -250 60 880 60 hstem
          130 -250 rmoveto
          212 1000 rlineto
          -162 hlineto
          -12 -60 rlineto
          91 hlineto
          -187 -880 rlineto
          -91 hlineto
          -13 -60 rlineto
          endchar
        </CharString>
        <CharString name="breve">
          114 callgsubr
          113 24 callgsubr
          endchar
        </CharString>
        <CharString name="breve.cap">
          490 495 65 113 -20 hstem
          29 callgsubr
          endchar
        </CharString>
        <CharString name="breve.ts1">
          598 529 65 136 -20 hstem
          234 60 319 60 vstem
          673 730 rmoveto
          -60 hlineto
          -84 -18 -95 -52 -76 hhcurveto
          -75 -73 50 86 18 hvcurveto
          -60 hlineto
          -113 -24 81 -88 119 hhcurveto
          102 134 71 130 27 hvcurveto
          endchar
        </CharString>
        <CharString name="brokenbar">
          278 68 callsubr
          hstemhm
          73 40 39 40 0 40 39 40 hintmask 01001100
          232 343 rmoveto
          79 374 rlineto
          14 3 4 19 -20 hhcurveto
          -20 -4 -19 -14 -3 hvcurveto
          -79 -374 rlineto
          -15 -3 2 -16 14 hhcurveto
          14 10 16 15 3 hvcurveto
          -119 -560 rmoveto
          79 374 rlineto
          15 4 -3 16 -14 hhcurveto
          hintmask 10110000
          -14 -9 -16 -15 -4 hvcurveto
          -79 -374 rlineto
          -14 -3 -4 -19 20 hhcurveto
          20 4 19 14 3 hvcurveto
          endchar
        </CharString>
        <CharString name="bullet">
          762 128 280 hstemhm
          268 280 -220 280 hintmask 10100000
          105 callgsubr
          hintmask 11000000
          -60 -280 rlineto
          endchar
        </CharString>
        <CharString name="c">
          46 callgsubr
          hstem
          82 76 101 76 vstem
          -89 callsubr
          endchar
        </CharString>
        <CharString name="cacute">
          46 callgsubr
          69 callgsubr
          82 76 101 76 hintmask 11001100
          -89 callsubr
          hintmask 00110000
          108 652 -75 callgsubr
        </CharString>
        <CharString name="caron">
          490 76 callgsubr
          548 697 -78 callsubr
        </CharString>
        <CharString name="caron.cap">
          95 callgsubr
          134 -20 hstem
          533 619 -81 callgsubr
        </CharString>
        <CharString name="caron.ts1">
          598 511 -21 261 -20 hstem
          626 751 rmoveto
          -60 -2 -14 -15 -134 -175 -69 190 -16 2 rlineto
          -42 hlineto
          14 -67 27 -62 19 -65 rrcurveto
          -31 10 6 -36 14 hhcurveto
          43 hlineto
          15 4 15 9 8 hvcurveto
          37 53 42 53 38 52 19 26 21 26 18 27 rrcurveto
          endchar
        </CharString>
        <CharString name="ccaron">
          46 callgsubr
          87 -21 172 -20 hstemhm
          82 76 101 76 hintmask 11001100
          -89 callsubr
          hintmask 00110000
          126 655 -78 callsubr
        </CharString>
        <CharString name="ccedilla">
          46 callgsubr
          hstem
          82 76 101 76 vstem
          -89 callsubr
          -140 -86 6 callgsubr
          endchar
        </CharString>
        <CharString name="ccircumflex">
          46 callgsubr
          87 -21 172 -20 hstemhm
          82 76 101 76 hintmask 11001100
          -89 callsubr
          hintmask 00110000
          90 483 -89 callgsubr
          endchar
        </CharString>
        <CharString name="cdotaccent">
          46 callgsubr
          109 86 hstemhm
          82 76 101 76 -18 86 -68 86 hintmask 11011000
          -89 callsubr
          hintmask 00100010
          -13 526 -27 callgsubr
          hintmask 00100100
          -18 -86 rlineto
          endchar
        </CharString>
        <CharString name="cedilla">
          435 -170 -21 168 -20 hstem
          269 -23 6 callgsubr
          endchar
        </CharString>
        <CharString name="cedilla.dup">
          435 -170 -21 168 -20 hstem
          269 -23 6 callgsubr
          endchar
        </CharString>
        <CharString name="cent">
          435 -9 62 344 62 hstemhm
          82 76 0 62 -25 62 59 62 -24 62 hintmask 11000010
          416 42 rmoveto
          1 3 3 31 4 vvcurveto
          4 28 -47 -32 -47 -19 -49 -4 rlinecurve
          73 344 54 -3 22 -16 34 -26 rlinecurve
          26 65 -45 30 -30 10 -47 2 rlinecurve
          hintmask 10101100
          10 47 rlineto
          -62 hlineto
          -11 -51 -116 -22 -85 -108 -22 -102 rlinecurve
          -24 -114 53 -96 96 -19 -12 -56 rcurveline
          62 hlineto
          11 53 rlineto
          hintmask 00010010
          44 3 51 14 53 34 rrcurveto
          -196 16 rmoveto
          -55 20 -24 64 17 81 15 70 44 76 74 22 rrcurveto
          endchar
        </CharString>
        <CharString name="cent.oldstyle">
          46 callgsubr
          hstemhm
          82 76 -58 76 hintmask 11100000
          416 42 rmoveto
          1 3 3 31 4 vvcurveto
          4 28 rlineto
          -37 -54 -55 -19 -56 hhcurveto
          -13 -12 2 3 -10 hvcurveto
          166 335 31 -7 18 -14 25 -19 rlinecurve
          26 65 -27 17 -20 11 -22 6 rlinecurve
          27 55 rlineto
          -64 hlineto
          -24 -47 rlineto
          -11 hlineto
          -138 -104 -122 -114 -25 hvcurveto
          -18 -85 25 -74 53 -41 rrcurveto
          hintmask 10010000
          -42 -85 rlineto
          64 hlineto
          29 59 rlineto
          -5 16 18 -2 18 hhcurveto
          49 58 12 40 64 hvcurveto
          -88 355 rmoveto
          -152 -306 rlineto
          hintmask 01100000
          -22 31 -7 47 11 54 18 81 57 89 95 4 rrcurveto
          endchar
        </CharString>
        <CharString name="centigrade">
          843 -20 63 0 63 372 37 138 63 -58 37 hstemhm
          163 86 109 86 hintmask 01010010
          802 43 rmoveto
          5 21 -1 21 4 21 -27 -13 -25 -18 -28 -12 rrcurveto
          -17 -40 -43 -3 -40 hhcurveto
          -156 -33 181 124 26 hvcurveto
          27 128 100 153 140 22 rrcurveto
          1 9 8 1 8 hhcurveto
          53 48 -12 -29 40 hvcurveto
          6 -5 5 -5 7 -3 32 82 rcurveline
          21 -51 -56 14 -59 hhcurveto
          -198 -165 -182 -186 -40 hvcurveto
          hintmask 10101100
          -175 -37 75 -193 200 hhcurveto
          59 57 9 33 63 hvcurveto
          17 9 5 4 4 1 1 7 rlinecurve
          -459 543 rmoveto
          55 11 -31 54 -68 hhcurveto
          -9 hlineto
          -58 -8 -51 -47 -11 -54 rrcurveto
          -55 -12 32 -53 68 hhcurveto
          9 hlineto
          56 8 52 45 12 55 rrcurveto
          -37 hmoveto
          -38 -9 -40 -33 -38 hhcurveto
          -5 hlineto
          -34 3 -21 28 2 34 2 7 rcurveline
          38 8 40 33 38 hhcurveto
          5 hlineto
          34 -3 21 -28 -2 -34 rrcurveto
          endchar
        </CharString>
        <CharString name="circumflex">
          490 76 callgsubr
          512 525 -89 callgsubr
          endchar
        </CharString>
        <CharString name="circumflex.cap">
          95 callgsubr
          134 -20 hstem
          504 485 -76 callsubr
        </CharString>
        <CharString name="circumflex.dup">
          490 76 callgsubr
          512 525 -89 callgsubr
          endchar
        </CharString>
        <CharString name="colon">
          272 0 81 282 81 hstemhm
          95 81 -64 81 -21 81 -64 81 hintmask 01000100
          253 363 82 callgsubr
          hintmask 01001000
          -17 -81 rlineto
          4 -363 rmoveto
          hintmask 10010000
          26 callgsubr
          hintmask 10100000
          -17 -81 rlineto
          endchar
        </CharString>
        <CharString name="colonmonetary">
          110 callsubr
          67 62 125 62 96 callsubr
          -13 hlineto
          130 612 rlineto
          9 hlineto
          88 callsubr
          -11 hlineto
          15 72 rlineto
          -62 hlineto
          -17 -81 -156 -38 -131 -152 -36 -169 rlinecurve
          -36 -167 65 -153 141 -39 -17 -81 rcurveline
          62 hlineto
          16 72 rlineto
          12 hlineto
          78 42 11 45 80 hvcurveto
          -258 20 rmoveto
          -94 41 -32 124 27 127 29 136 90 117 104 39 rrcurveto
          endchar
        </CharString>
        <CharString name="comma">
          272 -104 -21 125 81 hstemhm
          95 81 -64 81 hintmask 01010000
          176 1 rmoveto
          17 80 rlineto
          -81 hlineto
          hintmask 11100000
          -17 -81 rlineto
          25 hlineto
          -52 103 callsubr
          endchar
        </CharString>
        <CharString name="copyleft">
          694 0 35 476 35 113 35 hstem
          74 35 624 -90 callgsubr
          -126 hmoveto
          127 27 -63 112 -121 hhcurveto
          -38 -37 -6 -17 -46 hvcurveto
          -1 -52 rlineto
          32 50 41 3 23 hhcurveto
          87 45 -90 -109 -23 hvcurveto
          -100 -21 -78 -98 -96 hhcurveto
          -52 -23 10 31 -35 hvcurveto
          -13 -45 rlineto
          -29 40 24 -7 50 hhcurveto
          124 109 113 125 27 hvcurveto
          endchar
        </CharString>
        <CharString name="copyright">
          694 0 35 476 35 113 35 hstem
          74 35 385 35 204 -90 callgsubr
          -210 -202 rmoveto
          6 45 rlineto
          -31 -47 -28 -10 -51 hhcurveto
          -96 -36 98 100 21 hvcurveto
          108 23 83 91 86 hhcurveto
          23 40 -3 -32 38 hvcurveto
          20 52 rlineto
          17 -40 -32 6 -39 hhcurveto
          -121 -110 -112 -127 -27 hvcurveto
          -125 -27 60 -113 124 hhcurveto
          51 27 7 29 52 hvcurveto
          endchar
        </CharString>
        <CharString name="copyright.alt">
          666 -111 35 63 35 361 35 102 35 hstem
          47 35 122 55 199 35 185 35 vstem
          713 222 rmoveto
          205 44 -101 128 -205 hhcurveto
          -204 -156 -128 -205 -44 hvcurveto
          -204 -43 101 -129 204 hhcurveto
          205 156 129 204 43 hvcurveto
          -35 hmoveto
          -183 -39 -139 -115 -183 hhcurveto
          -183 -91 115 183 39 hvcurveto
          183 39 140 115 183 hhcurveto
          183 90 -115 -183 -39 hvcurveto
          -190 -200 rmoveto
          5 45 rlineto
          -31 -46 -27 -10 -51 hhcurveto
          -95 -36 97 99 21 hvcurveto
          107 23 82 89 85 hhcurveto
          23 39 -3 -32 36 hvcurveto
          21 52 rlineto
          17 -39 -33 6 -38 hhcurveto
          -119 -108 -110 -126 -27 hvcurveto
          -123 -26 59 -112 122 hhcurveto
          50 28 7 28 51 hvcurveto
          endchar
        </CharString>
        <CharString name="currency">
          762 18 36 8 36 304 36 7 36 hstem
          245 36 305 36 vstem
          714 480 rmoveto
          -11 13 -15 -12 -12 -10 -92 -75 rcurveline
          26 -26 -39 16 -45 hhcurveto
          -46 -45 -16 -27 -38 hvcurveto
          -60 76 -8 10 -9 12 -16 -12 rlinecurve
          -16 -14 10 -12 8 -10 59 -76 rcurveline
          -33 -32 -25 -42 -10 -45 -9 -45 8 -42 19 -33 -93 -76 rcurveline
          -12 -10 -14 -12 9 -13 11 -13 15 12 12 10 92 76 rcurveline
          -26 28 38 -16 45 hhcurveto
          45 45 16 26 38 hvcurveto
          60 -76 8 -10 9 -12 16 12 rlinecurve
          16 14 -10 12 -8 10 -59 76 rcurveline
          34 33 24 41 10 46 10 45 -7 42 -21 32 93 76 rcurveline
          12 10 14 12 -9 13 rrcurveto
          -128 -230 rmoveto
          -84 -18 -82 -68 -84 hhcurveto
          -84 -55 68 84 18 hvcurveto
          84 18 83 68 84 hhcurveto
          84 54 -68 -84 -18 hvcurveto
          endchar
        </CharString>
        <CharString name="cwm">
          0 endchar
        </CharString>
        <CharString name="cwmascender">
          0 endchar
        </CharString>
        <CharString name="cwmcapital">
          0 endchar
        </CharString>
        <CharString name="d">
          502 -10 118 callsubr
          189 76 -65 76 63 74 hintmask 11110110
          -45 callsubr
          hintmask 11011000
          -11 -51 rlineto
          25 118 -38 callsubr
          endchar
        </CharString>
        <CharString name="dagger">
          444 -195 -21 613 67 241 -20 hstemhm
          234 67 -43 67 -24 67 -39 67 hintmask 01101010
          478 430 73 callgsubr
          5 20 7 28 25 65 12 37 14 37 8 37 rrcurveto
          8 2 7 33 -33 hhcurveto
          -34 -7 -32 -9 -2 hvcurveto
          -7 -35 -4 -58 -1 -24 -3 -46 -3 -32 -5 -29 32 callgsubr
          hintmask 10010000
          4 1 26 7 20 2 -7 -25 -7 -20 -10 -25 -30 -72 -1 -8 -12 -53 -32 -151 -24 -168 -12 -95 rrcurveto
          -14 -2 0 -6 11 hhcurveto
          12 1 5 13 5 hvcurveto
          17 50 14 53 13 51 17 63 27 103 20 96 12 54 1 7 1 71 rrcurveto
          23 2 21 3 27 vhcurveto
          hintmask 01000100
          72 callsubr
          endchar
        </CharString>
        <CharString name="daggerdbl">
          444 -184 -21 194 66 389 67 194 -20 hstem
          268 67 -5 67 -5 67 cntrmask 00001110
          488 477 73 callgsubr
          7 30 14 34 6 14 13 33 16 40 6 28 rrcurveto
          7 1 7 32 -34 hhcurveto
          -10 -24 -3 -36 -7 hvcurveto
          -5 -20 -2 -29 -35 vvcurveto
          -2 -41 -1 -28 -4 -26 32 callgsubr
          4 1 26 7 20 2 -7 -30 -14 -34 -6 -14 -13 -33 -16 -40 -6 -28 rrcurveto
          -35 -7 21 -4 11 hhcurveto
          30 9 25 14 3 hvcurveto
          5 20 2 29 35 vvcurveto
          2 41 1 28 4 26 72 callsubr
          -96 -455 rmoveto
          17 3 -8 16 -21 hhcurveto
          -20 -18 -3 -8 -33 hvcurveto
          -27 -8 -8 -2 -22 -2 8 28 9 24 16 42 23 56 5 23 1 5 rrcurveto
          35 7 -21 4 -11 hhcurveto
          -30 -9 -25 -14 -3 hvcurveto
          -7 -29 -1 -43 -1 -34 1 -11 -2 -31 -4 -30 -23 2 -3 1 -37 11 rrcurveto
          9 -30 -17 0 -7 hhcurveto
          -25 -14 -20 -13 -2 hvcurveto
          -15 -4 7 -18 24 hhcurveto
          24 25 6 4 12 hvcurveto
          41 10 7 1 18 2 -8 -28 -10 -24 -15 -42 -23 -56 -5 -23 -1 -5 rrcurveto
          -35 -8 21 -4 11 hhcurveto
          30 10 25 14 3 hvcurveto
          6 29 1 43 1 34 rrcurveto
          11 1 31 5 30 vhcurveto
          22 -2 3 -1 38 -11 rrcurveto
          -9 31 18 0 5 hhcurveto
          24 13 18 15 4 hvcurveto
          endchar
        </CharString>
        <CharString name="dblbracketleft">
          394 -249 37 926 37 hstem
          193 37 160 37 vstem
          319 -249 rmoveto
          8 37 rlineto
          -97 hlineto
          197 926 rlineto
          97 hlineto
          8 37 rlineto
          -256 hlineto
          -213 -1000 rlineto
          130 101 callsubr
        </CharString>
        <CharString name="dblbracketright">
          394 -249 37 926 37 hstem
          73 37 160 37 vstem
          224 -249 rmoveto
          213 1000 rlineto
          -255 hlineto
          -8 -37 rlineto
          96 hlineto
          -197 -926 rlineto
          -96 hlineto
          -8 -37 rlineto
          226 101 callsubr
        </CharString>
        <CharString name="dblgrave.ts1">
          489 563 -21 188 -20 hstem
          335 542 rmoveto
          97 callgsubr
          222 hmoveto
          97 callgsubr
          endchar
        </CharString>
        <CharString name="dblverticalbar">
          386 68 callsubr
          hstem
          73 40 68 40 50 40 68 40 vstem
          113 -217 rmoveto
          -6 callgsubr
          108 hmoveto
          -6 callgsubr
          endchar
        </CharString>
        <CharString name="dcaron">
          502 -10 60 344 60 76 -21 113 72 hstemhm
          82 76 189 76 -65 76 63 74 hintmask 11011011
          -45 callsubr
          hintmask 11111100
          -11 -51 rlineto
          25 118 -38 callsubr
          245 281 -5 callgsubr
        </CharString>
        <CharString name="dcroat">
          502 -10 60 344 60 84 62 94 -20 hstem
          255 74 29 76 29 74 cntrmask 00001110
          613 538 rmoveto
          14 62 -41 callsubr
          20 94 rlineto
          -74 hlineto
          -20 -94 rlineto
          -148 hlineto
          -14 -62 rlineto
          148 hlineto
          -29 -136 rlineto
          38 -37 -50 14 -43 hhcurveto
          -95 -99 -102 -130 -28 hvcurveto
          -129 -27 52 -103 95 hhcurveto
          37 58 12 49 61 hvcurveto
          -11 -51 rlineto
          76 hlineto
          114 538 rlineto
          -165 -420 -38 callsubr
          endchar
        </CharString>
        <CharString name="ddotbelow">
          502 -200 86 104 118 callsubr
          7 86 -67 86 77 76 -65 76 63 74 hintmask 0111100011000000
          -45 callsubr
          hintmask 0110100100000000
          -11 -51 rlineto
          25 118 -38 callsubr
          hintmask 1000001000000000
          -168 -541 27 callgsubr
        </CharString>
        <CharString name="degree">
          367 422 36 200 36 hstem
          167 36 200 36 vstem
          439 558 rmoveto
          76 16 -48 60 -75 hhcurveto
          -76 -73 -60 -76 -16 hvcurveto
          -75 -16 47 -61 76 hhcurveto
          75 74 61 75 16 hvcurveto
          -36 hmoveto
          -55 -12 -55 -45 -55 hhcurveto
          -56 -34 45 55 12 hvcurveto
          56 12 53 44 56 hhcurveto
          55 36 -44 -56 -12 hvcurveto
          endchar
        </CharString>
        <CharString name="diameter">
          762 -56 36 540 36 hstem
          128 36 540 36 vstem
          826 558 rmoveto
          10 2 -7 8 -10 hhcurveto
          -5 -4 -2 -3 -5 hvcurveto
          -111 -92 rlineto
          48 -44 -65 29 -78 hhcurveto
          -169 -166 -137 -169 -36 hvcurveto
          -16 -78 13 -71 37 -54 -113 -93 rcurveline
          -4 -4 -2 -4 -2 -5 rrcurveto
          -10 -2 7 -8 10 hhcurveto
          5 4 2 3 5 hvcurveto
          112 93 rlineto
          -48 44 65 -29 78 hhcurveto
          169 166 137 169 36 hvcurveto
          17 78 -14 71 -37 54 112 92 rcurveline
          4 4 3 4 1 5 rrcurveto
          -122 -308 rmoveto
          -149 -32 -146 -121 -149 hhcurveto
          -68 -57 25 42 -39 hvcurveto
          462 381 32 -48 12 -62 -15 -68 rlinecurve
          -49 203 rmoveto
          -462 -381 -31 48 -12 62 14 68 rlinecurve
          149 32 147 121 149 hhcurveto
          68 56 -25 -42 39 hvcurveto
          endchar
        </CharString>
        <CharString name="died">
          489 -6 -21 394 67 -65 67 194 -20 hstemhm
          200 77 7 77 -21 77 hintmask 00110010
          512 369 rmoveto
          15 67 rlineto
          -151 hlineto
          41 194 -8 callsubr
          hintmask 11001100
          -42 -196 rlineto
          -152 hlineto
          -14 -67 rlineto
          152 hlineto
          -84 -394 rlineto
          77 hlineto
          hintmask 00100100
          84 396 rlineto
          endchar
        </CharString>
        <CharString name="dieresis">
          490 572 78 53 callgsubr
          hintmask 10100000
          335 5 callgsubr
        </CharString>
        <CharString name="dieresis.cap">
          490 485 78 hstemhm
          226 8 callsubr
          hintmask 10100000
          303 485 -12 callsubr
          hintmask 11001000
          -62 callgsubr
          hintmask 10010000
          -17 -78 rlineto
          endchar
        </CharString>
        <CharString name="dieresis.dup">
          490 572 78 53 callgsubr
          hintmask 10100000
          335 5 callgsubr
        </CharString>
        <CharString name="dieresis.ts1">
          489 599 81 hstemhm
          236 81 -63 81 90 81 -63 81 hintmask 10100000
          317 599 rmoveto
          18 70 callgsubr
          hintmask 11001000
          -18 -81 rlineto
          270 hmoveto
          18 81 113 callsubr
          -18 -81 rlineto
          endchar
        </CharString>
        <CharString name="discount">
          489 1 118 -79 118 447 118 -89 118 -21 20 hstemhm
          212 118 -103 118 -83 118 hintmask 01101000
          588 731 rmoveto
          10 3 -4 10 -10 hhcurveto
          0 -4 0 -3 -1 vhcurveto
          -21 -6 -53 -92 -34 -47 -310 -447 rcurveline
          -87 -126 -3 -4 -3 -5 -1 -5 rlinecurve
          hintmask 10000000
          -9 -1 7 -8 9 hhcurveto
          2 hlineto
          hintmask 01101001
          17 3 15 28 5 8 268 386 rcurveline
          89 130 39 55 42 56 36 56 rlinecurve
          1 3 1 2 3 vvcurveto
          -168 -712 rmoveto
          16 73 rlineto
          hintmask 10010010
          17 3 -5 10 -18 hhcurveto
          -67 hlineto
          -4 -4 0 -1 -4 hvcurveto
          -7 -2 -7 -5 -3 -8 -17 -79 rcurveline
          -23 -5 15 0 13 hhcurveto
          63 hlineto
          14 12 4 14 5 hvcurveto
          -90 633 rmoveto
          15 72 rlineto
          17 4 -4 11 -19 hhcurveto
          hintmask 00010001
          -64 hlineto
          hintmask 00001010
          -4 -4 0 -1 -4 hvcurveto
          -14 -2 -6 -11 -3 -12 rrcurveto
          hintmask 00010100
          -15 -70 rlineto
          -18 -3 10 -4 13 hhcurveto
          67 hlineto
          13 12 2 16 6 hvcurveto
          endchar
        </CharString>
        <CharString name="divide">
          762 91 81 60 37 60 81 hstemhm
          359 81 -63 81 -48 81 -64 81 cntrmask 11100000
          hintmask 11100010
          760 250 0 callgsubr
          -269 79 82 callgsubr
          hintmask 11100100
          -17 -81 rlineto
          30 -238 rmoveto
          hintmask 11101000
          18 70 callgsubr
          hintmask 11110000
          -18 -81 rlineto
          endchar
        </CharString>
        <CharString name="divorced">
          489 -92 -21 141 70 306 70 141 -20 hstemhm
          -14 74 10 70 0 74 -32 77 78 77 182 69 -65 69 0 69 hintmask 0110110000000000
          214 249 rmoveto
          101 21 -37 124 -116 -4 -4 -1 -4 hhcurveto
          -115 -13 -78 -110 -21 -99 rrcurveto
          -99 -21 37 -124 114 hhcurveto
          hintmask 0111001011010000
          116 90 120 101 22 hvcurveto
          524 2 rmoveto
          100 22 -37 123 -113 -5 -4 -1 -5 hhcurveto
          -115 -14 -79 -107 -21 -100 rrcurveto
          -101 -22 39 -123 115 hhcurveto
          20 23 6 8 20 hvcurveto
          88 37 56 86 18 86 rrcurveto
          -479 -364 rmoveto
          155 728 -8 callsubr
          hintmask 1110110101000000
          -155 -728 rlineto
          -42 363 rmoveto
          -13 -63 -42 -83 -78 -6 rrcurveto
          -5 hlineto
          -75 -12 73 63 7 hvcurveto
          2 11 12 58 36 92 88 9 rlinecurve
          87 8 -85 -69 -15 hvcurveto
          529 -1 rmoveto
          -1 -5 -1 -6 -2 -5 rrcurveto
          -63 -19 -45 -71 -72 hhcurveto
          -79 -10 84 67 14 hvcurveto
          hintmask 0010000000100000
          66 14 43 88 89 hhcurveto
          77 4 -97 -58 -12 hvcurveto
          endchar
        </CharString>
        <CharString name="dlinebelow">
          502 -188 63 115 118 callsubr
          189 76 -65 76 63 74 hintmask 01111011
          -45 callsubr
          hintmask 01101100
          -11 -51 rlineto
          25 118 -38 callsubr
          hintmask 10000000
          -32 -529 -56 callsubr
        </CharString>
        <CharString name="dollar">
          490 -35 -21 47 65 583 65 46 -20 hstemhm
          204 58 -35 58 55 70 -58 58 -45 58 -48 58 hintmask 0000000100000000
          476 195 rmoveto
          15 68 -14 106 -118 29 51 243 rcurveline
          52 -4 40 -24 28 -30 24 62 rcurveline
          hintmask 0000000010000000
          1 4 -45 47 -87 7 rrcurveto
          hintmask 0001000001000000
          10 47 rlineto
          -58 hlineto
          hintmask 0100010010000000
          -10 -48 -100 -16 -83 -82 -19 -91 rlinecurve
          -9 -42 -5 -115 136 -32 -58 -270 rcurveline
          -79 7 -45 43 -20 23 -26 -68 rcurveline
          36 -32 49 -29 72 -7 rrcurveto
          hintmask 1110100100000000
          -10 -47 rlineto
          58 hlineto
          11 49 94 15 88 84 21 103 rlinecurve
          -172 218 rmoveto
          -63 16 -14 54 9 43 10 46 40 51 66 16 rrcurveto
          52 -456 rmoveto
          -13 -61 -48 -51 -57 -15 rrcurveto
          hintmask 0000001000000000
          54 253 57 -17 18 -57 -11 -52 rlinecurve
          endchar
        </CharString>
        <CharString name="dollar.oldstyle">
          598 -10 65 -54 -21 91 62 544 62 12 -20 hstemhm
          213 58 3 68 -24 58 -34 68 -33 58 47 58 hintmask 0001000000000000
          586 203 rmoveto
          1 3 17 84 -50 69 -68 31 rlinecurve
          -21 8 57 272 31 -5 30 -12 26 -14 rlinecurve
          12 -7 11 -10 14 -6 8 19 12 22 4 20 rrcurveto
          26 5 -134 31 -5 hhcurveto
          hintmask 0000100000100000
          4 17 rlineto
          -58 hlineto
          hintmask 0001000000000000
          -3 -12 rlineto
          -47 hlineto
          hintmask 0110111001000000
          3 12 rlineto
          -58 hlineto
          -5 -21 -30 -10 -78 -30 -77 -63 -17 -83 rlinecurve
          -1 -3 -17 -83 55 -62 67 -27 rlinecurve
          11 -4 9 -3 0 vvcurveto
          -64 -300 -30 8 -30 9 -27 14 rlinecurve
          -22 12 -17 15 -21 13 -8 -20 -12 -24 -4 -18 -3 -14 23 -8 15 -8 36 -21 42 -15 45 -7 -4 -18 rcurveline
          58 hlineto
          2 12 rlineto
          hintmask 1000000000000000
          -1 6 12 -1 6 hhcurveto
          10 4 1 1 9 hvcurveto
          hintmask 0101000100000000
          -2 -12 rlineto
          58 hlineto
          4 22 rlineto
          0 21 6 12 6 vhcurveto
          84 35 71 70 18 84 rrcurveto
          -176 211 rmoveto
          -44 12 53 251 rlineto
          47 hlineto
          hintmask 1000000010000000
          -155 -234 rmoveto
          -44 16 -39 40 12 57 11 52 59 38 48 17 rrcurveto
          158 -470 rmoveto
          -12 -55 -54 -49 -55 -19 52 246 rcurveline
          51 -20 29 -50 -11 -53 rrcurveto
          -182 -138 rmoveto
          -47 hlineto
          62 291 44 -12 rlineto
          endchar
        </CharString>
        <CharString name="dong">
          502 -62 62 hstem
          590 546 rmoveto
          13 59 rlineto
          -72 hlineto
          19 89 rlineto
          -70 hlineto
          -19 -89 rlineto
          -141 hlineto
          -13 -59 rlineto
          141 hlineto
          -27 -129 rlineto
          36 -37 -47 13 -40 hhcurveto
          -91 -95 -97 -123 -26 hvcurveto
          -123 -26 50 -98 90 hhcurveto
          35 56 12 46 58 hvcurveto
          -11 -48 rlineto
          72 hlineto
          109 511 rlineto
          -57 -608 rmoveto
          13 62 rlineto
          -441 109 callgsubr
          341 209 rmoveto
          -41 -31 -39 -24 -42 hhcurveto
          -58 -59 45 118 25 hvcurveto
          126 27 89 38 55 hhcurveto
          37 27 -19 -31 14 hvcurveto
          endchar
        </CharString>
        <CharString name="dotaccent">
          272 568 86 hstemhm
          214 86 -68 86 hintmask 10100000
          300 568 -27 callgsubr
          hintmask 11000000
          -18 -86 rlineto
          endchar
        </CharString>
        <CharString name="dotaccent.alt">
          272 526 86 hstemhm
          205 86 -68 86 hintmask 10100000
          291 526 -27 callgsubr
          hintmask 11000000
          -18 -86 rlineto
          endchar
        </CharString>
        <CharString name="dotaccent.cap">
          272 485 86 hstemhm
          196 86 -68 86 hintmask 10100000
          282 485 -27 callgsubr
          hintmask 11000000
          -18 -86 rlineto
          endchar
        </CharString>
        <CharString name="dotlessi">
          1 callgsubr
          hstem
          78 74 20 74 vstem
          -57 callgsubr
          endchar
        </CharString>
        <CharString name="dotlessj">
          42 callgsubr
          hstem
          199 74 vstem
          -69 callgsubr
          endchar
        </CharString>
        <CharString name="e">
          -50 callgsubr
          hstem
          -105 callgsubr
          endchar
        </CharString>
        <CharString name="eacute">
          -50 callgsubr
          89 -21 167 -20 -102 callgsubr
          hintmask 00011000
          96 415 -75 callgsubr
        </CharString>
        <CharString name="ebreve">
          -50 callgsubr
          63 65 113 -20 -102 callgsubr
          hintmask 00011000
          125 421 -98 callsubr
          endchar
        </CharString>
        <CharString name="ecaron">
          -50 callgsubr
          87 -21 172 -20 -102 callgsubr
          hintmask 00011000
          114 418 -78 callsubr
        </CharString>
        <CharString name="ecircumflex">
          -50 callgsubr
          87 -21 172 -20 -102 callgsubr
          hintmask 00011000
          78 246 -89 callgsubr
          endchar
        </CharString>
        <CharString name="ecircumflexacute">
          -50 callgsubr
          87 -21 291 -44 callsubr
          107 291 10 callsubr
        </CharString>
        <CharString name="ecircumflexdotbelow">
          435 -200 86 104 60 175 54 120 60 87 -21 172 -20 hstemhm
          132 86 -67 86 hintmask 01111100
          -105 callgsubr
          78 246 -89 callgsubr
          hintmask 10000001
          -208 -725 -64 callgsubr
          hintmask 10000010
          -26 callgsubr
        </CharString>
        <CharString name="ecircumflexgrave">
          -50 callgsubr
          87 -21 134 -44 callsubr
          82 169 rmoveto
          -89 hlineto
          -172 122 rlineto
          111 hlineto
          endchar
        </CharString>
        <CharString name="ecircumflexhookabove">
          -50 callgsubr
          87 -21 365 -44 callsubr
          153 286 -60 callgsubr
          -8 -40 -5 -20 rcurveline
          26 hlineto
          1 hlineto
          5 20 5 24 19 14 37 21 rlinecurve
          7 3 3 2 4 3 19 11 14 19 4 20 rrcurveto
          endchar
        </CharString>
        <CharString name="ecircumflextilde">
          -50 callgsubr
          87 -21 189 60 -2 60 -102 callgsubr
          hintmask 00010100
          56 callgsubr
          131 307 rmoveto
          -60 hlineto
          hintmask 00001000
          -26 -6 -15 -32 -29 hhcurveto
          -23 -22 -39 callsubr
        </CharString>
        <CharString name="edblgrave">
          -50 callgsubr
          89 -21 167 -20 -102 callgsubr
          hintmask 00011000
          62 248 rmoveto
          -86 callsubr
        </CharString>
        <CharString name="edieresis">
          -50 callgsubr
          113 78 hstemhm
          231 -16 callgsubr
          hintmask 11100000
          -105 callgsubr
          hintmask 00010100
          -99 293 rmoveto
          16 78 -8 callsubr
          hintmask 00011001
          -57 callsubr
          hintmask 00010010
          -16 -78 rlineto
          endchar
        </CharString>
        <CharString name="edotaccent">
          -50 callgsubr
          109 86 hstemhm
          296 86 -68 86 hintmask 11100000
          -105 callgsubr
          hintmask 00010100
          -25 289 -27 callgsubr
          hintmask 00011000
          -18 -86 rlineto
          endchar
        </CharString>
        <CharString name="edotbelow">
          435 -200 86 104 60 175 54 120 60 hstemhm
          132 86 -67 86 hintmask 01110000
          -105 callgsubr
          hintmask 10000100
          -189 -479 -31 callgsubr
        </CharString>
        <CharString name="egrave">
          -50 callgsubr
          89 -21 167 -20 -102 callgsubr
          hintmask 00011000
          -8 248 -43 callgsubr
        </CharString>
        <CharString name="ehookabove">
          -50 callgsubr
          65 -21 216 -20 -102 callgsubr
          hintmask 00011000
          42 361 -102 callsubr
        </CharString>
        <CharString name="eight">
          490 -21 37 callsubr
          hstem
          79 79 3 79 167 79 vstem
          486 -47 callgsubr
          -71 callgsubr
        </CharString>
        <CharString name="eight.oldstyle">
          553 -21 37 callsubr
          hstemhm
          111 82 -3 82 167 79 hintmask 00110000
          518 -47 callgsubr
          hintmask 11101100
          -71 callgsubr
        </CharString>
        <CharString name="eight.prop">
          553 -21 37 callsubr
          hstem
          111 79 3 79 167 79 vstem
          518 -47 callgsubr
          -71 callgsubr
        </CharString>
        <CharString name="eight.taboldstyle">
          490 -21 37 callsubr
          hstemhm
          79 82 -3 82 167 79 hintmask 00110000
          486 -47 callgsubr
          hintmask 11101100
          -71 callgsubr
        </CharString>
        <CharString name="ellipsis">
          612 0 81 hstem
          96 81 89 81 89 81 cntrmask 01110000
          177 hmoveto
          26 callgsubr
          -17 -81 rlineto
          251 hmoveto
          26 callgsubr
          -17 -81 rlineto
          251 hmoveto
          26 callgsubr
          -17 -81 rlineto
          endchar
        </CharString>
        <CharString name="emacron">
          -50 callgsubr
          120 63 -102 callgsubr
          hintmask 00010000
          110 300 -56 callsubr
        </CharString>
        <CharString name="emdash">
          979 244 60 hstemhm
          52 978 -965 978 hintmask 10100000
          1030 244 rmoveto
          13 60 rlineto
          -978 hlineto
          hintmask 11000000
          -13 -60 rlineto
          endchar
        </CharString>
        <CharString name="emdash.alt">
          653 245 60 hstem
          704 245 rmoveto
          13 60 rlineto
          -652 hlineto
          -13 -60 rlineto
          endchar
        </CharString>
        <CharString name="endash">
          490 244 60 hstemhm
          52 489 -476 489 hintmask 10100000
          541 244 rmoveto
          13 60 rlineto
          -489 hlineto
          hintmask 11000000
          -13 -60 rlineto
          endchar
        </CharString>
        <CharString name="eng">
          502 -208 62 540 60 102 callgsubr
          hintmask 01010000
          -67 callsubr
          hintmask 11101000
          -95 -449 -85 callgsubr
          -70 -15 -28 -76 -60 hhcurveto
          -13 -62 rlineto
          95 74 102 106 23 hvcurveto
          endchar
        </CharString>
        <CharString name="eogonek">
          86 callsubr
          hstemhm
          81 69 17 69 hintmask 01111110
          18 callgsubr
          hintmask 10000000
          -43 -8 22 -42 67 hhcurveto
          hintmask 01000000
          33 26 6 19 44 hvcurveto
          -1 59 rlineto
          hintmask 10111110
          -7 callgsubr
          endchar
        </CharString>
        <CharString name="eogonekacute">
          86 callsubr
          69 callgsubr
          81 69 17 69 hintmask 0111100110000000
          18 callgsubr
          hintmask 1000000000000000
          -43 -8 22 -42 67 hhcurveto
          hintmask 0100000000000000
          33 26 6 19 44 hvcurveto
          -1 59 rlineto
          hintmask 1011100110000000
          -7 callgsubr
          hintmask 0000011000000000
          96 415 -75 callgsubr
        </CharString>
        <CharString name="equal">
          762 135 37 155 37 hstem
          87 653 vstem
          780 345 60 callgsubr
          -589 hlineto
          -14 -18 0 -18 -3 hvcurveto
          -19 -4 17 0 15 hhcurveto
          589 hlineto
          14 18 0 18 3 hvcurveto
          -40 -192 0 callgsubr
          endchar
        </CharString>
        <CharString name="ereversed">
          -50 callgsubr
          hstem
          455 225 rmoveto
          130 27 -67 104 -108 hhcurveto
          -29 -72 -8 -69 -56 hvcurveto
          -43 -53 -17 -61 -9 -43 rrcurveto
          305 hlineto
          -106 -25 -80 -69 -77 hhcurveto
          -30 -58 7 50 -48 hvcurveto
          -1 -4 -8 -23 0 vvcurveto
          0 -10 -33 -1 -4 vhcurveto
          -40 47 52 -13 46 hhcurveto
          116 118 103 132 28 hvcurveto
          -64 54 rmoveto
          -240 hlineto
          106 40 72 14 31 hhcurveto
          59 36 -53 -67 2 hvcurveto
          endchar
        </CharString>
        <CharString name="estimated">
          655 -9 60 311 55 233 60 hstem
          704 362 rmoveto
          21 97 3 107 -57 71 rrcurveto
          49 -38 -68 24 -70 hhcurveto
          -200 -157 -189 -176 -38 hvcurveto
          -1 -8 -32 -169 86 -153 170 -23 rlinecurve
          -1 9 8 0 9 hhcurveto
          86 85 15 29 88 hvcurveto
          9 3 13 2 2 10 4 19 -1 20 3 19 -24 -8 -24 -10 -24 -8 rrcurveto
          -20 -66 -67 -11 -65 hhcurveto
          -13 hlineto
          -125 9 -72 121 22 146 7 35 rcurveline
          451 55 rmoveto
          -434 hlineto
          111 48 95 122 134 hhcurveto
          54 49 -22 -42 28 hvcurveto
          30 -46 2 -65 -6 -58 rrcurveto
          endchar
        </CharString>
        <CharString name="eth">
          -16 callsubr
          hstem
          502 219 rmoveto
          37 160 -32 151 -92 102 74 49 rcurveline
          -26 46 -87 -58 -29 24 -34 21 -38 15 rlinecurve
          -49 -49 32 -14 29 -18 26 -21 rlinecurve
          -71 -48 26 -46 84 57 39 -44 30 -54 16 -60 rlinecurve
          9 -14 -34 18 -47 hhcurveto
          -114 -120 -105 -134 -28 hvcurveto
          -129 -28 76 -101 114 hhcurveto
          105 122 89 140 33 hvcurveto
          -69 6 rmoveto
          -96 -21 -72 -77 -85 hhcurveto
          -73 -55 61 117 25 hvcurveto
          118 25 85 51 66 hhcurveto
          86 39 -77 -97 -20 hvcurveto
          endchar
        </CharString>
        <CharString name="etilde">
          -50 callgsubr
          93 60 -2 60 -102 callgsubr
          hintmask 00001000
          115 391 -75 callsubr
          -55 callgsubr
          8 hvcurveto
          hintmask 00010000
          -21 25 17 -12 25 hhcurveto
          hintmask 00001000
          12 callgsubr
        </CharString>
        <CharString name="eturned">
          -35 callsubr
        </CharString>
        <CharString name="exclam">
          311 0 81 113 -21 521 -20 hstemhm
          115 81 -64 81 50 81 hintmask 11101100
          344 694 rmoveto
          -81 hlineto
          -103 -521 rlineto
          65 hlineto
          -29 -173 rmoveto
          17 81 113 callsubr
          -17 -81 rlineto
          endchar
        </CharString>
        <CharString name="exclamdown">
          311 -173 -21 521 -20 112 81 hstemhm
          74 81 49 81 -64 81 hintmask 00100100
          285 419 82 callgsubr
          hintmask 11111000
          -17 -81 rlineto
          -49 -613 rmoveto
          103 521 rlineto
          -65 hlineto
          -119 -521 rlineto
          endchar
        </CharString>
        <CharString name="f">
          -24 callsubr
        </CharString>
        <CharString name="f_f">
          571 41 callsubr
          hstem
          99 74 8 74 115 74 44 74 vstem
          473 107 callgsubr
          3 -12 -29 7 -35 hhcurveto
          -91 -87 -69 -101 -21 hvcurveto
          -20 -90 -21 callsubr
          108 hlineto
          12 58 rlineto
          -110 hlineto
          26 120 rlineto
          70 15 63 10 29 hhcurveto
          36 28 -11 -5 11 hvcurveto
          271 hmoveto
          15 66 rlineto
          3 -12 -29 7 -35 hhcurveto
          -91 -87 -69 -101 -21 hvcurveto
          -114 -534 rlineto
          74 hlineto
          82 386 rlineto
          108 hlineto
          12 58 rlineto
          -110 hlineto
          26 120 rlineto
          70 15 63 10 29 hhcurveto
          36 28 -11 -5 11 hvcurveto
          endchar
        </CharString>
        <CharString name="f_f_i">
          795 21 -21 386 58 170 81 -51 60 hstemhm
          99 74 8 74 116 74 197 74 20 74 hintmask 1110000110000000
          850 26 callsubr
          26 122 rlineto
          hintmask 0001000000000000
          93 callgsubr
          30 21 -15 -2 3 hvcurveto
          hintmask 0010000000000000
          15 68 rlineto
          hintmask 1101111100000000
          7 -20 -5 2 -31 hhcurveto
          -74 -72 -71 -97 -21 hvcurveto
          -114 -536 rlineto
          74 hlineto
          82 386 rlineto
          -81 242 -3 callsubr
          endchar
        </CharString>
        <CharString name="f_f_l">
          795 41 callsubr
          hstem
          642 74 0 74 0 74 cntrmask 00011100
          446 628 -3 callsubr
          270 -628 rmoveto
          148 694 4 callsubr
          386 vmoveto
          -10 callgsubr
          -114 -536 rlineto
          74 hlineto
          82 386 rlineto
          endchar
        </CharString>
        <CharString name="f_i">
          523 21 -21 386 58 122 60 -12 81 -51 60 hstemhm
          99 74 8 74 115 74 20 74 hintmask 1101000110000000
          578 26 callsubr
          hintmask 1110111100000000
          26 122 rlineto
          93 callgsubr
          22 20 -8 -10 12 hvcurveto
          15 68 rlineto
          8 -19 -6 2 -31 hhcurveto
          -74 -72 -71 -97 -21 hvcurveto
          -20 -92 -21 callsubr
          endchar
        </CharString>
        <CharString name="f_k">
          780 41 callsubr
          hstemhm
          108 73 -61 73 0 72 102 73 78 73 159 72 hintmask 0110011000000000
          370 386 rmoveto
          -10 callgsubr
          -20 -92 rlineto
          hintmask 0100100000000000
          -73 hlineto
          hintmask 1101001110000000
          -32 callgsubr
          495 -386 rmoveto
          -40 callsubr
          endchar
        </CharString>
        <CharString name="f_l">
          523 41 callsubr
          hstem
          370 74 0 74 0 74 cntrmask 00011100
          370 386 rmoveto
          -10 callgsubr
          -20 -92 -21 callsubr
          189 -386 rmoveto
          148 694 4 callsubr
          endchar
        </CharString>
        <CharString name="five">
          490 -21 80 callsubr
          205 71 vstem
          483 -20 callsubr
        </CharString>
        <CharString name="five.oldstyle">
          548 -215 80 callsubr
          48 86 65 71 121 86 vstem
          477 -19 callgsubr
        </CharString>
        <CharString name="five.prop">
          548 -21 80 callsubr
          240 71 vstem
          518 -20 callsubr
        </CharString>
        <CharString name="five.taboldstyle">
          490 -215 80 callsubr
          13 86 65 71 121 86 vstem
          442 -19 callgsubr
        </CharString>
        <CharString name="florin">
          -24 callsubr
        </CharString>
        <CharString name="four">
          490 21 -21 172 60 423 -20 hstem
          340 74 vstem
          499 0 callsubr
        </CharString>
        <CharString name="four.oldstyle">
          508 -173 -21 194 60 422 -20 hstemhm
          255 79 -38 79 -61 74 hintmask 01100100
          472 -2 callgsubr
        </CharString>
        <CharString name="four.prop">
          508 21 -21 172 60 423 -20 hstem
          350 74 vstem
          509 0 callsubr
        </CharString>
        <CharString name="four.taboldstyle">
          490 -173 -21 194 60 422 -20 hstemhm
          245 79 -38 79 -61 74 hintmask 01100100
          462 -2 callgsubr
        </CharString>
        <CharString name="fraction">
          542 631 52 callgsubr
        </CharString>
        <CharString name="fraction.alt">
          0 360 52 callgsubr
        </CharString>
        <CharString name="g">
          -32 callsubr
          hstemhm
          123 69 53 69 53 69 cntrmask 00000111
          hintmask 11101111
          -14 callgsubr
          -85 hlineto
          -14 -43 0 53 11 hvcurveto
          5 22 5 6 8 9 rrcurveto
          -12 14 30 -17 40 hhcurveto
          86 86 71 91 19 hvcurveto
          8 36 -5 37 -14 28 rrcurveto
          0 1 -2 1 -2 vhcurveto
          hintmask 00110111
          2 21 23 3 37 hhcurveto
          3 23 0 -2 25 hvcurveto
          -192 -100 rmoveto
          -89 -19 -59 -18 -31 hhcurveto
          -44 -38 30 76 16 hvcurveto
          hintmask 11001111
          89 19 60 18 31 hhcurveto
          44 37 -30 -76 -16 hvcurveto
          10 -364 rmoveto
          -46 -10 -76 -33 -78 hhcurveto
          -78 -63 31 49 10 hvcurveto
          3 1 14 65 76 hhcurveto
          87 hlineto
          22 110 0 -69 -15 hvcurveto
          endchar
        </CharString>
        <CharString name="gacute">
          -32 callsubr
          94 -21 167 -10 callsubr
          hintmask 1100100110010100
          559 393 -104 callsubr
          hintmask 0000011000010000
          119 765 -75 callgsubr
        </CharString>
        <CharString name="gbreve">
          -32 callsubr
          68 65 79 callgsubr
          hintmask 1100100110010100
          559 393 -104 callsubr
          hintmask 0000011000000000
          148 771 -98 callsubr
          endchar
        </CharString>
        <CharString name="gcaron">
          -32 callsubr
          92 -21 172 -10 callsubr
          hintmask 1100100110010100
          559 393 -104 callsubr
          hintmask 0000011000000000
          137 768 -78 callsubr
        </CharString>
        <CharString name="gcedilla">
          -32 callsubr
          86 72 79 callgsubr
          hintmask 1100111110010100
          363 540 rmoveto
          15 72 rlineto
          -23 hlineto
          47 113 rlineto
          -36 hlineto
          -61 -113 -15 -72 rlineto
          269 -147 -104 callsubr
          endchar
        </CharString>
        <CharString name="gcircumflex">
          -32 callsubr
          92 -21 172 -10 callsubr
          hintmask 1100100110010100
          559 393 -104 callsubr
          hintmask 0000011000000000
          101 596 -89 callgsubr
          endchar
        </CharString>
        <CharString name="gcommaaccent">
          -32 callsubr
          86 72 79 callgsubr
          hintmask 1100111110010100
          363 540 rmoveto
          15 72 rlineto
          -23 hlineto
          47 113 rlineto
          -36 hlineto
          -61 -113 -15 -72 rlineto
          269 -147 -104 callsubr
          endchar
        </CharString>
        <CharString name="gdotaccent">
          -32 callsubr
          114 86 hstemhm
          12 70 41 69 -49 70 -24 69 -13 69 -25 86 -68 86 -26 69 -59 70 hintmask 1100101100100010
          -14 callgsubr
          hintmask 0100000001000000
          -85 hlineto
          hintmask 0011000010100100
          -14 -43 0 53 11 hvcurveto
          5 22 5 6 8 9 rrcurveto
          -12 14 30 -17 40 hhcurveto
          86 86 71 91 19 hvcurveto
          8 36 -5 37 -14 28 rrcurveto
          0 1 -2 1 -2 vhcurveto
          2 21 23 3 37 hhcurveto
          3 23 0 -2 25 hvcurveto
          -192 -100 rmoveto
          hintmask 0010000001000000
          -89 -19 -59 -18 -31 hhcurveto
          hintmask 0000100100000100
          -44 -38 30 76 16 hvcurveto
          89 19 60 18 31 hhcurveto
          44 37 -30 -76 -16 hvcurveto
          10 -364 rmoveto
          hintmask 1100001010000010
          -46 -10 -76 -33 -78 hhcurveto
          -78 -63 31 49 10 hvcurveto
          3 1 14 65 76 hhcurveto
          87 hlineto
          22 110 0 -69 -15 hvcurveto
          hintmask 0000010000001000
          -2 639 -27 callgsubr
          hintmask 0000010000010000
          -18 -86 rlineto
          endchar
        </CharString>
        <CharString name="germandbls">
          -53 callsubr
        </CharString>
        <CharString name="germandbls.dup">
          -53 callsubr
        </CharString>
        <CharString name="gnaborretni">
          462 327 -20 112 81 hstemhm
          136 65 -60 65 0 76 -39 76 -65 65 hintmask 01001000
          71 callgsubr
          -59 -36 -51 -13 -38 -4 rlinecurve
          71 352 7 21 7 21 4 22 rlinecurve
          hintmask 10000010
          12 53 rlineto
          -65 hlineto
          hintmask 00010100
          89 callgsubr
          -16 -75 22 -66 91 -12 rrcurveto
          hintmask 00101000
          -5 -23 rlineto
          65 hlineto
          5 22 70 6 62 26 37 20 rlinecurve
          -173 219 rmoveto
          -47 -209 -40 10 -6 32 10 48 rlinecurve
          10 46 17 16 17 16 14 13 12 14 13 14 rrcurveto
          endchar
        </CharString>
        <CharString name="grave">
          490 548 31 callgsubr
          426 527 -43 callgsubr
        </CharString>
        <CharString name="grave.cap">
          490 516 115 callgsubr
          hstem
          446 495 -66 callsubr
        </CharString>
        <CharString name="grave.ts1">
          489 562 -21 189 -20 hstem
          403 541 rmoveto
          -91 188 -24 1 rlineto
          -52 hlineto
          108 -189 rlineto
          endchar
        </CharString>
        <CharString name="greater">
          762 -7 -21 555 -20 hstem
          732 250 rmoveto
          1 6 0 7 -16 8 -488 249 rcurveline
          -12 6 -4 1 0 vvcurveto
          -12 -9 -10 -8 -2 hvcurveto
          -2 -12 7 -4 12 -6 463 -237 rcurveline
          -565 -238 -22 -9 -2 -7 -1 -6 rlinecurve
          -8 -2 5 -10 12 hhcurveto
          0 3 1 16 6 vhcurveto
          593 249 21 9 3 6 1 7 rlinecurve
          endchar
        </CharString>
        <CharString name="guarani">
          653 -21 62 201 60 351 62 hstem
          140 86 23 62 125 62 vstem
          593 28 rmoveto
          58 274 rlineto
          -207 hlineto
          -13 -60 rlineto
          131 hlineto
          -38 -180 rlineto
          -13 -42 -48 -8 -41 hhcurveto
          -18 -18 3 5 -16 hvcurveto
          127 597 rlineto
          4 18 19 3 18 hhcurveto
          76 47 -24 -44 42 hvcurveto
          33 81 rlineto
          38 -64 -58 11 -62 hhcurveto
          -18 -18 -2 -3 -19 hvcurveto
          16 77 rlineto
          -62 hlineto
          -20 -96 -134 -54 -110 -136 -32 -154 rlinecurve
          -34 -157 56 -134 108 -53 -21 -96 rcurveline
          62 hlineto
          17 77 rlineto
          -3 16 17 -2 18 hhcurveto
          55 77 12 37 82 hvcurveto
          -307 52 rmoveto
          -60 52 -24 101 24 114 24 114 67 101 83 53 rrcurveto
          endchar
        </CharString>
        <CharString name="guillemotleft">
          490 21 -21 449 -20 hstem
          272 24 callsubr
          223 24 callsubr
          endchar
        </CharString>
        <CharString name="guillemotright">
          490 21 -21 449 -20 hstem
          428 225 rmoveto
          -55 224 rlineto
          -60 hlineto
          39 -224 -134 -225 rlineto
          60 hlineto
          -13 64 callsubr
        </CharString>
        <CharString name="guilsinglleft">
          327 21 -21 449 -20 hstem
          272 24 callsubr
          endchar
        </CharString>
        <CharString name="guilsinglright">
          327 21 -21 449 -20 hstem
          265 64 callsubr
        </CharString>
        <CharString name="h">
          25 callsubr
          240 -20 hstem
          77 76 195 76 vstem
          -78 callgsubr
          endchar
        </CharString>
        <CharString name="h_uni0303">
          25 callsubr
          240 -20 61 63 callgsubr
          77 76 195 76 hintmask 11100110
          -78 callgsubr
          hintmask 00001000
          247 853 -75 callsubr
          15 32 29 hhcurveto
          23 22 -18 -7 8 hvcurveto
          hintmask 00010000
          -21 25 17 -12 25 hhcurveto
          hintmask 00001000
          23 callgsubr
        </CharString>
        <CharString name="hbar">
          25 callsubr
          84 62 94 -20 hstemhm
          77 76 -38 76 -62 76 143 76 hintmask 01110010
          424 hmoveto
          64 301 rlineto
          61 13 6 92 -121 hhcurveto
          -69 -54 -39 -30 -30 hvcurveto
          32 153 rlineto
          100 hlineto
          14 62 rlineto
          -100 hlineto
          20 94 rlineto
          -74 hlineto
          -20 -94 -41 callsubr
          hintmask 00100100
          -14 -62 rlineto
          76 hlineto
          hintmask 11001001
          -114 -538 -85 callgsubr
          endchar
        </CharString>
        <CharString name="hbrevebelow">
          502 108 callgsubr
          109 104 callgsubr
          240 -20 hstemhm
          77 76 195 76 hintmask 00111110
          -78 callgsubr
          hintmask 11000000
          54 -68 -98 callsubr
          endchar
        </CharString>
        <CharString name="hcircumflex">
          25 callsubr
          240 -20 82 -21 134 -20 hstemhm
          77 76 195 76 hintmask 11100110
          -78 callgsubr
          hintmask 00011000
          216 -6 callsubr
        </CharString>
        <CharString name="hdieresis">
          25 callsubr
          240 -20 61 78 hstemhm
          77 76 133 77 -60 77 -32 76 29 77 -60 77 hintmask 1110100100000000
          -78 callgsubr
          hintmask 0001001000000000
          15 58 callsubr
          hintmask 0001010001000000
          -62 callgsubr
          hintmask 0001000010000000
          -17 -78 rlineto
          endchar
        </CharString>
        <CharString name="hdotbelow">
          502 23 callsubr
          394 60 240 -20 hstemhm
          77 76 12 86 -67 86 78 76 hintmask 01111001
          -78 callgsubr
          hintmask 10000010
          -97 -200 33 callsubr
        </CharString>
        <CharString name="hungarumlaut">
          490 548 31 callgsubr
          392 694 -56 callgsubr
        </CharString>
        <CharString name="hungarumlaut.cap">
          490 516 31 callgsubr
          385 662 -56 callgsubr
        </CharString>
</ttFont>
